<svg xmlns="http://www.w3.org/2000/svg" width="720pt" height="720pt" viewBox="0 0 720 720">
<defs>
<g id="m_arom"><g transform="translate(-85.0,-85.0)">
<!-- END OF HEADER -->
<path class='bond-0 atom-0 atom-1' d='M 161.5,85.0 L 123.2,151.3' style='fill:none;fill-rule:evenodd;stroke:#7A5A32;stroke-width:2.0px;stroke-linecap:butt;stroke-linejoin:miter;stroke-opacity:1' />
<path class='bond-1 atom-1 atom-2' d='M 123.2,151.3 L 46.7,151.3' style='fill:none;fill-rule:evenodd;stroke:#7A5A32;stroke-width:2.0px;stroke-linecap:butt;stroke-linejoin:miter;stroke-opacity:1' />
<path class='bond-1 atom-1 atom-2' d='M 116.6,139.8 L 53.4,139.8' style='fill:none;fill-rule:evenodd;stroke:#7A5A32;stroke-width:2.0px;stroke-linecap:butt;stroke-linejoin:miter;stroke-opacity:1' />
<path class='bond-2 atom-2 atom-3' d='M 46.7,151.3 L 8.5,85.0' style='fill:none;fill-rule:evenodd;stroke:#7A5A32;stroke-width:2.0px;stroke-linecap:butt;stroke-linejoin:miter;stroke-opacity:1' />
<path class='bond-3 atom-3 atom-4' d='M 8.5,85.0 L 46.8,18.7' style='fill:none;fill-rule:evenodd;stroke:#7A5A32;stroke-width:2.0px;stroke-linecap:butt;stroke-linejoin:miter;stroke-opacity:1' />
<path class='bond-3 atom-3 atom-4' d='M 21.8,85.0 L 53.4,30.2' style='fill:none;fill-rule:evenodd;stroke:#7A5A32;stroke-width:2.0px;stroke-linecap:butt;stroke-linejoin:miter;stroke-opacity:1' />
<path class='bond-4 atom-4 atom-5' d='M 46.8,18.7 L 123.2,18.7' style='fill:none;fill-rule:evenodd;stroke:#7A5A32;stroke-width:2.0px;stroke-linecap:butt;stroke-linejoin:miter;stroke-opacity:1' />
<path class='bond-5 atom-5 atom-0' d='M 123.2,18.7 L 161.5,85.0' style='fill:none;fill-rule:evenodd;stroke:#7A5A32;stroke-width:2.0px;stroke-linecap:butt;stroke-linejoin:miter;stroke-opacity:1' />
<path class='bond-5 atom-5 atom-0' d='M 116.6,30.2 L 148.2,85.0' style='fill:none;fill-rule:evenodd;stroke:#7A5A32;stroke-width:2.0px;stroke-linecap:butt;stroke-linejoin:miter;stroke-opacity:1' />
<path d='M 159.6,88.3 L 161.5,85.0 L 159.6,81.7' style='fill:none;stroke:#7A5A32;stroke-width:2.0px;stroke-linecap:butt;stroke-linejoin:miter;stroke-miterlimit:10;stroke-opacity:1;' />
<path d='M 125.2,147.9 L 123.2,151.3 L 119.4,151.3' style='fill:none;stroke:#7A5A32;stroke-width:2.0px;stroke-linecap:butt;stroke-linejoin:miter;stroke-miterlimit:10;stroke-opacity:1;' />
<path d='M 50.6,151.3 L 46.7,151.3 L 44.8,147.9' style='fill:none;stroke:#7A5A32;stroke-width:2.0px;stroke-linecap:butt;stroke-linejoin:miter;stroke-miterlimit:10;stroke-opacity:1;' />
<path d='M 10.4,88.3 L 8.5,85.0 L 10.4,81.7' style='fill:none;stroke:#7A5A32;stroke-width:2.0px;stroke-linecap:butt;stroke-linejoin:miter;stroke-miterlimit:10;stroke-opacity:1;' />
<path d='M 44.8,22.1 L 46.8,18.7 L 50.6,18.7' style='fill:none;stroke:#7A5A32;stroke-width:2.0px;stroke-linecap:butt;stroke-linejoin:miter;stroke-miterlimit:10;stroke-opacity:1;' />
<path d='M 119.4,18.7 L 123.2,18.7 L 125.2,22.1' style='fill:none;stroke:#7A5A32;stroke-width:2.0px;stroke-linecap:butt;stroke-linejoin:miter;stroke-miterlimit:10;stroke-opacity:1;' />
</g></g>
<g id="m_keto"><g transform="translate(-85.0,-85.0)">
<!-- END OF HEADER -->
<path class='bond-0 atom-0 atom-1' d='M 147.2,88.7 L 104.1,88.7' style='fill:none;fill-rule:evenodd;stroke:#7A5A32;stroke-width:2.0px;stroke-linecap:butt;stroke-linejoin:miter;stroke-opacity:1' />
<path class='bond-0 atom-0 atom-1' d='M 147.2,81.3 L 104.1,81.3' style='fill:none;fill-rule:evenodd;stroke:#7A5A32;stroke-width:2.0px;stroke-linecap:butt;stroke-linejoin:miter;stroke-opacity:1' />
<path class='bond-1 atom-1 atom-2' d='M 106.3,85.0 L 81.8,127.3' style='fill:none;fill-rule:evenodd;stroke:#7A5A32;stroke-width:2.0px;stroke-linecap:butt;stroke-linejoin:miter;stroke-opacity:1' />
<path class='bond-2 atom-2 atom-3' d='M 81.8,127.3 L 32.9,127.3' style='fill:none;fill-rule:evenodd;stroke:#7A5A32;stroke-width:2.0px;stroke-linecap:butt;stroke-linejoin:miter;stroke-opacity:1' />
<path class='bond-3 atom-3 atom-4' d='M 32.9,127.3 L 8.5,85.0' style='fill:none;fill-rule:evenodd;stroke:#7A5A32;stroke-width:2.0px;stroke-linecap:butt;stroke-linejoin:miter;stroke-opacity:1' />
<path class='bond-4 atom-4 atom-5' d='M 8.5,85.0 L 32.9,42.7' style='fill:none;fill-rule:evenodd;stroke:#7A5A32;stroke-width:2.0px;stroke-linecap:butt;stroke-linejoin:miter;stroke-opacity:1' />
<path class='bond-5 atom-5 atom-6' d='M 32.9,42.7 L 81.8,42.7' style='fill:none;fill-rule:evenodd;stroke:#7A5A32;stroke-width:2.0px;stroke-linecap:butt;stroke-linejoin:miter;stroke-opacity:1' />
<path class='bond-6 atom-6 atom-1' d='M 81.8,42.7 L 106.3,85.0' style='fill:none;fill-rule:evenodd;stroke:#7A5A32;stroke-width:2.0px;stroke-linecap:butt;stroke-linejoin:miter;stroke-opacity:1' />
<path d='M 105.0,87.1 L 106.3,85.0 L 105.0,82.9' style='fill:none;stroke:#7A5A32;stroke-width:2.0px;stroke-linecap:butt;stroke-linejoin:miter;stroke-miterlimit:10;stroke-opacity:1;' />
<path d='M 83.0,125.2 L 81.8,127.3 L 79.4,127.3' style='fill:none;stroke:#7A5A32;stroke-width:2.0px;stroke-linecap:butt;stroke-linejoin:miter;stroke-miterlimit:10;stroke-opacity:1;' />
<path d='M 35.4,127.3 L 32.9,127.3 L 31.7,125.2' style='fill:none;stroke:#7A5A32;stroke-width:2.0px;stroke-linecap:butt;stroke-linejoin:miter;stroke-miterlimit:10;stroke-opacity:1;' />
<path d='M 9.7,87.1 L 8.5,85.0 L 9.7,82.9' style='fill:none;stroke:#7A5A32;stroke-width:2.0px;stroke-linecap:butt;stroke-linejoin:miter;stroke-miterlimit:10;stroke-opacity:1;' />
<path d='M 31.7,44.8 L 32.9,42.7 L 35.4,42.7' style='fill:none;stroke:#7A5A32;stroke-width:2.0px;stroke-linecap:butt;stroke-linejoin:miter;stroke-miterlimit:10;stroke-opacity:1;' />
<path d='M 79.4,42.7 L 81.8,42.7 L 83.0,44.8' style='fill:none;stroke:#7A5A32;stroke-width:2.0px;stroke-linecap:butt;stroke-linejoin:miter;stroke-miterlimit:10;stroke-opacity:1;' />
<path class='atom-0' d='M 148.8 85.0
Q 148.8 81.7, 150.4 79.9
Q 152.1 78.0, 155.1 78.0
Q 158.2 78.0, 159.9 79.9
Q 161.5 81.7, 161.5 85.0
Q 161.5 88.4, 159.8 90.3
Q 158.2 92.2, 155.1 92.2
Q 152.1 92.2, 150.4 90.3
Q 148.8 88.4, 148.8 85.0
M 155.1 90.7
Q 157.3 90.7, 158.4 89.2
Q 159.5 87.8, 159.5 85.0
Q 159.5 82.3, 158.4 81.0
Q 157.3 79.6, 155.1 79.6
Q 153.0 79.6, 151.9 80.9
Q 150.7 82.3, 150.7 85.0
Q 150.7 87.8, 151.9 89.2
Q 153.0 90.7, 155.1 90.7
' fill='#7A5A32'/>
</g></g>
<g id="m_hydroxy"><g transform="translate(-85.0,-85.0)">
<!-- END OF HEADER -->
<path class='bond-0 atom-0 atom-1' d='M 136.3,85.0 L 98.6,85.0' style='fill:none;fill-rule:evenodd;stroke:#7A5A32;stroke-width:2.0px;stroke-linecap:butt;stroke-linejoin:miter;stroke-opacity:1' />
<path class='bond-1 atom-1 atom-2' d='M 98.6,85.0 L 76.1,124.0' style='fill:none;fill-rule:evenodd;stroke:#7A5A32;stroke-width:2.0px;stroke-linecap:butt;stroke-linejoin:miter;stroke-opacity:1' />
<path class='bond-2 atom-2 atom-3' d='M 76.1,124.0 L 31.0,124.0' style='fill:none;fill-rule:evenodd;stroke:#7A5A32;stroke-width:2.0px;stroke-linecap:butt;stroke-linejoin:miter;stroke-opacity:1' />
<path class='bond-3 atom-3 atom-4' d='M 31.0,124.0 L 8.5,85.0' style='fill:none;fill-rule:evenodd;stroke:#7A5A32;stroke-width:2.0px;stroke-linecap:butt;stroke-linejoin:miter;stroke-opacity:1' />
<path class='bond-4 atom-4 atom-5' d='M 8.5,85.0 L 31.0,46.0' style='fill:none;fill-rule:evenodd;stroke:#7A5A32;stroke-width:2.0px;stroke-linecap:butt;stroke-linejoin:miter;stroke-opacity:1' />
<path class='bond-5 atom-5 atom-6' d='M 31.0,46.0 L 76.1,46.0' style='fill:none;fill-rule:evenodd;stroke:#7A5A32;stroke-width:2.0px;stroke-linecap:butt;stroke-linejoin:miter;stroke-opacity:1' />
<path class='bond-6 atom-6 atom-1' d='M 76.1,46.0 L 98.6,85.0' style='fill:none;fill-rule:evenodd;stroke:#7A5A32;stroke-width:2.0px;stroke-linecap:butt;stroke-linejoin:miter;stroke-opacity:1' />
<path d='M 77.2,122.1 L 76.1,124.0 L 73.8,124.0' style='fill:none;stroke:#7A5A32;stroke-width:2.0px;stroke-linecap:butt;stroke-linejoin:miter;stroke-miterlimit:10;stroke-opacity:1;' />
<path d='M 33.3,124.0 L 31.0,124.0 L 29.9,122.1' style='fill:none;stroke:#7A5A32;stroke-width:2.0px;stroke-linecap:butt;stroke-linejoin:miter;stroke-miterlimit:10;stroke-opacity:1;' />
<path d='M 9.6,87.0 L 8.5,85.0 L 9.6,83.0' style='fill:none;stroke:#7A5A32;stroke-width:2.0px;stroke-linecap:butt;stroke-linejoin:miter;stroke-miterlimit:10;stroke-opacity:1;' />
<path d='M 29.9,47.9 L 31.0,46.0 L 33.3,46.0' style='fill:none;stroke:#7A5A32;stroke-width:2.0px;stroke-linecap:butt;stroke-linejoin:miter;stroke-miterlimit:10;stroke-opacity:1;' />
<path d='M 73.8,46.0 L 76.1,46.0 L 77.2,47.9' style='fill:none;stroke:#7A5A32;stroke-width:2.0px;stroke-linecap:butt;stroke-linejoin:miter;stroke-miterlimit:10;stroke-opacity:1;' />
<path class='atom-0' d='M 137.8 85.0
Q 137.8 82.0, 139.3 80.3
Q 140.8 78.5, 143.7 78.5
Q 146.5 78.5, 148.0 80.3
Q 149.5 82.0, 149.5 85.0
Q 149.5 88.1, 148.0 89.9
Q 146.5 91.7, 143.7 91.7
Q 140.9 91.7, 139.3 89.9
Q 137.8 88.2, 137.8 85.0
M 143.7 90.2
Q 145.6 90.2, 146.7 88.9
Q 147.7 87.6, 147.7 85.0
Q 147.7 82.5, 146.7 81.3
Q 145.6 80.0, 143.7 80.0
Q 141.7 80.0, 140.7 81.3
Q 139.6 82.5, 139.6 85.0
Q 139.6 87.6, 140.7 88.9
Q 141.7 90.2, 143.7 90.2
' fill='#7A5A32'/>
<path class='atom-0' d='M 151.5 78.7
L 153.2 78.7
L 153.2 84.1
L 159.8 84.1
L 159.8 78.7
L 161.5 78.7
L 161.5 91.5
L 159.8 91.5
L 159.8 85.6
L 153.2 85.6
L 153.2 91.5
L 151.5 91.5
L 151.5 78.7
' fill='#7A5A32'/>
</g></g>
<g id="m_en"><g transform="translate(-85.0,-85.0)">
<!-- END OF HEADER -->
<path class='bond-0 atom-0 atom-1' d='M 161.5,85.0 L 123.2,151.3' style='fill:none;fill-rule:evenodd;stroke:#7A5A32;stroke-width:2.0px;stroke-linecap:butt;stroke-linejoin:miter;stroke-opacity:1' />
<path class='bond-1 atom-1 atom-2' d='M 123.2,151.3 L 46.7,151.3' style='fill:none;fill-rule:evenodd;stroke:#7A5A32;stroke-width:2.0px;stroke-linecap:butt;stroke-linejoin:miter;stroke-opacity:1' />
<path class='bond-2 atom-2 atom-3' d='M 46.7,151.3 L 8.5,85.0' style='fill:none;fill-rule:evenodd;stroke:#7A5A32;stroke-width:2.0px;stroke-linecap:butt;stroke-linejoin:miter;stroke-opacity:1' />
<path class='bond-3 atom-3 atom-4' d='M 8.5,85.0 L 46.8,18.7' style='fill:none;fill-rule:evenodd;stroke:#7A5A32;stroke-width:2.0px;stroke-linecap:butt;stroke-linejoin:miter;stroke-opacity:1' />
<path class='bond-3 atom-3 atom-4' d='M 21.8,85.0 L 53.4,30.2' style='fill:none;fill-rule:evenodd;stroke:#7A5A32;stroke-width:2.0px;stroke-linecap:butt;stroke-linejoin:miter;stroke-opacity:1' />
<path class='bond-4 atom-4 atom-5' d='M 46.8,18.7 L 123.2,18.7' style='fill:none;fill-rule:evenodd;stroke:#7A5A32;stroke-width:2.0px;stroke-linecap:butt;stroke-linejoin:miter;stroke-opacity:1' />
<path class='bond-5 atom-5 atom-0' d='M 123.2,18.7 L 161.5,85.0' style='fill:none;fill-rule:evenodd;stroke:#7A5A32;stroke-width:2.0px;stroke-linecap:butt;stroke-linejoin:miter;stroke-opacity:1' />
<path d='M 159.6,88.3 L 161.5,85.0 L 159.6,81.7' style='fill:none;stroke:#7A5A32;stroke-width:2.0px;stroke-linecap:butt;stroke-linejoin:miter;stroke-miterlimit:10;stroke-opacity:1;' />
<path d='M 125.2,147.9 L 123.2,151.3 L 119.4,151.3' style='fill:none;stroke:#7A5A32;stroke-width:2.0px;stroke-linecap:butt;stroke-linejoin:miter;stroke-miterlimit:10;stroke-opacity:1;' />
<path d='M 50.6,151.3 L 46.7,151.3 L 44.8,147.9' style='fill:none;stroke:#7A5A32;stroke-width:2.0px;stroke-linecap:butt;stroke-linejoin:miter;stroke-miterlimit:10;stroke-opacity:1;' />
<path d='M 10.4,88.3 L 8.5,85.0 L 10.4,81.7' style='fill:none;stroke:#7A5A32;stroke-width:2.0px;stroke-linecap:butt;stroke-linejoin:miter;stroke-miterlimit:10;stroke-opacity:1;' />
<path d='M 44.8,22.1 L 46.8,18.7 L 50.6,18.7' style='fill:none;stroke:#7A5A32;stroke-width:2.0px;stroke-linecap:butt;stroke-linejoin:miter;stroke-miterlimit:10;stroke-opacity:1;' />
<path d='M 119.4,18.7 L 123.2,18.7 L 125.2,22.1' style='fill:none;stroke:#7A5A32;stroke-width:2.0px;stroke-linecap:butt;stroke-linejoin:miter;stroke-miterlimit:10;stroke-opacity:1;' />
</g></g>
<g id="m_diol"><g transform="translate(-85.0,-85.0)">
<!-- END OF HEADER -->
<path class='bond-0 atom-0 atom-1' d='M 132.9,131.2 L 97.0,110.4' style='fill:none;fill-rule:evenodd;stroke:#7A5A32;stroke-width:2.0px;stroke-linecap:butt;stroke-linejoin:miter;stroke-opacity:1' />
<path class='bond-1 atom-1 atom-2' d='M 97.0,110.4 L 52.8,136.0' style='fill:none;fill-rule:evenodd;stroke:#7A5A32;stroke-width:2.0px;stroke-linecap:butt;stroke-linejoin:miter;stroke-opacity:1' />
<path class='bond-2 atom-2 atom-3' d='M 52.8,136.0 L 8.5,110.4' style='fill:none;fill-rule:evenodd;stroke:#7A5A32;stroke-width:2.0px;stroke-linecap:butt;stroke-linejoin:miter;stroke-opacity:1' />
<path class='bond-3 atom-3 atom-4' d='M 8.5,110.4 L 8.5,59.3' style='fill:none;fill-rule:evenodd;stroke:#7A5A32;stroke-width:2.0px;stroke-linecap:butt;stroke-linejoin:miter;stroke-opacity:1' />
<path class='bond-4 atom-4 atom-5' d='M 8.5,59.3 L 52.8,33.8' style='fill:none;fill-rule:evenodd;stroke:#7A5A32;stroke-width:2.0px;stroke-linecap:butt;stroke-linejoin:miter;stroke-opacity:1' />
<path class='bond-5 atom-5 atom-6' d='M 52.8,33.8 L 97.0,59.3' style='fill:none;fill-rule:evenodd;stroke:#7A5A32;stroke-width:2.0px;stroke-linecap:butt;stroke-linejoin:miter;stroke-opacity:1' />
<path class='bond-6 atom-6 atom-7' d='M 97.0,59.3 L 132.9,38.6' style='fill:none;fill-rule:evenodd;stroke:#7A5A32;stroke-width:2.0px;stroke-linecap:butt;stroke-linejoin:miter;stroke-opacity:1' />
<path class='bond-7 atom-6 atom-1' d='M 97.0,59.3 L 97.0,110.4' style='fill:none;fill-rule:evenodd;stroke:#7A5A32;stroke-width:2.0px;stroke-linecap:butt;stroke-linejoin:miter;stroke-opacity:1' />
<path d='M 55.0,134.7 L 52.8,136.0 L 50.5,134.7' style='fill:none;stroke:#7A5A32;stroke-width:2.0px;stroke-linecap:butt;stroke-linejoin:miter;stroke-miterlimit:10;stroke-opacity:1;' />
<path d='M 10.7,111.7 L 8.5,110.4 L 8.5,107.9' style='fill:none;stroke:#7A5A32;stroke-width:2.0px;stroke-linecap:butt;stroke-linejoin:miter;stroke-miterlimit:10;stroke-opacity:1;' />
<path d='M 8.5,61.9 L 8.5,59.3 L 10.7,58.1' style='fill:none;stroke:#7A5A32;stroke-width:2.0px;stroke-linecap:butt;stroke-linejoin:miter;stroke-miterlimit:10;stroke-opacity:1;' />
<path d='M 50.5,35.1 L 52.8,33.8 L 55.0,35.1' style='fill:none;stroke:#7A5A32;stroke-width:2.0px;stroke-linecap:butt;stroke-linejoin:miter;stroke-miterlimit:10;stroke-opacity:1;' />
<path class='atom-0' d='M 134.6 136.0
Q 134.6 132.6, 136.4 130.6
Q 138.1 128.7, 141.3 128.7
Q 144.5 128.7, 146.2 130.6
Q 147.9 132.6, 147.9 136.0
Q 147.9 139.6, 146.2 141.6
Q 144.4 143.5, 141.3 143.5
Q 138.1 143.5, 136.4 141.6
Q 134.6 139.6, 134.6 136.0
M 141.3 141.9
Q 143.5 141.9, 144.7 140.4
Q 145.9 138.9, 145.9 136.0
Q 145.9 133.2, 144.7 131.8
Q 143.5 130.3, 141.3 130.3
Q 139.1 130.3, 137.9 131.7
Q 136.7 133.2, 136.7 136.0
Q 136.7 139.0, 137.9 140.4
Q 139.1 141.9, 141.3 141.9
' fill='#7A5A32'/>
<path class='atom-0' d='M 150.2 128.8
L 152.1 128.8
L 152.1 135.0
L 159.5 135.0
L 159.5 128.8
L 161.5 128.8
L 161.5 143.3
L 159.5 143.3
L 159.5 136.6
L 152.1 136.6
L 152.1 143.3
L 150.2 143.3
L 150.2 128.8
' fill='#7A5A32'/>
<path class='atom-7' d='M 134.6 33.8
Q 134.6 30.3, 136.4 28.4
Q 138.1 26.5, 141.3 26.5
Q 144.5 26.5, 146.2 28.4
Q 147.9 30.3, 147.9 33.8
Q 147.9 37.3, 146.2 39.3
Q 144.4 41.3, 141.3 41.3
Q 138.1 41.3, 136.4 39.3
Q 134.6 37.4, 134.6 33.8
M 141.3 39.7
Q 143.5 39.7, 144.7 38.2
Q 145.9 36.7, 145.9 33.8
Q 145.9 31.0, 144.7 29.5
Q 143.5 28.1, 141.3 28.1
Q 139.1 28.1, 137.9 29.5
Q 136.7 31.0, 136.7 33.8
Q 136.7 36.7, 137.9 38.2
Q 139.1 39.7, 141.3 39.7
' fill='#7A5A32'/>
<path class='atom-7' d='M 150.2 26.6
L 152.1 26.6
L 152.1 32.8
L 159.5 32.8
L 159.5 26.6
L 161.5 26.6
L 161.5 41.1
L 159.5 41.1
L 159.5 34.4
L 152.1 34.4
L 152.1 41.1
L 150.2 41.1
L 150.2 26.6
' fill='#7A5A32'/>
</g></g>
<g id="m_aldehyd"><g transform="translate(-85.0,-85.0)">
<!-- END OF HEADER -->
<path class='bond-0 atom-0 atom-1' d='M 18.4,80.1 L 39.8,103.3' style='fill:none;fill-rule:evenodd;stroke:#7A5A32;stroke-width:2.0px;stroke-linecap:butt;stroke-linejoin:miter;stroke-opacity:1' />
<path class='bond-0 atom-0 atom-1' d='M 23.0,75.9 L 42.0,96.4' style='fill:none;fill-rule:evenodd;stroke:#7A5A32;stroke-width:2.0px;stroke-linecap:butt;stroke-linejoin:miter;stroke-opacity:1' />
<path class='bond-1 atom-1 atom-2' d='M 39.8,103.3 L 80.4,94.1' style='fill:none;fill-rule:evenodd;stroke:#7A5A32;stroke-width:2.0px;stroke-linecap:butt;stroke-linejoin:miter;stroke-opacity:1' />
<path class='bond-2 atom-2 atom-3' d='M 80.4,94.1 L 92.7,54.4' style='fill:none;fill-rule:evenodd;stroke:#7A5A32;stroke-width:2.0px;stroke-linecap:butt;stroke-linejoin:miter;stroke-opacity:1' />
<path class='bond-3 atom-3 atom-4' d='M 92.7,54.4 L 133.3,45.3' style='fill:none;fill-rule:evenodd;stroke:#7A5A32;stroke-width:2.0px;stroke-linecap:butt;stroke-linejoin:miter;stroke-opacity:1' />
<path class='bond-4 atom-4 atom-5' d='M 133.3,45.3 L 161.5,75.9' style='fill:none;fill-rule:evenodd;stroke:#7A5A32;stroke-width:2.0px;stroke-linecap:butt;stroke-linejoin:miter;stroke-opacity:1' />
<path class='bond-5 atom-5 atom-6' d='M 161.5,75.9 L 149.1,115.6' style='fill:none;fill-rule:evenodd;stroke:#7A5A32;stroke-width:2.0px;stroke-linecap:butt;stroke-linejoin:miter;stroke-opacity:1' />
<path class='bond-6 atom-6 atom-7' d='M 149.1,115.6 L 108.6,124.7' style='fill:none;fill-rule:evenodd;stroke:#7A5A32;stroke-width:2.0px;stroke-linecap:butt;stroke-linejoin:miter;stroke-opacity:1' />
<path class='bond-7 atom-7 atom-2' d='M 108.6,124.7 L 80.4,94.1' style='fill:none;fill-rule:evenodd;stroke:#7A5A32;stroke-width:2.0px;stroke-linecap:butt;stroke-linejoin:miter;stroke-opacity:1' />
<path d='M 38.7,102.1 L 39.8,103.3 L 41.8,102.8' style='fill:none;stroke:#7A5A32;stroke-width:2.0px;stroke-linecap:butt;stroke-linejoin:miter;stroke-miterlimit:10;stroke-opacity:1;' />
<path d='M 92.1,56.4 L 92.7,54.4 L 94.8,54.0' style='fill:none;stroke:#7A5A32;stroke-width:2.0px;stroke-linecap:butt;stroke-linejoin:miter;stroke-miterlimit:10;stroke-opacity:1;' />
<path d='M 131.3,45.8 L 133.3,45.3 L 134.7,46.8' style='fill:none;stroke:#7A5A32;stroke-width:2.0px;stroke-linecap:butt;stroke-linejoin:miter;stroke-miterlimit:10;stroke-opacity:1;' />
<path d='M 160.1,74.3 L 161.5,75.9 L 160.9,77.8' style='fill:none;stroke:#7A5A32;stroke-width:2.0px;stroke-linecap:butt;stroke-linejoin:miter;stroke-miterlimit:10;stroke-opacity:1;' />
<path d='M 149.8,113.6 L 149.1,115.6 L 147.1,116.0' style='fill:none;stroke:#7A5A32;stroke-width:2.0px;stroke-linecap:butt;stroke-linejoin:miter;stroke-miterlimit:10;stroke-opacity:1;' />
<path d='M 110.6,124.2 L 108.6,124.7 L 107.2,123.2' style='fill:none;stroke:#7A5A32;stroke-width:2.0px;stroke-linecap:butt;stroke-linejoin:miter;stroke-miterlimit:10;stroke-opacity:1;' />
<path class='atom-0' d='M 8.5 70.7
Q 8.5 67.8, 9.9 66.3
Q 11.3 64.7, 13.9 64.7
Q 16.5 64.7, 17.9 66.3
Q 19.3 67.8, 19.3 70.7
Q 19.3 73.5, 17.9 75.1
Q 16.5 76.8, 13.9 76.8
Q 11.3 76.8, 9.9 75.1
Q 8.5 73.5, 8.5 70.7
M 13.9 75.4
Q 15.7 75.4, 16.7 74.2
Q 17.6 73.0, 17.6 70.7
Q 17.6 68.3, 16.7 67.2
Q 15.7 66.0, 13.9 66.0
Q 12.1 66.0, 11.1 67.2
Q 10.2 68.3, 10.2 70.7
Q 10.2 73.0, 11.1 74.2
Q 12.1 75.4, 13.9 75.4
' fill='#7A5A32'/>
</g></g>
</defs>
<rect x="40" y="40" width="640" height="640" rx="26" ry="26" fill="none" stroke="#C9A24B" stroke-width="2.6"/>
<rect x="198" y="198" width="324" height="324" rx="16" ry="16" fill="none" stroke="#C9A24B" stroke-width="1.8"/>
<use href="#m_arom" transform="translate(150,100) scale(0.34)"/>
<use href="#m_keto" transform="translate(234,100) scale(0.34)"/>
<use href="#m_hydroxy" transform="translate(318,100) scale(0.34)"/>
<use href="#m_en" transform="translate(402,100) scale(0.34)"/>
<use href="#m_diol" transform="translate(486,100) scale(0.34)"/>
<use href="#m_aldehyd" transform="translate(570,100) scale(0.34)"/>
<use href="#m_arom" transform="translate(620,150) scale(0.34)"/>
<use href="#m_keto" transform="translate(620,234) scale(0.34)"/>
<use href="#m_hydroxy" transform="translate(620,318) scale(0.34)"/>
<use href="#m_en" transform="translate(620,402) scale(0.34)"/>
<use href="#m_diol" transform="translate(620,486) scale(0.34)"/>
<use href="#m_aldehyd" transform="translate(620,570) scale(0.34)"/>
<use href="#m_arom" transform="translate(570,620) scale(0.34)"/>
<use href="#m_keto" transform="translate(486,620) scale(0.34)"/>
<use href="#m_hydroxy" transform="translate(402,620) scale(0.34)"/>
<use href="#m_en" transform="translate(318,620) scale(0.34)"/>
<use href="#m_diol" transform="translate(234,620) scale(0.34)"/>
<use href="#m_aldehyd" transform="translate(150,620) scale(0.34)"/>
<use href="#m_arom" transform="translate(100,570) scale(0.34)"/>
<use href="#m_keto" transform="translate(100,486) scale(0.34)"/>
<use href="#m_hydroxy" transform="translate(100,402) scale(0.34)"/>
<use href="#m_en" transform="translate(100,318) scale(0.34)"/>
<use href="#m_diol" transform="translate(100,234) scale(0.34)"/>
<use href="#m_aldehyd" transform="translate(100,150) scale(0.34)"/>
<path d="M214.00,168.00 L216.00,165.68 L218.00,163.54 L220.00,161.74 L222.00,160.41 L224.00,159.65 L226.00,159.53 L228.00,160.05 L230.00,161.17 L232.00,162.80 L234.00,164.83 L236.00,167.10 L238.00,169.44 L240.00,171.67 L242.00,173.62 L244.00,175.14 L246.00,176.13 L248.00,176.50 L250.00,176.22 L252.00,175.33 L254.00,173.88 L256.00,171.98 L258.00,169.78 L260.00,167.45 L262.00,165.16 L264.00,163.08 L266.00,161.38 L268.00,160.18 L270.00,159.57 L272.00,159.60 L274.00,160.26 L276.00,161.51 L278.00,163.25 L280.00,165.35 L282.00,167.65 L284.00,169.98 L286.00,172.16 L288.00,174.02 L290.00,175.43 L292.00,176.27 L294.00,176.49 L296.00,176.07 L298.00,175.03 L300.00,173.47 L302.00,171.49 L304.00,169.24 L306.00,166.90 L308.00,164.65 L310.00,162.65 L312.00,161.05 L314.00,159.98 L316.00,159.52 L318.00,159.69 L320.00,160.50 L322.00,161.88 L324.00,163.72 L326.00,165.88 L328.00,168.20 L330.00,170.51 L332.00,172.63 L334.00,174.40 L336.00,175.68 L338.00,176.38 L340.00,176.45 L342.00,175.88 L344.00,174.71 L346.00,173.03 L348.00,170.98 L350.00,168.70 L352.00,166.36 L354.00,164.15 L356.00,162.23 L358.00,160.75 L360.00,159.81 L362.00,159.50 L364.00,159.83 L366.00,160.78 L368.00,162.27 L370.00,164.20 L372.00,166.41 L374.00,168.75 L376.00,171.03 L378.00,173.08 L380.00,174.74 L382.00,175.90 L384.00,176.46 L386.00,176.37 L388.00,175.66 L390.00,174.36 L392.00,172.58 L394.00,170.46 L396.00,168.15 L398.00,165.83 L400.00,163.67 L402.00,161.84 L404.00,160.48 L406.00,159.68 L408.00,159.52 L410.00,160.00 L412.00,161.08 L414.00,162.69 L416.00,164.70 L418.00,166.96 L420.00,169.30 L422.00,171.54 L424.00,173.51 L426.00,175.06 L428.00,176.08 L430.00,176.49 L432.00,176.26 L434.00,175.40 L436.00,173.98 L438.00,172.11 L440.00,169.93 L442.00,167.60 L444.00,165.30 L446.00,163.21 L448.00,161.47 L450.00,160.24 L452.00,159.59 L454.00,159.57 L456.00,160.20 L458.00,161.41 L460.00,163.13 L462.00,165.21 L464.00,167.50 L466.00,169.84 L468.00,172.03 L470.00,173.92 L472.00,175.35 L474.00,176.24 L476.00,176.50 L478.00,176.11 L480.00,175.12 L482.00,173.58 L484.00,171.62 L486.00,169.39 L488.00,167.05 L490.00,164.78 L492.00,162.76 L494.00,161.14 L496.00,160.03 L498.00,159.53 L500.00,159.66 L502.00,160.43 L504.00,161.78 L506.00,163.59 L506.00,163.59 L508.10,165.78 L509.99,168.23 L511.68,170.74 L513.18,173.13 L514.56,175.23 L515.90,176.91 L517.28,178.09 L518.79,178.71 L520.52,178.81 L522.51,178.45 L524.80,177.74 L527.37,176.82 L530.18,175.87 L533.16,175.04 L536.17,174.49 L539.11,174.35 L541.82,174.70 L544.18,175.61 L546.07,177.06 L547.42,179.03 L548.18,181.41 L548.36,184.12 L548.02,187.02 L547.25,189.98 L546.19,192.88 L545.00,195.62 L543.85,198.13 L542.92,200.38 L542.34,202.36 L542.24,204.11 L542.67,205.69 L543.66,207.17 L545.17,208.64 L547.11,210.18 L549.34,211.87 L551.70,213.75 L552.00,214.00 L554.32,216.00 L556.46,218.00 L558.26,220.00 L559.59,222.00 L560.35,224.00 L560.47,226.00 L559.95,228.00 L558.83,230.00 L557.20,232.00 L555.17,234.00 L552.90,236.00 L550.56,238.00 L548.33,240.00 L546.38,242.00 L544.86,244.00 L543.87,246.00 L543.50,248.00 L543.78,250.00 L544.67,252.00 L546.12,254.00 L548.02,256.00 L550.22,258.00 L552.55,260.00 L554.84,262.00 L556.92,264.00 L558.62,266.00 L559.82,268.00 L560.43,270.00 L560.40,272.00 L559.74,274.00 L558.49,276.00 L556.75,278.00 L554.65,280.00 L552.35,282.00 L550.02,284.00 L547.84,286.00 L545.98,288.00 L544.57,290.00 L543.73,292.00 L543.51,294.00 L543.93,296.00 L544.97,298.00 L546.53,300.00 L548.51,302.00 L550.76,304.00 L553.10,306.00 L555.35,308.00 L557.35,310.00 L558.95,312.00 L560.02,314.00 L560.48,316.00 L560.31,318.00 L559.50,320.00 L558.12,322.00 L556.28,324.00 L554.12,326.00 L551.80,328.00 L549.49,330.00 L547.37,332.00 L545.60,334.00 L544.32,336.00 L543.62,338.00 L543.55,340.00 L544.12,342.00 L545.29,344.00 L546.97,346.00 L549.02,348.00 L551.30,350.00 L553.64,352.00 L555.85,354.00 L557.77,356.00 L559.25,358.00 L560.19,360.00 L560.50,362.00 L560.17,364.00 L559.22,366.00 L557.73,368.00 L555.80,370.00 L553.59,372.00 L551.25,374.00 L548.97,376.00 L546.92,378.00 L545.26,380.00 L544.10,382.00 L543.54,384.00 L543.63,386.00 L544.34,388.00 L545.64,390.00 L547.42,392.00 L549.54,394.00 L551.85,396.00 L554.17,398.00 L556.33,400.00 L558.16,402.00 L559.52,404.00 L560.32,406.00 L560.48,408.00 L560.00,410.00 L558.92,412.00 L557.31,414.00 L555.30,416.00 L553.04,418.00 L550.70,420.00 L548.46,422.00 L546.49,424.00 L544.94,426.00 L543.92,428.00 L543.51,430.00 L543.74,432.00 L544.60,434.00 L546.02,436.00 L547.89,438.00 L550.07,440.00 L552.40,442.00 L554.70,444.00 L556.79,446.00 L558.53,448.00 L559.76,450.00 L560.41,452.00 L560.43,454.00 L559.80,456.00 L558.59,458.00 L556.87,460.00 L554.79,462.00 L552.50,464.00 L550.16,466.00 L547.97,468.00 L546.08,470.00 L544.65,472.00 L543.76,474.00 L543.50,476.00 L543.89,478.00 L544.88,480.00 L546.42,482.00 L548.38,484.00 L550.61,486.00 L552.95,488.00 L555.22,490.00 L557.24,492.00 L558.86,494.00 L559.97,496.00 L560.47,498.00 L560.34,500.00 L559.57,502.00 L558.22,504.00 L556.41,506.00 L556.41,506.00 L554.22,508.10 L551.77,509.99 L549.26,511.68 L546.87,513.18 L544.77,514.56 L543.09,515.90 L541.91,517.28 L541.29,518.79 L541.19,520.52 L541.55,522.51 L542.26,524.80 L543.18,527.37 L544.13,530.18 L544.96,533.16 L545.51,536.17 L545.65,539.11 L545.30,541.82 L544.39,544.18 L542.94,546.07 L540.97,547.42 L538.59,548.18 L535.88,548.36 L532.98,548.02 L530.02,547.25 L527.12,546.19 L524.38,545.00 L521.87,543.85 L519.62,542.92 L517.64,542.34 L515.89,542.24 L514.31,542.67 L512.83,543.66 L511.36,545.17 L509.82,547.11 L508.13,549.34 L506.25,551.70 L506.00,552.00 L504.00,554.32 L502.00,556.46 L500.00,558.26 L498.00,559.59 L496.00,560.35 L494.00,560.47 L492.00,559.95 L490.00,558.83 L488.00,557.20 L486.00,555.17 L484.00,552.90 L482.00,550.56 L480.00,548.33 L478.00,546.38 L476.00,544.86 L474.00,543.87 L472.00,543.50 L470.00,543.78 L468.00,544.67 L466.00,546.12 L464.00,548.02 L462.00,550.22 L460.00,552.55 L458.00,554.84 L456.00,556.92 L454.00,558.62 L452.00,559.82 L450.00,560.43 L448.00,560.40 L446.00,559.74 L444.00,558.49 L442.00,556.75 L440.00,554.65 L438.00,552.35 L436.00,550.02 L434.00,547.84 L432.00,545.98 L430.00,544.57 L428.00,543.73 L426.00,543.51 L424.00,543.93 L422.00,544.97 L420.00,546.53 L418.00,548.51 L416.00,550.76 L414.00,553.10 L412.00,555.35 L410.00,557.35 L408.00,558.95 L406.00,560.02 L404.00,560.48 L402.00,560.31 L400.00,559.50 L398.00,558.12 L396.00,556.28 L394.00,554.12 L392.00,551.80 L390.00,549.49 L388.00,547.37 L386.00,545.60 L384.00,544.32 L382.00,543.62 L380.00,543.55 L378.00,544.12 L376.00,545.29 L374.00,546.97 L372.00,549.02 L370.00,551.30 L368.00,553.64 L366.00,555.85 L364.00,557.77 L362.00,559.25 L360.00,560.19 L358.00,560.50 L356.00,560.17 L354.00,559.22 L352.00,557.73 L350.00,555.80 L348.00,553.59 L346.00,551.25 L344.00,548.97 L342.00,546.92 L340.00,545.26 L338.00,544.10 L336.00,543.54 L334.00,543.63 L332.00,544.34 L330.00,545.64 L328.00,547.42 L326.00,549.54 L324.00,551.85 L322.00,554.17 L320.00,556.33 L318.00,558.16 L316.00,559.52 L314.00,560.32 L312.00,560.48 L310.00,560.00 L308.00,558.92 L306.00,557.31 L304.00,555.30 L302.00,553.04 L300.00,550.70 L298.00,548.46 L296.00,546.49 L294.00,544.94 L292.00,543.92 L290.00,543.51 L288.00,543.74 L286.00,544.60 L284.00,546.02 L282.00,547.89 L280.00,550.07 L278.00,552.40 L276.00,554.70 L274.00,556.79 L272.00,558.53 L270.00,559.76 L268.00,560.41 L266.00,560.43 L264.00,559.80 L262.00,558.59 L260.00,556.87 L258.00,554.79 L256.00,552.50 L254.00,550.16 L252.00,547.97 L250.00,546.08 L248.00,544.65 L246.00,543.76 L244.00,543.50 L242.00,543.89 L240.00,544.88 L238.00,546.42 L236.00,548.38 L234.00,550.61 L232.00,552.95 L230.00,555.22 L228.00,557.24 L226.00,558.86 L224.00,559.97 L222.00,560.47 L220.00,560.34 L218.00,559.57 L216.00,558.22 L214.00,556.41 L214.00,556.41 L211.90,554.22 L210.01,551.77 L208.32,549.26 L206.82,546.87 L205.44,544.77 L204.10,543.09 L202.72,541.91 L201.21,541.29 L199.48,541.19 L197.49,541.55 L195.20,542.26 L192.63,543.18 L189.82,544.13 L186.84,544.96 L183.83,545.51 L180.89,545.65 L178.18,545.30 L175.82,544.39 L173.93,542.94 L172.58,540.97 L171.82,538.59 L171.64,535.88 L171.98,532.98 L172.75,530.02 L173.81,527.12 L175.00,524.38 L176.15,521.87 L177.08,519.62 L177.66,517.64 L177.76,515.89 L177.33,514.31 L176.34,512.83 L174.83,511.36 L172.89,509.82 L170.66,508.13 L168.30,506.25 L168.00,506.00 L165.68,504.00 L163.54,502.00 L161.74,500.00 L160.41,498.00 L159.65,496.00 L159.53,494.00 L160.05,492.00 L161.17,490.00 L162.80,488.00 L164.83,486.00 L167.10,484.00 L169.44,482.00 L171.67,480.00 L173.62,478.00 L175.14,476.00 L176.13,474.00 L176.50,472.00 L176.22,470.00 L175.33,468.00 L173.88,466.00 L171.98,464.00 L169.78,462.00 L167.45,460.00 L165.16,458.00 L163.08,456.00 L161.38,454.00 L160.18,452.00 L159.57,450.00 L159.60,448.00 L160.26,446.00 L161.51,444.00 L163.25,442.00 L165.35,440.00 L167.65,438.00 L169.98,436.00 L172.16,434.00 L174.02,432.00 L175.43,430.00 L176.27,428.00 L176.49,426.00 L176.07,424.00 L175.03,422.00 L173.47,420.00 L171.49,418.00 L169.24,416.00 L166.90,414.00 L164.65,412.00 L162.65,410.00 L161.05,408.00 L159.98,406.00 L159.52,404.00 L159.69,402.00 L160.50,400.00 L161.88,398.00 L163.72,396.00 L165.88,394.00 L168.20,392.00 L170.51,390.00 L172.63,388.00 L174.40,386.00 L175.68,384.00 L176.38,382.00 L176.45,380.00 L175.88,378.00 L174.71,376.00 L173.03,374.00 L170.98,372.00 L168.70,370.00 L166.36,368.00 L164.15,366.00 L162.23,364.00 L160.75,362.00 L159.81,360.00 L159.50,358.00 L159.83,356.00 L160.78,354.00 L162.27,352.00 L164.20,350.00 L166.41,348.00 L168.75,346.00 L171.03,344.00 L173.08,342.00 L174.74,340.00 L175.90,338.00 L176.46,336.00 L176.37,334.00 L175.66,332.00 L174.36,330.00 L172.58,328.00 L170.46,326.00 L168.15,324.00 L165.83,322.00 L163.67,320.00 L161.84,318.00 L160.48,316.00 L159.68,314.00 L159.52,312.00 L160.00,310.00 L161.08,308.00 L162.69,306.00 L164.70,304.00 L166.96,302.00 L169.30,300.00 L171.54,298.00 L173.51,296.00 L175.06,294.00 L176.08,292.00 L176.49,290.00 L176.26,288.00 L175.40,286.00 L173.98,284.00 L172.11,282.00 L169.93,280.00 L167.60,278.00 L165.30,276.00 L163.21,274.00 L161.47,272.00 L160.24,270.00 L159.59,268.00 L159.57,266.00 L160.20,264.00 L161.41,262.00 L163.13,260.00 L165.21,258.00 L167.50,256.00 L169.84,254.00 L172.03,252.00 L173.92,250.00 L175.35,248.00 L176.24,246.00 L176.50,244.00 L176.11,242.00 L175.12,240.00 L173.58,238.00 L171.62,236.00 L169.39,234.00 L167.05,232.00 L164.78,230.00 L162.76,228.00 L161.14,226.00 L160.03,224.00 L159.53,222.00 L159.66,220.00 L160.43,218.00 L161.78,216.00 L163.59,214.00 L163.59,214.00 L165.78,211.90 L168.23,210.01 L170.74,208.32 L173.13,206.82 L175.23,205.44 L176.91,204.10 L178.09,202.72 L178.71,201.21 L178.81,199.48 L178.45,197.49 L177.74,195.20 L176.82,192.63 L175.87,189.82 L175.04,186.84 L174.49,183.83 L174.35,180.89 L174.70,178.18 L175.61,175.82 L177.06,173.93 L179.03,172.58 L181.41,171.82 L184.12,171.64 L187.02,171.98 L189.98,172.75 L192.88,173.81 L195.62,175.00 L198.13,176.15 L200.38,177.08 L202.36,177.66 L204.11,177.76 L205.69,177.33 L207.17,176.34 L208.64,174.83 L210.18,172.89 L211.87,170.66 L213.75,168.30 Z" fill="none" stroke="#C9A24B" stroke-width="1.3"/>
<path d="M214.00,168.00 L216.00,170.32 L218.00,172.46 L220.00,174.26 L222.00,175.59 L224.00,176.35 L226.00,176.47 L228.00,175.95 L230.00,174.83 L232.00,173.20 L234.00,171.17 L236.00,168.90 L238.00,166.56 L240.00,164.33 L242.00,162.38 L244.00,160.86 L246.00,159.87 L248.00,159.50 L250.00,159.78 L252.00,160.67 L254.00,162.12 L256.00,164.02 L258.00,166.22 L260.00,168.55 L262.00,170.84 L264.00,172.92 L266.00,174.62 L268.00,175.82 L270.00,176.43 L272.00,176.40 L274.00,175.74 L276.00,174.49 L278.00,172.75 L280.00,170.65 L282.00,168.35 L284.00,166.02 L286.00,163.84 L288.00,161.98 L290.00,160.57 L292.00,159.73 L294.00,159.51 L296.00,159.93 L298.00,160.97 L300.00,162.53 L302.00,164.51 L304.00,166.76 L306.00,169.10 L308.00,171.35 L310.00,173.35 L312.00,174.95 L314.00,176.02 L316.00,176.48 L318.00,176.31 L320.00,175.50 L322.00,174.12 L324.00,172.28 L326.00,170.12 L328.00,167.80 L330.00,165.49 L332.00,163.37 L334.00,161.60 L336.00,160.32 L338.00,159.62 L340.00,159.55 L342.00,160.12 L344.00,161.29 L346.00,162.97 L348.00,165.02 L350.00,167.30 L352.00,169.64 L354.00,171.85 L356.00,173.77 L358.00,175.25 L360.00,176.19 L362.00,176.50 L364.00,176.17 L366.00,175.22 L368.00,173.73 L370.00,171.80 L372.00,169.59 L374.00,167.25 L376.00,164.97 L378.00,162.92 L380.00,161.26 L382.00,160.10 L384.00,159.54 L386.00,159.63 L388.00,160.34 L390.00,161.64 L392.00,163.42 L394.00,165.54 L396.00,167.85 L398.00,170.17 L400.00,172.33 L402.00,174.16 L404.00,175.52 L406.00,176.32 L408.00,176.48 L410.00,176.00 L412.00,174.92 L414.00,173.31 L416.00,171.30 L418.00,169.04 L420.00,166.70 L422.00,164.46 L424.00,162.49 L426.00,160.94 L428.00,159.92 L430.00,159.51 L432.00,159.74 L434.00,160.60 L436.00,162.02 L438.00,163.89 L440.00,166.07 L442.00,168.40 L444.00,170.70 L446.00,172.79 L448.00,174.53 L450.00,175.76 L452.00,176.41 L454.00,176.43 L456.00,175.80 L458.00,174.59 L460.00,172.87 L462.00,170.79 L464.00,168.50 L466.00,166.16 L468.00,163.97 L470.00,162.08 L472.00,160.65 L474.00,159.76 L476.00,159.50 L478.00,159.89 L480.00,160.88 L482.00,162.42 L484.00,164.38 L486.00,166.61 L488.00,168.95 L490.00,171.22 L492.00,173.24 L494.00,174.86 L496.00,175.97 L498.00,176.47 L500.00,176.34 L502.00,175.57 L504.00,174.22 L506.00,172.41 L506.00,172.41 L507.90,170.31 L510.00,168.12 L512.29,166.04 L514.74,164.26 L517.28,162.93 L519.83,162.20 L522.29,162.14 L524.56,162.80 L526.57,164.14 L528.24,166.11 L529.54,168.59 L530.48,171.42 L531.09,174.44 L531.45,177.49 L531.66,180.39 L531.85,183.03 L532.16,185.30 L532.69,187.16 L533.57,188.58 L534.87,189.62 L536.62,190.34 L538.82,190.85 L541.40,191.27 L544.25,191.72 L547.25,192.32 L550.22,193.16 L552.99,194.30 L555.40,195.78 L557.28,197.58 L558.52,199.67 L559.05,201.97 L558.86,204.41 L557.98,206.89 L556.49,209.31 L554.55,211.62 L552.30,213.74 L552.00,214.00 L549.68,216.00 L547.54,218.00 L545.74,220.00 L544.41,222.00 L543.65,224.00 L543.53,226.00 L544.05,228.00 L545.17,230.00 L546.80,232.00 L548.83,234.00 L551.10,236.00 L553.44,238.00 L555.67,240.00 L557.62,242.00 L559.14,244.00 L560.13,246.00 L560.50,248.00 L560.22,250.00 L559.33,252.00 L557.88,254.00 L555.98,256.00 L553.78,258.00 L551.45,260.00 L549.16,262.00 L547.08,264.00 L545.38,266.00 L544.18,268.00 L543.57,270.00 L543.60,272.00 L544.26,274.00 L545.51,276.00 L547.25,278.00 L549.35,280.00 L551.65,282.00 L553.98,284.00 L556.16,286.00 L558.02,288.00 L559.43,290.00 L560.27,292.00 L560.49,294.00 L560.07,296.00 L559.03,298.00 L557.47,300.00 L555.49,302.00 L553.24,304.00 L550.90,306.00 L548.65,308.00 L546.65,310.00 L545.05,312.00 L543.98,314.00 L543.52,316.00 L543.69,318.00 L544.50,320.00 L545.88,322.00 L547.72,324.00 L549.88,326.00 L552.20,328.00 L554.51,330.00 L556.63,332.00 L558.40,334.00 L559.68,336.00 L560.38,338.00 L560.45,340.00 L559.88,342.00 L558.71,344.00 L557.03,346.00 L554.98,348.00 L552.70,350.00 L550.36,352.00 L548.15,354.00 L546.23,356.00 L544.75,358.00 L543.81,360.00 L543.50,362.00 L543.83,364.00 L544.78,366.00 L546.27,368.00 L548.20,370.00 L550.41,372.00 L552.75,374.00 L555.03,376.00 L557.08,378.00 L558.74,380.00 L559.90,382.00 L560.46,384.00 L560.37,386.00 L559.66,388.00 L558.36,390.00 L556.58,392.00 L554.46,394.00 L552.15,396.00 L549.83,398.00 L547.67,400.00 L545.84,402.00 L544.48,404.00 L543.68,406.00 L543.52,408.00 L544.00,410.00 L545.08,412.00 L546.69,414.00 L548.70,416.00 L550.96,418.00 L553.30,420.00 L555.54,422.00 L557.51,424.00 L559.06,426.00 L560.08,428.00 L560.49,430.00 L560.26,432.00 L559.40,434.00 L557.98,436.00 L556.11,438.00 L553.93,440.00 L551.60,442.00 L549.30,444.00 L547.21,446.00 L545.47,448.00 L544.24,450.00 L543.59,452.00 L543.57,454.00 L544.20,456.00 L545.41,458.00 L547.13,460.00 L549.21,462.00 L551.50,464.00 L553.84,466.00 L556.03,468.00 L557.92,470.00 L559.35,472.00 L560.24,474.00 L560.50,476.00 L560.11,478.00 L559.12,480.00 L557.58,482.00 L555.62,484.00 L553.39,486.00 L551.05,488.00 L548.78,490.00 L546.76,492.00 L545.14,494.00 L544.03,496.00 L543.53,498.00 L543.66,500.00 L544.43,502.00 L545.78,504.00 L547.59,506.00 L547.59,506.00 L549.69,507.90 L551.88,510.00 L553.96,512.29 L555.74,514.74 L557.07,517.28 L557.80,519.83 L557.86,522.29 L557.20,524.56 L555.86,526.57 L553.89,528.24 L551.41,529.54 L548.58,530.48 L545.56,531.09 L542.51,531.45 L539.61,531.66 L536.97,531.85 L534.70,532.16 L532.84,532.69 L531.42,533.57 L530.38,534.87 L529.66,536.62 L529.15,538.82 L528.73,541.40 L528.28,544.25 L527.68,547.25 L526.84,550.22 L525.70,552.99 L524.22,555.40 L522.42,557.28 L520.33,558.52 L518.03,559.05 L515.59,558.86 L513.11,557.98 L510.69,556.49 L508.38,554.55 L506.26,552.30 L506.00,552.00 L504.00,549.68 L502.00,547.54 L500.00,545.74 L498.00,544.41 L496.00,543.65 L494.00,543.53 L492.00,544.05 L490.00,545.17 L488.00,546.80 L486.00,548.83 L484.00,551.10 L482.00,553.44 L480.00,555.67 L478.00,557.62 L476.00,559.14 L474.00,560.13 L472.00,560.50 L470.00,560.22 L468.00,559.33 L466.00,557.88 L464.00,555.98 L462.00,553.78 L460.00,551.45 L458.00,549.16 L456.00,547.08 L454.00,545.38 L452.00,544.18 L450.00,543.57 L448.00,543.60 L446.00,544.26 L444.00,545.51 L442.00,547.25 L440.00,549.35 L438.00,551.65 L436.00,553.98 L434.00,556.16 L432.00,558.02 L430.00,559.43 L428.00,560.27 L426.00,560.49 L424.00,560.07 L422.00,559.03 L420.00,557.47 L418.00,555.49 L416.00,553.24 L414.00,550.90 L412.00,548.65 L410.00,546.65 L408.00,545.05 L406.00,543.98 L404.00,543.52 L402.00,543.69 L400.00,544.50 L398.00,545.88 L396.00,547.72 L394.00,549.88 L392.00,552.20 L390.00,554.51 L388.00,556.63 L386.00,558.40 L384.00,559.68 L382.00,560.38 L380.00,560.45 L378.00,559.88 L376.00,558.71 L374.00,557.03 L372.00,554.98 L370.00,552.70 L368.00,550.36 L366.00,548.15 L364.00,546.23 L362.00,544.75 L360.00,543.81 L358.00,543.50 L356.00,543.83 L354.00,544.78 L352.00,546.27 L350.00,548.20 L348.00,550.41 L346.00,552.75 L344.00,555.03 L342.00,557.08 L340.00,558.74 L338.00,559.90 L336.00,560.46 L334.00,560.37 L332.00,559.66 L330.00,558.36 L328.00,556.58 L326.00,554.46 L324.00,552.15 L322.00,549.83 L320.00,547.67 L318.00,545.84 L316.00,544.48 L314.00,543.68 L312.00,543.52 L310.00,544.00 L308.00,545.08 L306.00,546.69 L304.00,548.70 L302.00,550.96 L300.00,553.30 L298.00,555.54 L296.00,557.51 L294.00,559.06 L292.00,560.08 L290.00,560.49 L288.00,560.26 L286.00,559.40 L284.00,557.98 L282.00,556.11 L280.00,553.93 L278.00,551.60 L276.00,549.30 L274.00,547.21 L272.00,545.47 L270.00,544.24 L268.00,543.59 L266.00,543.57 L264.00,544.20 L262.00,545.41 L260.00,547.13 L258.00,549.21 L256.00,551.50 L254.00,553.84 L252.00,556.03 L250.00,557.92 L248.00,559.35 L246.00,560.24 L244.00,560.50 L242.00,560.11 L240.00,559.12 L238.00,557.58 L236.00,555.62 L234.00,553.39 L232.00,551.05 L230.00,548.78 L228.00,546.76 L226.00,545.14 L224.00,544.03 L222.00,543.53 L220.00,543.66 L218.00,544.43 L216.00,545.78 L214.00,547.59 L214.00,547.59 L212.10,549.69 L210.00,551.88 L207.71,553.96 L205.26,555.74 L202.72,557.07 L200.17,557.80 L197.71,557.86 L195.44,557.20 L193.43,555.86 L191.76,553.89 L190.46,551.41 L189.52,548.58 L188.91,545.56 L188.55,542.51 L188.34,539.61 L188.15,536.97 L187.84,534.70 L187.31,532.84 L186.43,531.42 L185.13,530.38 L183.38,529.66 L181.18,529.15 L178.60,528.73 L175.75,528.28 L172.75,527.68 L169.78,526.84 L167.01,525.70 L164.60,524.22 L162.72,522.42 L161.48,520.33 L160.95,518.03 L161.14,515.59 L162.02,513.11 L163.51,510.69 L165.45,508.38 L167.70,506.26 L168.00,506.00 L170.32,504.00 L172.46,502.00 L174.26,500.00 L175.59,498.00 L176.35,496.00 L176.47,494.00 L175.95,492.00 L174.83,490.00 L173.20,488.00 L171.17,486.00 L168.90,484.00 L166.56,482.00 L164.33,480.00 L162.38,478.00 L160.86,476.00 L159.87,474.00 L159.50,472.00 L159.78,470.00 L160.67,468.00 L162.12,466.00 L164.02,464.00 L166.22,462.00 L168.55,460.00 L170.84,458.00 L172.92,456.00 L174.62,454.00 L175.82,452.00 L176.43,450.00 L176.40,448.00 L175.74,446.00 L174.49,444.00 L172.75,442.00 L170.65,440.00 L168.35,438.00 L166.02,436.00 L163.84,434.00 L161.98,432.00 L160.57,430.00 L159.73,428.00 L159.51,426.00 L159.93,424.00 L160.97,422.00 L162.53,420.00 L164.51,418.00 L166.76,416.00 L169.10,414.00 L171.35,412.00 L173.35,410.00 L174.95,408.00 L176.02,406.00 L176.48,404.00 L176.31,402.00 L175.50,400.00 L174.12,398.00 L172.28,396.00 L170.12,394.00 L167.80,392.00 L165.49,390.00 L163.37,388.00 L161.60,386.00 L160.32,384.00 L159.62,382.00 L159.55,380.00 L160.12,378.00 L161.29,376.00 L162.97,374.00 L165.02,372.00 L167.30,370.00 L169.64,368.00 L171.85,366.00 L173.77,364.00 L175.25,362.00 L176.19,360.00 L176.50,358.00 L176.17,356.00 L175.22,354.00 L173.73,352.00 L171.80,350.00 L169.59,348.00 L167.25,346.00 L164.97,344.00 L162.92,342.00 L161.26,340.00 L160.10,338.00 L159.54,336.00 L159.63,334.00 L160.34,332.00 L161.64,330.00 L163.42,328.00 L165.54,326.00 L167.85,324.00 L170.17,322.00 L172.33,320.00 L174.16,318.00 L175.52,316.00 L176.32,314.00 L176.48,312.00 L176.00,310.00 L174.92,308.00 L173.31,306.00 L171.30,304.00 L169.04,302.00 L166.70,300.00 L164.46,298.00 L162.49,296.00 L160.94,294.00 L159.92,292.00 L159.51,290.00 L159.74,288.00 L160.60,286.00 L162.02,284.00 L163.89,282.00 L166.07,280.00 L168.40,278.00 L170.70,276.00 L172.79,274.00 L174.53,272.00 L175.76,270.00 L176.41,268.00 L176.43,266.00 L175.80,264.00 L174.59,262.00 L172.87,260.00 L170.79,258.00 L168.50,256.00 L166.16,254.00 L163.97,252.00 L162.08,250.00 L160.65,248.00 L159.76,246.00 L159.50,244.00 L159.89,242.00 L160.88,240.00 L162.42,238.00 L164.38,236.00 L166.61,234.00 L168.95,232.00 L171.22,230.00 L173.24,228.00 L174.86,226.00 L175.97,224.00 L176.47,222.00 L176.34,220.00 L175.57,218.00 L174.22,216.00 L172.41,214.00 L172.41,214.00 L170.31,212.10 L168.12,210.00 L166.04,207.71 L164.26,205.26 L162.93,202.72 L162.20,200.17 L162.14,197.71 L162.80,195.44 L164.14,193.43 L166.11,191.76 L168.59,190.46 L171.42,189.52 L174.44,188.91 L177.49,188.55 L180.39,188.34 L183.03,188.15 L185.30,187.84 L187.16,187.31 L188.58,186.43 L189.62,185.13 L190.34,183.38 L190.85,181.18 L191.27,178.60 L191.72,175.75 L192.32,172.75 L193.16,169.78 L194.30,167.01 L195.78,164.60 L197.58,162.72 L199.67,161.48 L201.97,160.95 L204.41,161.14 L206.89,162.02 L209.31,163.51 L211.62,165.45 L213.74,167.70 Z" fill="none" stroke="#C9A24B" stroke-width="1.3"/>
<circle cx="70" cy="70" r="6.5" fill="none" stroke="#C9A24B" stroke-width="2.0"/>
<path d="M92.00,109.00 L77.28,100.50 L77.28,83.50 L92.00,75.00 L106.72,83.50 L106.72,100.50 Z" fill="none" stroke="#C9A24B" stroke-width="1.9"/>
<line x1="78.0" y1="78.0" x2="83.0" y2="83.0" stroke="#C9A24B" stroke-width="1.8"/>
<circle cx="650" cy="70" r="6.5" fill="none" stroke="#C9A24B" stroke-width="2.0"/>
<path d="M628.00,109.00 L613.28,100.50 L613.28,83.50 L628.00,75.00 L642.72,83.50 L642.72,100.50 Z" fill="none" stroke="#C9A24B" stroke-width="1.9"/>
<line x1="642.0" y1="78.0" x2="637.0" y2="83.0" stroke="#C9A24B" stroke-width="1.8"/>
<circle cx="70" cy="650" r="6.5" fill="none" stroke="#C9A24B" stroke-width="2.0"/>
<path d="M92.00,645.00 L77.28,636.50 L77.28,619.50 L92.00,611.00 L106.72,619.50 L106.72,636.50 Z" fill="none" stroke="#C9A24B" stroke-width="1.9"/>
<line x1="78.0" y1="642.0" x2="83.0" y2="637.0" stroke="#C9A24B" stroke-width="1.8"/>
<circle cx="650" cy="650" r="6.5" fill="none" stroke="#C9A24B" stroke-width="2.0"/>
<path d="M628.00,645.00 L613.28,636.50 L613.28,619.50 L628.00,611.00 L642.72,619.50 L642.72,636.50 Z" fill="none" stroke="#C9A24B" stroke-width="1.9"/>
<line x1="642.0" y1="642.0" x2="637.0" y2="637.0" stroke="#C9A24B" stroke-width="1.8"/>
<circle cx="360" cy="100" r="46" fill="#F7F1E1" stroke="#C9A24B" stroke-width="2.4"/>
<g transform="translate(360,100) scale(0.42) translate(-100.0,-100.0)">
<!-- END OF HEADER -->
<path class='bond-0 atom-0 atom-1' d='M 70.0,101.8 L 96.9,48.0' style='fill:none;fill-rule:evenodd;stroke:#7A5A32;stroke-width:2.0px;stroke-linecap:butt;stroke-linejoin:miter;stroke-opacity:1' />
<path class='bond-1 atom-1 atom-2' d='M 96.9,48.0 L 156.9,44.4' style='fill:none;fill-rule:evenodd;stroke:#7A5A32;stroke-width:2.0px;stroke-linecap:butt;stroke-linejoin:miter;stroke-opacity:1' />
<path class='bond-2 atom-2 atom-3' d='M 156.9,44.4 L 190.0,94.6' style='fill:none;fill-rule:evenodd;stroke:#7A5A32;stroke-width:2.0px;stroke-linecap:butt;stroke-linejoin:miter;stroke-opacity:1' />
<path class='bond-3 atom-3 atom-4' d='M 190.0,94.6 L 163.1,148.3' style='fill:none;fill-rule:evenodd;stroke:#7A5A32;stroke-width:2.0px;stroke-linecap:butt;stroke-linejoin:miter;stroke-opacity:1' />
<path class='bond-4 atom-4 atom-5' d='M 163.1,148.3 L 103.1,152.0' style='fill:none;fill-rule:evenodd;stroke:#7A5A32;stroke-width:2.0px;stroke-linecap:butt;stroke-linejoin:miter;stroke-opacity:1' />
<path class='bond-5 atom-5 atom-6' d='M 103.1,152.0 L 43.1,155.6' style='fill:none;fill-rule:evenodd;stroke:#7A5A32;stroke-width:2.0px;stroke-linecap:butt;stroke-linejoin:miter;stroke-opacity:1' />
<path class='bond-6 atom-6 atom-7' d='M 43.1,155.6 L 10.0,105.4' style='fill:none;fill-rule:evenodd;stroke:#7A5A32;stroke-width:2.0px;stroke-linecap:butt;stroke-linejoin:miter;stroke-opacity:1' />
<path class='bond-7 atom-7 atom-8' d='M 10.0,105.4 L 36.9,51.7' style='fill:none;fill-rule:evenodd;stroke:#7A5A32;stroke-width:2.0px;stroke-linecap:butt;stroke-linejoin:miter;stroke-opacity:1' />
<path class='bond-8 atom-7 atom-9' d='M 10.0,105.4 L 60.2,72.3' style='fill:none;fill-rule:evenodd;stroke:#7A5A32;stroke-width:2.0px;stroke-linecap:butt;stroke-linejoin:miter;stroke-opacity:1' />
<path class='bond-9 atom-5 atom-0' d='M 103.1,152.0 L 70.0,101.8' style='fill:none;fill-rule:evenodd;stroke:#7A5A32;stroke-width:2.0px;stroke-linecap:butt;stroke-linejoin:miter;stroke-opacity:1' />
<path class='bond-10 atom-8 atom-1' d='M 36.9,51.7 L 96.9,48.0' style='fill:none;fill-rule:evenodd;stroke:#7A5A32;stroke-width:2.0px;stroke-linecap:butt;stroke-linejoin:miter;stroke-opacity:1' />
<path class='bond-11 atom-9 atom-3' d='M 60.2,72.3 L 190.0,94.6' style='fill:none;fill-rule:evenodd;stroke:#7A5A32;stroke-width:2.0px;stroke-linecap:butt;stroke-linejoin:miter;stroke-opacity:1' />
<path d='M 71.3,99.1 L 70.0,101.8 L 71.7,104.3' style='fill:none;stroke:#7A5A32;stroke-width:2.0px;stroke-linecap:butt;stroke-linejoin:miter;stroke-miterlimit:10;stroke-opacity:1;' />
<path d='M 153.9,44.6 L 156.9,44.4 L 158.5,46.9' style='fill:none;stroke:#7A5A32;stroke-width:2.0px;stroke-linecap:butt;stroke-linejoin:miter;stroke-miterlimit:10;stroke-opacity:1;' />
<path d='M 164.5,145.7 L 163.1,148.3 L 160.1,148.5' style='fill:none;stroke:#7A5A32;stroke-width:2.0px;stroke-linecap:butt;stroke-linejoin:miter;stroke-miterlimit:10;stroke-opacity:1;' />
<path d='M 46.1,155.4 L 43.1,155.6 L 41.5,153.1' style='fill:none;stroke:#7A5A32;stroke-width:2.0px;stroke-linecap:butt;stroke-linejoin:miter;stroke-miterlimit:10;stroke-opacity:1;' />
<path d='M 35.5,54.3 L 36.9,51.7 L 39.9,51.5' style='fill:none;stroke:#7A5A32;stroke-width:2.0px;stroke-linecap:butt;stroke-linejoin:miter;stroke-miterlimit:10;stroke-opacity:1;' />
<path d='M 57.6,74.0 L 60.2,72.3 L 66.6,73.4' style='fill:none;stroke:#7A5A32;stroke-width:2.0px;stroke-linecap:butt;stroke-linejoin:miter;stroke-miterlimit:10;stroke-opacity:1;' />
</g>
<circle cx="360" cy="620" r="46" fill="#F7F1E1" stroke="#C9A24B" stroke-width="2.4"/>
<g transform="translate(360,620) scale(0.42) translate(-100.0,-100.0)">
<!-- END OF HEADER -->
<path class='bond-0 atom-0 atom-1' d='M 70.0,101.8 L 96.9,48.0' style='fill:none;fill-rule:evenodd;stroke:#7A5A32;stroke-width:2.0px;stroke-linecap:butt;stroke-linejoin:miter;stroke-opacity:1' />
<path class='bond-1 atom-1 atom-2' d='M 96.9,48.0 L 156.9,44.4' style='fill:none;fill-rule:evenodd;stroke:#7A5A32;stroke-width:2.0px;stroke-linecap:butt;stroke-linejoin:miter;stroke-opacity:1' />
<path class='bond-2 atom-2 atom-3' d='M 156.9,44.4 L 190.0,94.6' style='fill:none;fill-rule:evenodd;stroke:#7A5A32;stroke-width:2.0px;stroke-linecap:butt;stroke-linejoin:miter;stroke-opacity:1' />
<path class='bond-3 atom-3 atom-4' d='M 190.0,94.6 L 163.1,148.3' style='fill:none;fill-rule:evenodd;stroke:#7A5A32;stroke-width:2.0px;stroke-linecap:butt;stroke-linejoin:miter;stroke-opacity:1' />
<path class='bond-4 atom-4 atom-5' d='M 163.1,148.3 L 103.1,152.0' style='fill:none;fill-rule:evenodd;stroke:#7A5A32;stroke-width:2.0px;stroke-linecap:butt;stroke-linejoin:miter;stroke-opacity:1' />
<path class='bond-5 atom-5 atom-6' d='M 103.1,152.0 L 43.1,155.6' style='fill:none;fill-rule:evenodd;stroke:#7A5A32;stroke-width:2.0px;stroke-linecap:butt;stroke-linejoin:miter;stroke-opacity:1' />
<path class='bond-6 atom-6 atom-7' d='M 43.1,155.6 L 10.0,105.4' style='fill:none;fill-rule:evenodd;stroke:#7A5A32;stroke-width:2.0px;stroke-linecap:butt;stroke-linejoin:miter;stroke-opacity:1' />
<path class='bond-7 atom-7 atom-8' d='M 10.0,105.4 L 36.9,51.7' style='fill:none;fill-rule:evenodd;stroke:#7A5A32;stroke-width:2.0px;stroke-linecap:butt;stroke-linejoin:miter;stroke-opacity:1' />
<path class='bond-8 atom-7 atom-9' d='M 10.0,105.4 L 60.2,72.3' style='fill:none;fill-rule:evenodd;stroke:#7A5A32;stroke-width:2.0px;stroke-linecap:butt;stroke-linejoin:miter;stroke-opacity:1' />
<path class='bond-9 atom-5 atom-0' d='M 103.1,152.0 L 70.0,101.8' style='fill:none;fill-rule:evenodd;stroke:#7A5A32;stroke-width:2.0px;stroke-linecap:butt;stroke-linejoin:miter;stroke-opacity:1' />
<path class='bond-10 atom-8 atom-1' d='M 36.9,51.7 L 96.9,48.0' style='fill:none;fill-rule:evenodd;stroke:#7A5A32;stroke-width:2.0px;stroke-linecap:butt;stroke-linejoin:miter;stroke-opacity:1' />
<path class='bond-11 atom-9 atom-3' d='M 60.2,72.3 L 190.0,94.6' style='fill:none;fill-rule:evenodd;stroke:#7A5A32;stroke-width:2.0px;stroke-linecap:butt;stroke-linejoin:miter;stroke-opacity:1' />
<path d='M 71.3,99.1 L 70.0,101.8 L 71.7,104.3' style='fill:none;stroke:#7A5A32;stroke-width:2.0px;stroke-linecap:butt;stroke-linejoin:miter;stroke-miterlimit:10;stroke-opacity:1;' />
<path d='M 153.9,44.6 L 156.9,44.4 L 158.5,46.9' style='fill:none;stroke:#7A5A32;stroke-width:2.0px;stroke-linecap:butt;stroke-linejoin:miter;stroke-miterlimit:10;stroke-opacity:1;' />
<path d='M 164.5,145.7 L 163.1,148.3 L 160.1,148.5' style='fill:none;stroke:#7A5A32;stroke-width:2.0px;stroke-linecap:butt;stroke-linejoin:miter;stroke-miterlimit:10;stroke-opacity:1;' />
<path d='M 46.1,155.4 L 43.1,155.6 L 41.5,153.1' style='fill:none;stroke:#7A5A32;stroke-width:2.0px;stroke-linecap:butt;stroke-linejoin:miter;stroke-miterlimit:10;stroke-opacity:1;' />
<path d='M 35.5,54.3 L 36.9,51.7 L 39.9,51.5' style='fill:none;stroke:#7A5A32;stroke-width:2.0px;stroke-linecap:butt;stroke-linejoin:miter;stroke-miterlimit:10;stroke-opacity:1;' />
<path d='M 57.6,74.0 L 60.2,72.3 L 66.6,73.4' style='fill:none;stroke:#7A5A32;stroke-width:2.0px;stroke-linecap:butt;stroke-linejoin:miter;stroke-miterlimit:10;stroke-opacity:1;' />
</g>
</svg>
