<?xml version="1.0" standalone="no"?>
<!DOCTYPE svg PUBLIC "-//W3C//DTD SVG 20010904//EN"
 "http://www.w3.org/TR/2001/REC-SVG-20010904/DTD/svg10.dtd">
<svg version="1.0" xmlns="http://www.w3.org/2000/svg"
 width="755.000000pt" height="350.000000pt" viewBox="0 0 755.000000 350.000000"
 preserveAspectRatio="xMidYMid meet">
<metadata>
Created by potrace 1.16, written by Peter Selinger 2001-2019
</metadata>
<g transform="translate(0.000000,350.000000) scale(0.100000,-0.100000)"
fill="#7A5A32" stroke="none">
<path d="M3680 3449 c-38 -89 -37 -107 10 -163 41 -49 57 -86 45 -105 -12 -20
-22 -11 -50 41 -44 81 -99 134 -161 158 -61 22 -137 26 -195 8 -91 -27 -169
-133 -169 -229 0 -49 -1 -51 -22 -44 -13 5 -52 10 -89 12 -80 5 -132 -15 -276
-110 -161 -105 -234 -144 -317 -167 -123 -34 -206 -15 -206 47 0 67 46 83 79
28 21 -37 39 -43 59 -23 36 36 -16 128 -73 128 -43 0 -93 -27 -115 -62 -43
-70 -15 -157 60 -188 16 -7 30 -16 30 -21 0 -13 -1016 -11 -1062 1 -25 7 -50
27 -78 60 -23 28 -47 50 -54 50 -20 0 -104 -92 -121 -132 -9 -23 -15 -68 -15
-117 0 -79 -1 -81 -30 -96 -16 -8 -34 -15 -39 -15 -6 0 -48 -18 -93 -39 -122
-58 -206 -143 -282 -286 -81 -151 -127 -203 -223 -250 -143 -70 -168 -102 -95
-125 130 -42 223 -126 311 -282 59 -106 140 -202 206 -248 24 -17 80 -48 125
-70 116 -58 120 -64 120 -158 0 -64 5 -87 26 -130 26 -53 86 -112 114 -112 8
0 24 19 35 43 15 31 32 48 66 65 46 22 47 22 523 23 467 0 596 -5 596 -22 0
-5 -8 -9 -17 -9 -22 0 -83 -36 -100 -59 -37 -50 -18 -136 39 -171 67 -41 138
-17 153 50 14 63 -57 99 -73 38 -10 -39 -35 -47 -63 -22 -15 13 -18 25 -14 44
16 62 66 78 176 55 88 -18 182 -61 320 -147 205 -127 216 -133 294 -133 39 0
84 4 101 9 l32 8 -5 -46 c-13 -115 89 -231 223 -252 96 -15 218 52 277 154 38
64 70 77 75 30 3 -21 -6 -37 -37 -67 -41 -40 -54 -83 -32 -107 7 -8 76 -166
94 -216 4 -10 13 -18 22 -18 9 0 18 8 21 18 11 31 74 196 89 229 14 31 13 34
-20 74 -37 43 -51 79 -41 104 11 28 26 15 61 -54 33 -67 37 -71 108 -106 102
-50 174 -57 242 -22 69 35 102 68 132 133 20 44 24 64 18 100 -7 49 -4 51 48
29 70 -29 233 24 354 116 75 56 248 145 318 164 89 23 141 20 170 -10 29 -28
31 -51 9 -83 -24 -35 -58 -26 -62 16 -3 26 -8 32 -26 32 -53 0 -63 -64 -17
-111 56 -55 151 -25 180 57 18 52 9 88 -34 131 -27 27 -41 33 -76 33 -30 0
-40 3 -32 11 20 20 979 33 1089 14 43 -7 80 -38 104 -86 26 -49 46 -50 92 -2
57 61 71 97 76 201 5 106 4 105 111 147 102 40 207 122 282 222 37 49 81 116
99 150 48 91 110 151 211 200 139 68 140 83 15 146 -109 55 -207 154 -264 265
-93 182 -176 257 -375 337 -75 30 -74 29 -80 140 -3 81 -24 130 -74 180 -46
46 -72 45 -98 -2 -11 -20 -33 -46 -48 -57 -28 -21 -40 -21 -535 -24 -279 -1
-518 0 -531 3 -24 6 -23 7 11 30 113 76 69 245 -63 245 -41 0 -89 -48 -89 -88
0 -59 57 -68 70 -11 12 49 80 22 80 -32 0 -24 -43 -55 -85 -63 -33 -7 -124 11
-190 36 -42 16 -219 123 -273 164 -105 80 -220 114 -309 91 -29 -8 -55 -12
-57 -9 -3 2 -3 23 0 46 10 72 -47 161 -136 215 -27 16 -52 21 -110 21 -65 0
-84 -5 -139 -33 -55 -27 -72 -42 -108 -97 -75 -114 -72 -111 -73 -63 0 36 6
50 36 83 33 36 36 44 30 79 -3 22 -15 60 -26 85 -18 42 -22 46 -54 46 l-34 0
25 -64 c23 -58 24 -68 13 -96 -7 -17 -22 -36 -33 -42 -17 -9 -24 -7 -39 12
-24 29 -23 93 2 148 l19 42 -33 0 c-31 0 -35 -4 -56 -51z m-219 -120 c68 -15
150 -89 186 -169 59 -130 -8 -293 -144 -354 -37 -16 -48 -17 -87 -6 -73 20
-101 44 -140 116 -40 77 -45 100 -18 89 40 -16 138 -18 168 -2 48 25 76 62 81
109 4 37 1 49 -21 75 -14 17 -39 36 -56 43 -25 10 -34 10 -55 -4 -35 -23 -31
-42 15 -66 30 -16 40 -26 40 -45 0 -79 -141 -89 -194 -13 -48 68 12 188 110
223 48 17 51 18 115 4z m754 -10 c69 -26 106 -71 112 -137 6 -64 -9 -100 -52
-117 -74 -32 -145 -4 -145 55 0 22 7 30 40 43 44 17 48 27 24 51 -61 62 -171
-55 -134 -143 23 -56 55 -76 123 -76 34 1 77 4 95 9 40 11 42 -5 8 -73 -69
-135 -141 -168 -251 -115 -94 44 -145 129 -145 242 0 53 6 79 26 120 42 85
143 158 221 161 12 1 47 -8 78 -20z m-421 -197 c3 -5 14 -51 26 -102 31 -145
96 -225 238 -293 l87 -42 1101 0 1101 0 53 33 c92 57 120 32 120 -109 0 -52 5
-91 13 -102 6 -9 50 -32 96 -51 46 -20 119 -58 161 -86 68 -45 86 -63 143
-148 36 -53 75 -117 87 -142 36 -71 142 -175 206 -200 30 -12 54 -28 54 -35 0
-7 -21 -20 -46 -30 -63 -24 -172 -132 -212 -210 -45 -88 -145 -214 -210 -263
-31 -24 -105 -68 -163 -97 -120 -60 -114 -53 -125 -185 -10 -133 -37 -157
-108 -98 -21 17 -57 35 -79 39 -65 13 -2061 11 -2152 -2 -140 -19 -255 -92
-319 -202 -16 -27 -36 -86 -47 -144 -11 -53 -22 -100 -25 -105 -10 -16 -34 -7
-38 15 -2 12 -9 49 -15 82 -34 185 -189 332 -374 355 -98 12 -1990 13 -2093 1
-64 -8 -93 -17 -133 -41 -28 -17 -59 -30 -68 -28 -30 6 -43 48 -41 133 2 116
2 115 -167 205 -44 23 -98 55 -120 71 -57 42 -143 152 -214 273 -65 112 -95
142 -187 192 -32 17 -59 35 -61 41 -2 6 21 23 52 37 31 14 67 34 81 45 42 33
110 128 184 257 41 71 93 134 143 172 48 36 155 92 177 92 5 0 25 8 44 17 46
22 66 65 66 145 0 74 15 137 36 145 7 3 35 -9 61 -25 27 -17 70 -36 96 -42 57
-12 2067 -13 2164 0 87 12 163 49 233 116 65 62 87 107 116 237 9 39 18 75 21
80 6 10 31 9 37 -1z m-684 -67 c35 -18 38 -35 11 -59 -11 -10 -23 -31 -26 -47
-16 -70 -77 -105 -122 -69 -31 24 -51 25 -75 3 -25 -22 -23 -56 7 -91 13 -16
22 -32 18 -36 -9 -9 -523 -7 -523 2 0 4 20 13 45 20 68 18 221 93 303 148 41
27 92 62 115 77 46 30 146 66 190 66 15 1 41 -6 57 -14z m1480 -4 c28 -11 95
-49 150 -86 111 -73 292 -167 358 -184 42 -12 57 -30 25 -32 -60 -5 -479 4
-485 10 -4 4 4 24 18 44 27 41 26 63 -6 92 -18 16 -21 16 -53 -4 -64 -40 -111
-23 -128 45 -6 24 -21 51 -33 59 -16 12 -19 19 -10 33 28 44 87 52 164 23z
m-1371 -152 c13 -28 41 -71 64 -96 56 -61 45 -66 -118 -58 -159 8 -174 11
-181 41 -8 33 2 44 44 44 48 0 95 29 127 80 14 22 29 40 34 40 5 0 18 -23 30
-51z m1183 2 c34 -50 72 -75 121 -77 23 -1 45 -2 50 -3 12 -2 8 -46 -5 -59
-15 -15 -324 -17 -333 -2 -3 5 11 24 31 42 19 18 50 57 67 85 18 29 35 52 39
51 4 -2 17 -18 30 -37z m-1084 -1975 c3 -3 -11 -21 -30 -40 -19 -19 -50 -60
-68 -92 -32 -57 -33 -58 -49 -37 -9 11 -24 35 -33 52 -21 38 -60 54 -114 47
-42 -5 -42 -5 -46 30 -2 19 0 38 5 41 30 18 316 17 335 -1z m-400 8 l23 -7
-30 -28 c-36 -33 -40 -68 -11 -94 18 -16 25 -17 54 -7 45 17 102 15 120 -3 8
-9 18 -32 22 -53 3 -20 14 -49 25 -64 24 -34 9 -47 -63 -55 -46 -4 -61 -1
-118 29 -36 19 -117 67 -180 108 -129 83 -248 136 -328 146 -65 8 -56 22 18
27 98 6 444 7 468 1z m1717 -1 c124 6 482 1 500 -7 16 -7 9 -11 -38 -22 -91
-22 -251 -105 -444 -231 -67 -44 -122 -57 -188 -45 -51 9 -58 39 -21 83 14 17
26 36 26 43 0 22 40 66 60 66 10 0 35 -9 54 -21 l35 -21 26 26 c31 31 32 70 3
90 -31 22 -51 20 -78 -9 -15 -16 -34 -25 -54 -25 -42 0 -88 -30 -115 -74 -13
-20 -28 -36 -35 -36 -7 0 -25 24 -41 53 -15 28 -41 66 -57 84 -49 51 -36 55
151 49 91 -3 189 -5 216 -3z m-1107 -65 c72 -34 142 -157 142 -248 0 -89 -70
-204 -149 -245 -39 -20 -110 -29 -155 -21 -66 12 -146 106 -146 170 0 60 58
116 121 116 39 0 99 -33 99 -54 0 -8 -23 -34 -50 -59 -54 -47 -54 -58 1 -72
22 -5 34 1 68 33 37 36 41 43 41 89 0 46 -3 54 -40 87 -36 33 -46 36 -98 36
-31 0 -72 -4 -89 -9 -41 -12 -52 3 -25 32 11 12 29 41 41 64 53 107 130 132
239 81z m675 -1 c31 -23 107 -143 107 -167 0 -5 -30 -6 -70 -3 -56 5 -79 2
-110 -12 -45 -20 -80 -68 -80 -109 0 -40 25 -93 51 -106 37 -20 129 5 113 31
-3 5 -21 16 -40 24 -42 17 -61 53 -45 84 24 44 124 41 172 -5 80 -77 -19 -257
-141 -256 -108 2 -204 71 -255 184 -27 59 -27 64 -16 127 18 99 76 183 156
226 43 23 115 15 158 -18z m-393 -502 c17 -18 21 -31 17 -52 -9 -44 -36 -103
-48 -103 -14 0 -49 79 -49 113 0 25 30 67 48 67 5 0 19 -11 32 -25z M3740
2778 c-33 -59 -127 -148 -155 -148 -8 0 -15 -7 -15 -15 0 -11 -7 -14 -23 -10
-15 4 -28 1 -36 -8 -6 -8 -21 -13 -31 -10 -11 3 -34 0 -50 -7 -34 -14 -150
-15 -1440 -7 -443 3 -813 8 -822 12 -20 8 -38 -21 -38 -59 0 -32 22 -34 35 -3
l10 22 1140 5 c1077 5 1143 6 1195 24 71 24 130 54 130 66 0 6 7 10 16 10 9 0
40 25 70 56 l53 56 55 -56 c29 -31 59 -56 65 -56 17 0 13 8 -16 38 -38 39 -73
83 -85 110 -16 33 -31 27 -58 -20z M4060 2580 c-12 -8 -10 -10 8 -10 13 0 20
4 17 10 -7 12 -6 12 -25 0z M6350 2581 c-14 -4 -410 -8 -880 -9 -470 -1 -868
-6 -885 -11 -18 -6 323 -10 878 -10 l908 -1 25 -27 c18 -20 23 -34 19 -53 -4
-18 1 -35 16 -54 22 -29 110 -76 141 -76 10 0 18 -4 18 -10 0 -5 9 -10 20 -10
11 0 20 -4 20 -10 0 -5 5 -10 11 -10 45 0 229 -178 229 -222 0 -10 5 -18 10
-18 6 0 10 -8 10 -18 0 -10 9 -35 20 -57 11 -22 20 -44 20 -51 0 -28 -55 -50
-193 -79 -39 -8 -26 -21 30 -30 63 -9 153 -52 153 -72 0 -24 -33 -127 -42
-131 -5 -2 -8 -8 -8 -13 0 -6 -18 -37 -40 -71 -23 -33 -39 -63 -36 -65 8 -8
73 67 92 108 11 21 22 39 27 39 4 0 7 6 7 13 -1 29 59 125 104 169 l49 48 -51
45 c-28 25 -61 67 -74 93 -13 26 -29 56 -35 67 -7 11 -18 35 -25 53 -7 17 -16
32 -20 32 -5 0 -8 6 -8 13 0 35 -163 177 -203 177 -27 0 -180 86 -200 112 -11
15 -22 51 -26 85 -5 53 -8 58 -31 60 -14 1 -36 -2 -50 -6z m647 -727 c13 -36
-59 -52 -83 -19 -16 21 -10 33 20 45 24 9 54 -4 63 -26z M4160 2560 c-20 -4
47 -8 155 -8 114 0 182 3 170 8 -24 10 -276 10 -325 0z M1121 2465 c-15 -36
-50 -75 -67 -75 -6 0 -17 -7 -24 -15 -10 -13 -9 -15 9 -15 11 0 21 5 21 10 0
6 6 10 14 10 18 0 68 77 63 98 -3 12 -7 9 -16 -13z M840 2298 c-83 -57 -137
-127 -221 -288 -24 -46 -63 -102 -86 -124 l-42 -39 53 -58 c31 -33 62 -80 76
-114 51 -127 83 -171 176 -245 38 -31 113 -80 121 -80 5 0 46 -19 93 -43 96
-48 111 -68 118 -156 l5 -53 60 7 c83 9 93 19 27 25 -45 4 -55 9 -58 25 -2 11
-6 27 -9 35 -3 8 -5 19 -4 23 5 23 -34 76 -67 92 -20 10 -45 22 -54 26 -10 5
-24 9 -31 9 -52 0 -201 110 -270 198 -26 33 -77 137 -77 155 0 9 -4 19 -10 22
-5 3 -10 19 -10 35 0 25 6 31 53 48 28 11 78 25 110 32 32 8 54 17 50 21 -4 3
-39 12 -78 19 -73 12 -135 42 -135 65 0 8 22 61 48 118 52 109 92 158 184 220
44 30 55 47 32 54 -5 1 -29 -12 -54 -29z m-197 -432 c24 -18 21 -34 -7 -47
-32 -15 -76 -4 -76 19 0 39 47 55 83 28z M6741 2011 c-13 -21 -41 -49 -62 -62
-39 -24 -65 -57 -31 -40 9 5 30 15 46 22 38 18 96 79 96 101 0 30 -24 20 -49
-21z M770 2027 c0 -16 58 -80 87 -95 51 -28 47 -8 -11 48 -65 62 -76 69 -76
47z M875 1767 c-10 -7 -35 -27 -55 -44 -19 -18 -38 -33 -42 -33 -5 0 -8 -9 -8
-21 0 -28 8 -23 74 39 73 69 85 91 31 59z M6705 1715 c72 -66 85 -74 85 -52
-1 21 -43 63 -91 91 -71 41 -70 31 6 -39z M6714 1422 c-27 -24 -105 -61 -207
-98 -52 -19 -87 -54 -87 -89 0 -35 13 -38 26 -6 8 19 34 42 74 65 33 20 65 36
71 36 34 0 159 83 159 105 0 10 -17 4 -36 -13z M6393 1160 l-11 -30 -126 0
c-72 0 -127 -4 -131 -10 -5 -9 268 -16 292 -7 17 5 12 77 -5 77 -4 0 -13 -13
-19 -30z M1343 1123 c9 -2 23 -2 30 0 6 3 -1 5 -18 5 -16 0 -22 -2 -12 -5z
M1425 1120 c60 -13 2028 -12 2020 0 -4 7 -352 10 -1033 9 -565 -1 -1009 -5
-987 -9z M4180 1120 c-9 -6 345 -10 958 -10 656 0 972 3 972 10 0 14 -1909 13
-1930 0z M3475 1100 c3 -5 16 -10 29 -10 12 0 27 -5 33 -11 6 -6 19 -9 29 -6
18 4 18 4 -1 11 -11 4 -28 12 -37 17 -24 12 -61 12 -53 -1z M4030 1103 c-58
-20 -152 -76 -196 -115 -28 -27 -57 -48 -63 -48 -6 0 -20 14 -33 30 -12 17
-28 30 -35 30 -7 0 -18 9 -25 20 -7 11 -21 20 -31 20 -15 0 -10 -8 20 -38 41
-40 67 -74 86 -111 18 -36 30 -35 52 1 32 55 114 135 163 159 26 12 55 26 64
31 10 4 25 8 33 8 8 0 15 5 15 10 0 10 -25 12 -50 3z M3590 1060 c0 -5 5 -10
10 -10 6 0 10 5 10 10 0 6 -4 10 -10 10 -5 0 -10 -4 -10 -10z"/>
</g>
</svg>
