<?xml version="1.0" standalone="no"?>
<!DOCTYPE svg PUBLIC "-//W3C//DTD SVG 20010904//EN"
 "http://www.w3.org/TR/2001/REC-SVG-20010904/DTD/svg10.dtd">
<svg version="1.0" xmlns="http://www.w3.org/2000/svg"
 width="686.000000pt" height="695.000000pt" viewBox="0 0 686.000000 695.000000"
 preserveAspectRatio="xMidYMid meet">
<metadata>
Created by potrace 1.16, written by Peter Selinger 2001-2019
</metadata>
<g transform="translate(0.000000,695.000000) scale(0.100000,-0.100000)"
fill="#7A5A32" stroke="none">
<path d="M1446 6700 c-119 -80 -153 -93 -194 -70 -48 26 -256 120 -266 120 -7
0 -23 -12 -37 -26 -13 -14 -50 -45 -83 -68 -32 -22 -79 -55 -103 -73 -37 -25
-50 -30 -72 -23 -14 5 -64 16 -111 25 -47 9 -100 21 -118 27 -24 7 -37 7 -44
0 -19 -19 0 -41 39 -47 21 -4 52 -10 68 -15 17 -4 63 -14 103 -21 40 -7 76
-17 81 -23 4 -6 18 -69 30 -139 23 -140 22 -148 -30 -191 -42 -36 -53 -35
-249 11 -67 16 -75 21 -78 43 -9 73 -56 242 -69 247 -20 8 -34 -17 -22 -38 5
-10 9 -28 9 -41 0 -13 9 -50 20 -82 32 -96 28 -128 -27 -198 -120 -153 -143
-184 -143 -203 0 -11 29 -79 65 -150 36 -72 66 -139 67 -150 1 -11 -28 -69
-63 -130 -103 -177 -100 -144 -30 -286 33 -68 68 -136 77 -150 17 -26 16 -28
-14 -74 -77 -116 -96 -236 -54 -330 13 -27 48 -76 80 -107 31 -32 51 -58 45
-58 -21 0 -73 -64 -108 -135 -55 -113 -69 -168 -69 -275 1 -80 5 -104 28 -154
14 -32 44 -78 66 -102 l40 -43 -49 -65 c-67 -88 -86 -148 -85 -266 0 -81 4
-104 27 -154 15 -32 45 -80 67 -106 36 -43 38 -49 24 -61 -23 -19 -88 -118
-104 -159 -20 -48 -18 -210 2 -276 34 -110 103 -224 149 -250 17 -8 26 -5 55
22 19 18 34 37 34 43 0 5 -13 31 -29 58 -16 26 -50 85 -77 131 -49 83 -60 94
-71 66 -6 -16 15 -62 80 -176 50 -88 46 -119 -7 -63 -42 45 -48 57 -82 170
-27 90 -31 183 -10 223 22 42 124 132 149 132 16 0 111 -97 141 -145 46 -73
56 -101 56 -155 0 -59 -24 -117 -79 -189 -23 -30 -41 -58 -41 -62 0 -5 -29
-29 -65 -54 -133 -96 -202 -207 -192 -310 6 -59 43 -147 80 -191 15 -18 27
-38 27 -46 0 -8 -29 -68 -65 -134 -36 -65 -68 -133 -71 -151 -7 -36 -5 -40 85
-196 l63 -108 -66 -137 c-36 -75 -66 -148 -66 -162 0 -15 25 -61 60 -110 33
-47 75 -105 92 -130 37 -51 38 -74 8 -187 -21 -75 -27 -163 -11 -163 14 0 28
23 34 60 24 131 44 212 57 224 22 22 249 71 281 61 9 -3 31 -24 49 -46 36 -45
36 -33 5 -209 -9 -52 -20 -98 -24 -102 -4 -4 -29 -12 -56 -18 -202 -41 -257
-60 -225 -80 18 -11 50 -7 182 26 53 13 100 24 105 24 5 0 67 -41 138 -91 102
-71 135 -89 155 -86 14 3 70 27 125 52 172 81 164 80 235 34 33 -21 63 -39 66
-39 3 0 32 -18 64 -40 32 -22 66 -40 76 -40 9 0 42 13 73 29 89 46 226 111
235 111 4 0 26 -13 49 -29 58 -39 149 -71 202 -71 71 0 147 35 212 96 46 43
59 51 66 39 10 -18 108 -85 162 -110 60 -28 174 -55 230 -55 101 1 190 31 268
92 27 21 52 38 55 38 4 0 21 -13 37 -28 84 -79 240 -119 356 -92 68 16 157 60
188 94 14 14 28 26 33 26 5 0 37 -19 71 -42 117 -80 211 -99 353 -73 49 10
109 26 134 38 61 28 157 93 169 114 8 15 16 11 63 -33 134 -127 246 -135 421
-33 l48 29 156 -76 c136 -66 157 -73 172 -61 9 8 43 29 76 47 33 19 82 49 110
67 27 18 58 33 69 33 10 0 44 -12 75 -26 31 -14 65 -30 76 -34 11 -4 40 -17
65 -28 96 -42 97 -41 260 78 52 39 104 70 115 70 12 0 60 -11 108 -25 120 -35
177 -42 177 -23 0 25 -20 35 -105 53 -137 29 -150 32 -167 40 -22 9 -23 12
-44 158 l-18 127 34 35 c29 30 40 35 81 35 43 0 178 -29 233 -50 16 -6 26 -19
30 -42 4 -18 11 -51 16 -73 4 -22 14 -67 21 -100 14 -68 24 -84 41 -67 9 9 7
31 -6 94 -9 46 -22 110 -28 143 l-10 61 48 68 c109 152 134 192 134 217 0 14
-29 84 -65 156 -36 72 -65 133 -65 136 0 4 14 30 32 59 55 93 118 216 118 232
0 21 -69 172 -111 242 l-36 61 48 71 c102 153 88 284 -47 414 -20 21 -50 42
-66 49 -15 6 -28 15 -28 20 0 5 21 44 47 87 107 175 146 289 77 224 -10 -11
-37 -54 -59 -96 -22 -43 -54 -94 -71 -114 l-31 -36 -51 48 c-89 83 -107 191
-49 299 37 71 139 177 169 177 31 0 124 -76 139 -113 8 -18 14 -66 13 -112 0
-97 -34 -195 -100 -292 -24 -35 -44 -68 -44 -73 0 -22 34 -8 67 27 85 93 144
287 125 414 -13 86 -53 174 -98 217 l-35 33 36 42 c79 92 118 226 97 338 -14
77 -56 170 -93 205 -16 15 -29 34 -29 42 0 9 18 39 40 69 67 88 83 134 84 243
1 76 -4 110 -23 169 -24 72 -109 218 -137 234 -22 13 -17 24 27 64 124 112
138 256 37 410 -53 82 -54 85 -33 103 16 13 20 21 97 174 49 97 50 100 35 130
-25 49 -81 146 -117 203 l-33 53 72 144 c39 79 71 150 71 158 0 14 -69 117
-98 147 -7 8 -31 38 -53 67 -45 61 -48 84 -19 175 10 35 22 90 26 123 6 52 5
58 -11 55 -17 -4 -29 -40 -71 -224 -11 -48 -26 -56 -154 -84 -132 -29 -146
-28 -186 16 -19 20 -34 46 -34 57 0 26 46 266 51 269 8 6 176 40 216 44 45 5
69 24 60 47 -5 11 -14 13 -39 7 -18 -5 -69 -16 -113 -26 -44 -9 -92 -22 -106
-27 -24 -8 -37 -3 -110 48 -46 31 -108 76 -138 100 -29 24 -57 44 -62 44 -5 0
-43 -17 -86 -39 -164 -81 -214 -102 -232 -96 -10 3 -67 38 -127 78 -60 39
-116 75 -125 79 -10 4 -32 -1 -50 -11 -19 -10 -79 -41 -134 -70 -55 -29 -107
-59 -117 -67 -10 -10 -18 -12 -22 -5 -4 6 -46 32 -94 58 -80 44 -92 48 -152
47 -36 -1 -81 -9 -101 -17 -46 -21 -140 -100 -159 -135 -13 -24 -14 -25 -18
-7 -5 25 -38 61 -71 79 -15 7 -44 23 -66 36 -112 65 -162 79 -280 80 -93 0
-144 -20 -239 -92 l-60 -45 -80 54 c-93 62 -154 83 -246 83 -54 0 -78 -6 -137
-34 -39 -19 -90 -51 -113 -72 -29 -26 -45 -35 -54 -28 -68 51 -176 116 -210
125 -67 18 -201 6 -276 -25 -82 -34 -195 -102 -218 -131 l-18 -23 -54 50 c-86
80 -133 102 -209 102 -72 0 -128 -20 -204 -73 l-44 -30 -156 79 c-85 44 -159
80 -163 80 -5 0 -62 -36 -128 -80z m3898 7 c17 -13 65 -44 106 -69 115 -71
111 -61 97 -212 l-12 -129 -103 -52 c-56 -28 -108 -57 -114 -63 -21 -21 -57
-13 -118 29 -83 56 -87 70 -8 26 70 -39 98 -46 98 -23 0 15 -54 53 -149 104
-56 31 -65 33 -73 18 -21 -37 -28 -11 -28 108 0 68 3 132 6 141 6 15 53 45 71
45 4 0 -5 -12 -20 -26 -21 -19 -26 -29 -18 -37 9 -9 24 -5 59 12 26 13 74 37
107 54 75 37 82 44 67 59 -10 10 -17 10 -32 0 -26 -16 -59 -17 -43 -1 14 14
54 37 67 38 5 1 23 -9 40 -22z m-3636 -43 c141 -68 132 -54 132 -214 l0 -137
-53 -36 c-30 -21 -58 -37 -63 -37 -5 0 -29 -16 -53 -35 -24 -19 -51 -35 -59
-35 -9 0 34 34 94 75 106 73 133 102 87 98 -39 -4 -198 -115 -201 -140 -2 -13
-8 -23 -14 -23 -22 0 -211 106 -224 126 -10 14 -15 59 -17 145 l-2 124 110 73
c128 85 121 84 263 16z m1198 21 c62 -32 129 -115 120 -149 -7 -28 -78 -94
-154 -143 -114 -74 -233 -64 -324 27 -27 26 -48 52 -48 58 0 14 23 31 144 102
97 57 126 83 107 95 -14 8 -141 -54 -226 -109 -68 -46 -89 -53 -99 -38 -5 8
34 42 114 100 62 44 174 77 281 81 20 0 56 -10 85 -24z m602 11 c82 -22 99
-37 100 -88 1 -24 -5 -50 -11 -58 -34 -43 -131 -120 -151 -120 -53 0 -195 124
-181 158 16 38 17 52 4 52 -23 0 33 34 86 52 61 21 85 22 153 4z m648 3 c93
-17 264 -110 264 -144 0 -20 -52 -3 -115 37 -70 44 -158 87 -167 82 -16 -10
-7 -32 20 -50 69 -47 238 -144 249 -144 7 0 13 -5 13 -11 0 -5 -4 -7 -10 -4
-14 8 -45 -11 -91 -55 -41 -39 -117 -70 -174 -70 -53 0 -166 65 -234 134 -74
75 -74 76 -2 158 63 71 128 89 247 67z m-3035 -57 c171 -78 164 -74 165 -107
9 -253 9 -249 -7 -253 -13 -2 -15 3 -12 23 4 17 1 25 -9 25 -13 0 -52 -23 -74
-45 -7 -6 -39 -29 -73 -51 -33 -21 -63 -45 -66 -52 -10 -27 26 -23 70 8 62 43
68 33 8 -14 -39 -30 -52 -36 -77 -30 -34 7 -216 82 -232 95 -18 15 -59 237
-50 271 7 28 202 176 232 177 11 1 67 -21 125 -47z m4888 -29 c100 -71 133
-105 117 -120 -3 -3 -12 0 -20 7 -9 6 -21 10 -27 8 -24 -8 -61 -249 -41 -262
16 -10 29 21 37 87 4 31 11 60 16 63 5 3 9 21 9 40 0 19 4 33 9 30 4 -3 4 -29
-1 -58 -5 -29 -13 -77 -17 -106 -4 -29 -12 -56 -17 -61 -5 -4 -60 -29 -123
-55 -128 -53 -137 -53 -209 0 -26 19 -55 40 -64 47 -10 6 -34 23 -54 37 l-35
25 4 130 c6 148 6 148 115 194 31 13 80 34 107 47 28 13 58 23 67 23 10 1 67
-34 127 -76z m-3768 36 c31 -15 109 -90 109 -104 0 -5 -84 -111 -110 -138 -4
-5 -27 23 -50 62 -72 125 -158 164 -221 102 -19 -20 -29 -40 -29 -60 0 -65 38
-105 125 -131 110 -32 117 -44 53 -81 -58 -32 -174 -35 -208 -4 -21 19 -22 24
-15 140 6 111 9 122 34 148 14 16 48 40 75 54 88 45 164 49 237 12z m2601 4
c63 -25 117 -63 133 -93 8 -15 17 -75 21 -132 6 -100 6 -106 -15 -125 -12 -12
-43 -26 -67 -33 -51 -14 -97 -5 -159 31 -36 22 -47 49 -19 49 21 0 164 67 186
87 20 18 25 91 8 123 -10 19 -59 40 -95 40 -44 0 -106 -59 -142 -137 -19 -40
-37 -73 -41 -73 -4 0 -15 12 -24 28 -9 15 -35 46 -57 70 -52 57 -40 90 58 153
37 24 56 29 108 29 35 0 81 -7 105 -17z m-1625 -41 c-10 -10 -17 -22 -17 -27
0 -19 97 -119 151 -155 75 -52 109 -53 175 -4 75 56 154 136 154 156 0 11 7
18 20 18 37 0 20 -29 -72 -123 -92 -92 -144 -127 -190 -127 -31 0 -94 34 -143
78 -37 33 -115 136 -115 151 0 11 34 51 44 51 5 0 2 -8 -7 -18z m584 -48 c-17
-19 -31 -37 -31 -40 0 -11 46 -93 82 -147 46 -67 98 -108 177 -138 48 -18 69
-20 151 -15 52 4 136 8 185 9 50 2 122 12 162 22 l72 19 23 -21 c48 -46 116
-73 179 -73 61 0 102 15 181 67 l37 25 68 -40 c37 -22 90 -57 118 -76 27 -20
59 -36 70 -36 11 0 58 21 105 46 166 88 168 89 207 70 19 -9 78 -46 131 -82
104 -71 108 -71 186 -33 22 10 46 19 53 19 7 0 27 8 45 18 61 34 82 34 127 2
31 -23 41 -37 41 -58 0 -15 -4 -32 -8 -37 -5 -6 -28 -58 -52 -117 l-42 -108
38 -58 c22 -33 58 -87 82 -121 23 -34 42 -68 42 -76 0 -7 -17 -42 -39 -77 -50
-83 -101 -184 -101 -201 0 -8 19 -43 41 -78 23 -35 50 -79 61 -97 10 -18 25
-43 33 -56 14 -21 12 -28 -25 -101 -35 -68 -40 -87 -40 -144 0 -76 20 -128 70
-185 37 -41 37 -31 -5 -181 -11 -38 -15 -80 -12 -115 2 -30 0 -80 -5 -112 -28
-160 55 -332 197 -411 86 -47 113 -55 121 -33 4 9 20 24 36 32 28 14 29 14 19
-3 -14 -26 -55 -68 -98 -100 -105 -77 -193 -202 -193 -273 0 -62 47 -135 146
-229 52 -48 94 -91 94 -94 0 -4 -6 -7 -13 -7 -7 0 -45 -15 -84 -34 -115 -55
-187 -143 -219 -266 -14 -56 -15 -82 -4 -229 7 -100 19 -189 31 -225 10 -33
15 -64 12 -70 -4 -6 -24 -33 -44 -61 -26 -34 -41 -69 -50 -112 -15 -74 -5
-118 48 -208 l35 -60 -18 -35 c-10 -19 -26 -44 -35 -55 -32 -39 -99 -157 -99
-176 0 -22 65 -148 110 -213 16 -25 30 -53 30 -63 0 -10 -18 -41 -39 -69 -72
-96 -111 -159 -111 -181 0 -12 14 -57 31 -100 17 -43 38 -100 46 -127 l15 -48
-33 -34 c-38 -40 -69 -43 -126 -15 -54 27 -175 71 -196 71 -10 0 -56 -26 -101
-59 -46 -32 -101 -69 -122 -81 l-40 -23 -64 31 c-36 18 -93 48 -128 67 -35 19
-73 35 -84 35 -11 0 -43 -15 -71 -34 -29 -19 -82 -52 -119 -75 l-68 -41 -52
33 c-78 49 -103 57 -168 57 -67 0 -95 -10 -163 -58 -44 -32 -49 -33 -80 -22
-17 7 -90 16 -162 21 -71 5 -165 12 -208 15 -94 7 -149 -5 -229 -53 -58 -34
-137 -128 -174 -205 l-17 -37 31 -36 c18 -20 32 -40 32 -46 0 -13 -36 6 -47
25 -4 8 -51 60 -103 117 -98 104 -180 159 -240 159 -72 0 -169 -75 -313 -243
-59 -67 -110 -109 -88 -70 6 10 24 33 41 52 16 18 30 35 30 38 0 2 -18 38 -39
81 -47 93 -106 156 -181 191 -53 25 -60 26 -230 24 -97 -2 -196 -7 -220 -12
-25 -5 -71 -15 -102 -22 -56 -13 -58 -13 -85 13 -77 72 -197 90 -283 43 -121
-66 -105 -64 -172 -26 -33 18 -83 51 -112 72 -28 21 -62 39 -74 39 -13 0 -80
-30 -149 -66 l-125 -66 -44 21 c-24 13 -79 49 -123 82 -49 37 -88 59 -104 59
-23 0 -99 -25 -182 -60 -77 -33 -91 -34 -124 -11 -54 39 -52 78 11 220 40 90
37 110 -25 200 -29 42 -63 93 -76 113 l-22 38 57 102 c31 57 65 120 76 141
l19 38 -27 47 c-15 26 -51 83 -81 128 l-53 81 35 58 c41 69 49 102 43 195 -3
63 -8 75 -48 132 -24 34 -43 71 -43 80 1 10 11 55 22 101 12 49 22 138 26 222
5 124 3 148 -15 207 -37 120 -130 217 -252 263 -27 10 -48 23 -48 29 0 6 34
43 77 81 94 85 153 172 153 226 0 85 -47 153 -195 283 -39 34 -39 35 -20 50
11 8 49 30 85 48 111 56 184 153 211 277 12 58 -2 301 -23 391 -6 25 -14 59
-18 77 -6 26 -3 38 17 65 14 18 36 56 49 83 42 88 28 213 -31 291 -14 18 -25
35 -25 38 0 8 91 158 115 190 50 65 46 84 -52 252 -29 50 -53 97 -53 105 0 8
16 37 35 64 123 174 125 179 116 210 -16 52 -49 138 -70 185 -11 25 -21 51
-21 58 0 13 69 82 82 82 13 0 101 -34 181 -69 89 -40 90 -40 221 49 66 44 126
80 133 80 11 0 126 -57 216 -109 21 -11 49 -21 62 -21 15 0 70 30 129 70 57
39 111 70 120 70 9 0 52 -18 95 -40 116 -59 187 -55 288 19 49 35 64 37 124
15 43 -16 156 -25 364 -28 89 -1 106 2 157 26 73 34 140 96 173 161 33 63 72
107 97 107 10 0 18 -4 18 -9 0 -5 30 -41 66 -80 83 -89 141 -125 203 -125 79
1 138 42 265 184 106 119 120 133 124 120 2 -5 -10 -26 -27 -46z m-691 -10 c0
-14 -4 -23 -10 -19 -5 3 -10 15 -10 26 0 10 5 19 10 19 6 0 10 -12 10 -26z
m-990 -65 c22 -28 40 -60 40 -70 0 -19 -1 -19 -32 -3 -17 9 -52 22 -77 28 -35
8 -48 17 -55 38 -13 36 6 58 50 58 28 0 40 -8 74 -51z m2761 27 c17 -37 -1
-57 -82 -88 -40 -15 -74 -26 -77 -24 -6 7 48 100 70 119 30 26 76 22 89 -7z
m-2471 -53 c0 -9 -6 -13 -14 -10 -18 7 -109 -81 -102 -99 6 -16 -19 -20 -29
-4 -6 10 7 29 74 102 34 38 47 46 57 37 8 -6 14 -18 14 -26z m2100 8 c0 -6 -4
-13 -10 -16 -20 -13 -9 -48 25 -79 36 -33 43 -50 25 -61 -21 -13 -123 -35
-162 -35 l-41 0 27 33 c45 54 80 104 98 136 16 29 38 42 38 22z m-1490 -28 c0
-9 -48 -70 -77 -97 -26 -24 -79 -53 -141 -76 -47 -18 -131 -8 -196 24 -80 39
-75 61 7 28 91 -38 156 -36 232 7 58 32 147 98 153 113 4 10 22 11 22 1z m903
-38 c57 -50 180 -115 218 -115 13 0 53 9 89 20 86 26 102 25 66 -4 -101 -83
-278 -50 -387 73 -46 51 -58 71 -43 71 3 0 29 -20 57 -45z m697 -52 c0 -19
-30 -16 -37 5 -3 9 -15 29 -25 44 -28 41 -21 42 22 2 22 -21 40 -43 40 -51z
m-2190 68 c0 -5 23 -38 51 -73 l51 -63 -49 -3 c-72 -5 -173 27 -173 55 0 7 7
13 15 13 26 0 63 30 69 56 6 22 36 35 36 15z m-196 -125 c-6 -15 -75 -47 -84
-39 -3 3 8 16 23 29 31 27 70 33 61 10z m2462 -7 c10 -12 35 -30 54 -41 l35
-19 -32 5 c-35 6 -100 44 -107 64 -9 20 29 14 50 -9z m-4185 -160 c134 -24
156 -32 164 -61 4 -13 15 -41 25 -63 9 -22 28 -68 40 -103 l23 -63 -27 -27
-28 -27 16 32 c40 80 -1 70 -61 -14 -26 -38 -50 -70 -53 -73 -3 -3 -16 -20
-29 -38 -16 -23 -20 -37 -13 -44 15 -15 26 -5 82 69 28 36 50 59 50 51 0 -14
-76 -136 -92 -148 -10 -7 -261 15 -277 24 -6 4 -41 66 -77 137 -74 149 -76
130 23 254 96 121 102 127 114 119 6 -4 60 -15 120 -25z m6037 -27 c21 -31 59
-83 85 -115 49 -60 57 -90 32 -123 -14 -18 -15 -17 -12 15 3 43 -19 52 -35 14
-7 -15 -23 -45 -35 -65 -27 -43 -57 -127 -49 -135 13 -13 36 10 60 59 19 39
25 45 21 23 -3 -16 -15 -42 -25 -57 -11 -15 -20 -34 -20 -42 0 -23 -29 -34
-121 -45 -123 -16 -173 -14 -192 7 -8 9 -39 53 -69 96 -29 44 -57 85 -62 92
-9 11 -2 34 64 199 23 56 33 71 52 73 20 2 21 1 6 -8 -26 -16 -11 -40 26 -40
17 0 74 11 126 24 69 16 96 27 98 39 3 13 -4 17 -32 17 -20 0 -44 -4 -54 -9
-18 -9 -105 -31 -123 -31 -8 0 -8 4 0 14 7 8 33 17 59 20 80 9 122 18 128 27
13 21 36 5 72 -49z m-5949 -532 c7 -4 29 -36 48 -71 19 -35 50 -92 69 -127
l35 -63 -34 -47 c-19 -26 -51 -79 -72 -118 l-37 -70 -135 -12 c-128 -12 -135
-12 -162 7 -27 20 -69 106 -57 118 3 4 6 1 6 -5 0 -7 7 -20 15 -29 8 -10 21
-27 29 -38 11 -15 18 -17 26 -8 9 8 -1 36 -43 115 -45 86 -58 103 -78 103 -30
1 -28 24 10 80 15 22 47 73 71 113 l43 73 126 -7 c69 -3 132 -10 140 -14z
m6011 -82 c30 -53 63 -105 73 -115 18 -21 24 -63 8 -63 -5 0 -11 5 -13 12 -9
25 -38 -4 -71 -70 -19 -38 -41 -78 -48 -89 -6 -11 -9 -28 -5 -38 6 -16 9 -17
21 -4 8 8 26 37 40 64 33 67 32 31 -2 -41 -39 -84 -49 -87 -200 -79 -71 4
-134 12 -141 18 -7 5 -20 26 -29 46 -9 20 -34 61 -54 91 -52 77 -56 101 -26
152 14 24 34 59 45 78 33 59 65 115 70 120 5 7 153 17 222 16 l54 -1 56 -97z
m55 -230 c-10 -13 -14 -16 -11 -8 3 8 9 24 13 35 4 11 8 14 11 7 2 -6 -4 -22
-13 -34z m-6047 -278 c19 -28 23 -44 19 -81 -4 -48 -59 -179 -75 -179 -10 0
-56 99 -66 144 -11 45 -58 86 -99 86 -49 0 -66 -8 -82 -41 -19 -36 -19 -78 1
-117 19 -40 49 -63 118 -93 31 -13 58 -30 60 -36 5 -12 -73 -73 -93 -73 -5 0
-19 -12 -31 -27 l-21 -26 -27 19 c-15 11 -41 41 -58 66 -53 79 -54 163 -3 268
35 73 75 107 137 115 26 3 54 8 62 10 8 2 42 2 75 2 56 -2 61 -4 83 -37z
m5887 20 c82 -18 167 -178 151 -284 -8 -53 -55 -127 -99 -155 l-32 -20 -35 33
c-19 18 -50 43 -68 55 -18 12 -30 26 -27 30 2 5 29 20 58 35 31 15 68 44 88
68 29 37 34 51 34 95 0 67 -24 94 -82 95 -22 0 -49 -5 -61 -11 -23 -12 -53
-70 -79 -153 -10 -32 -23 -58 -29 -58 -44 0 -93 148 -74 221 18 66 31 72 130
65 47 -4 104 -11 125 -16z m-6073 -117 c12 -11 18 -30 18 -59 0 -24 5 -46 10
-49 17 -11 11 -25 -11 -25 -27 0 -99 71 -99 98 0 25 25 52 47 52 9 0 25 -7 35
-17z m6091 -4 c17 -27 -1 -68 -45 -99 -22 -17 -44 -30 -48 -30 -5 0 -6 69 -1
112 1 4 8 14 17 23 20 19 63 16 77 -6z m-256 -163 c35 -44 42 -69 18 -60 -19
8 -75 99 -74 122 0 16 1 15 12 -2 7 -10 27 -37 44 -60z m-5627 9 c0 -8 -4 -15
-10 -15 -5 0 -7 7 -4 15 4 8 8 15 10 15 2 0 4 -7 4 -15z m5742 -122 c48 -46
31 -61 -21 -17 -17 14 -29 30 -25 35 8 14 16 11 46 -18z m-5848 4 c-2 -7 -13
-18 -24 -25 -17 -10 -20 -10 -20 2 0 8 8 20 18 25 23 14 32 13 26 -2z m56 -88
c20 -48 40 -159 27 -159 -3 0 -24 16 -47 35 -23 19 -55 43 -71 52 -35 21 -37
36 -5 51 13 6 32 24 42 41 10 17 21 31 25 31 4 0 16 -23 29 -51z m5752 24 c8
-17 25 -30 45 -35 38 -10 48 -23 31 -37 -18 -15 -150 -101 -155 -101 -2 0 -1
24 2 53 6 53 42 147 56 147 4 0 14 -12 21 -27z m-5902 -34 c0 -5 -7 -9 -15 -9
-9 0 -12 6 -9 15 6 15 24 11 24 -6z m6030 6 c0 -8 -7 -15 -15 -15 -8 0 -15 7
-15 15 0 8 7 15 15 15 8 0 15 -7 15 -15z m64 -56 c-3 -6 7 -25 24 -42 94 -100
153 -293 123 -404 -14 -51 -109 -143 -147 -143 -36 0 -143 111 -177 183 -37
79 -36 140 3 221 32 64 80 126 98 126 14 0 57 -64 116 -173 47 -88 68 -109 87
-90 10 10 2 27 -87 184 -24 42 -44 80 -44 84 0 5 -7 16 -16 26 -17 19 -11 39
12 39 8 0 12 -5 8 -11z m-6155 -8 c10 -7 9 -11 -6 -22 -11 -8 -28 -32 -39 -54
-10 -22 -40 -75 -66 -117 -51 -82 -61 -122 -30 -116 17 3 36 30 111 158 21 35
48 70 59 78 20 13 25 11 60 -24 53 -53 74 -97 80 -170 4 -55 1 -71 -27 -129
-35 -76 -138 -185 -175 -185 -36 1 -111 64 -134 114 -27 56 -29 150 -6 216 29
83 77 175 113 217 40 46 41 46 60 34z m5964 -108 c-4 -10 -15 -31 -24 -48 -9
-16 -23 -56 -30 -87 -16 -75 -2 -126 63 -225 27 -42 47 -77 45 -79 -2 -2 -19
6 -38 19 -54 36 -103 142 -107 231 -4 80 8 121 52 174 30 35 49 42 39 15z
m-5746 -45 c25 -38 28 -52 28 -128 0 -120 -30 -182 -133 -272 -54 -48 -55 -31
-2 33 55 66 94 136 103 186 8 43 -8 138 -33 184 -28 56 1 53 37 -3z m-257
-499 c0 -16 -17 -9 -44 17 -38 38 -32 50 9 18 19 -14 35 -30 35 -35z m20 -111
c21 -18 57 -49 80 -68 52 -43 100 -124 100 -168 0 -50 -45 -118 -140 -209 -76
-74 -86 -80 -98 -65 -10 14 -9 17 6 23 24 9 125 108 168 165 47 61 46 107 -1
175 -19 28 -52 63 -72 79 -21 15 -47 37 -57 49 -20 22 -53 21 -68 -3 -5 -7 -8
-6 -8 3 0 17 29 51 43 51 5 0 27 -15 47 -32z m6240 0 c19 -27 20 -30 3 -15
-11 9 -25 17 -33 17 -21 0 -136 -106 -169 -157 -40 -60 -40 -103 -1 -163 17
-25 54 -66 83 -92 56 -50 59 -73 5 -40 -62 39 -148 159 -148 208 0 51 51 129
133 203 42 39 83 71 90 71 7 0 24 -15 37 -32z m-6227 -105 c30 -27 64 -63 77
-81 21 -30 22 -36 10 -72 -9 -26 -36 -61 -77 -101 -55 -53 -67 -60 -91 -55
-70 17 -100 69 -101 177 -1 100 47 178 111 179 10 0 42 -21 71 -47z m6276 11
c31 -39 44 -101 37 -172 -7 -76 -34 -125 -81 -148 l-34 -16 -60 52 c-76 66
-91 89 -91 139 0 35 7 48 61 106 57 61 64 65 104 65 35 0 48 -5 64 -26z
m-6365 -369 c3 -8 2 -15 -3 -15 -5 0 -14 7 -21 15 -10 12 -10 15 3 15 8 0 17
-7 21 -15z m6330 0 c-4 -8 -11 -15 -16 -15 -6 0 -5 6 2 15 7 8 14 15 16 15 2
0 1 -7 -2 -15z m-40 -40 c-4 -8 -7 -15 -9 -15 -2 0 -5 7 -9 15 -3 9 0 15 9 15
9 0 12 -6 9 -15z m-6224 -83 c0 -9 -74 -72 -84 -72 -13 0 -5 20 20 49 24 28
64 43 64 23z m6230 -27 c14 -16 10 -18 -14 -9 -9 3 -16 10 -16 15 0 14 16 11
30 -6z m-183 -96 c-59 -62 -108 -152 -114 -213 -2 -22 3 -66 12 -96 28 -97 29
-101 12 -94 -26 9 -57 101 -57 166 0 102 79 238 165 282 16 8 30 14 32 12 1
-1 -21 -27 -50 -57z m-5872 -6 c93 -94 126 -214 90 -322 -16 -50 -58 -111 -75
-111 -5 0 6 28 23 63 26 51 31 74 32 132 0 63 -4 77 -38 140 -22 39 -52 84
-68 100 -16 17 -29 34 -29 38 0 17 21 4 65 -40z m73 -569 c-12 -41 -28 -74
-35 -74 -7 0 -25 18 -39 40 -22 34 -32 40 -60 40 -27 0 -34 -4 -34 -20 0 -14
-5 -18 -16 -13 -14 5 -14 8 3 24 10 9 45 32 78 49 33 18 74 44 90 58 l30 25 3
-27 c2 -15 -7 -61 -20 -102z m5752 71 c23 -16 53 -40 67 -52 13 -13 28 -23 33
-23 6 0 10 -4 10 -10 0 -16 -27 -12 -34 5 -8 22 -54 2 -87 -37 l-26 -31 -22
57 c-11 31 -21 77 -21 103 0 42 1 45 18 32 11 -8 38 -27 62 -44z m-5973 -130
c3 -9 32 -34 65 -56 32 -22 56 -45 52 -51 -4 -6 -27 -19 -53 -30 -57 -25 -108
-72 -127 -117 -19 -45 -18 -70 6 -108 18 -30 24 -33 68 -33 61 0 95 30 116
100 8 26 22 62 31 79 12 24 13 36 5 46 -7 9 -8 15 -1 19 6 4 26 -15 45 -41 58
-81 71 -200 27 -254 -19 -23 -19 -23 -142 -11 -142 14 -155 22 -209 124 -26
48 -32 72 -33 127 -2 80 9 107 72 174 47 49 68 58 78 32z m6200 -27 c108 -100
109 -223 4 -362 l-40 -53 -88 -12 c-144 -18 -160 -16 -183 22 -37 60 -19 203
32 245 20 16 27 7 62 -83 37 -94 67 -125 122 -125 35 0 47 5 68 31 28 33 32
64 13 119 -9 27 -30 47 -86 85 -41 28 -76 56 -78 62 -3 7 18 28 46 48 28 20
51 43 51 51 0 26 30 15 77 -28z m-177 15 c0 -10 -52 -63 -62 -63 -17 0 -7 25
20 47 28 23 42 28 42 16z m-5798 -100 c21 -20 38 -46 38 -57 0 -16 -6 -11 -27
19 -32 48 -44 60 -63 68 -13 5 -13 6 0 6 8 1 31 -16 52 -36z m5698 5 c0 -7
-14 -29 -31 -48 -18 -19 -38 -48 -45 -65 l-13 -30 -1 28 c0 28 18 65 54 105
22 25 36 28 36 10z m139 -83 c59 -31 79 -52 87 -92 5 -24 1 -34 -16 -46 -40
-28 -71 -6 -84 61 -3 19 -15 45 -26 59 -19 25 -26 43 -15 43 3 0 27 -11 54
-25z m-5947 -7 c-11 -13 -27 -48 -34 -78 -11 -44 -19 -57 -40 -64 -14 -5 -33
-6 -42 -3 -19 7 -21 54 -5 90 14 30 85 77 118 77 l24 0 -21 -22z m31 -314 l78
-7 21 -41 c11 -23 24 -43 28 -46 9 -6 100 -146 100 -155 0 -3 -8 -17 -17 -32
-10 -14 -41 -69 -69 -122 l-51 -96 -121 -9 c-67 -4 -132 -6 -144 -2 -24 6 -54
48 -108 151 -17 33 -36 64 -41 70 -15 16 -10 69 11 95 11 14 20 30 20 35 0 22
71 155 87 165 10 6 42 8 73 5 30 -2 90 -8 133 -11z m6058 -15 c26 -26 74 -128
64 -137 -4 -4 -10 -2 -12 3 -16 40 -52 100 -65 109 -36 22 -30 -9 20 -110 52
-104 53 -105 82 -99 34 8 37 0 13 -35 -10 -14 -35 -59 -57 -100 -21 -41 -48
-88 -59 -103 l-20 -29 -131 7 c-72 4 -136 12 -143 17 -22 18 -133 223 -133
246 0 12 8 35 19 50 10 15 37 57 60 93 67 107 64 105 234 108 96 1 109 -1 128
-20z m-5945 -566 c70 -105 114 -176 114 -186 0 -6 -18 14 -39 44 -22 30 -49
66 -60 81 -12 14 -21 31 -21 37 0 15 -39 34 -56 27 -12 -4 -6 -17 24 -58 21
-29 48 -69 59 -88 32 -52 63 -82 79 -76 20 8 18 0 -21 -93 -19 -45 -35 -91
-35 -101 0 -9 -6 -22 -12 -27 -17 -13 -143 -37 -160 -30 -7 3 1 6 19 6 17 1
35 6 38 11 3 6 19 10 34 10 34 0 60 25 43 42 -11 11 -172 -17 -236 -42 -43
-16 -26 -35 28 -33 50 3 63 -11 19 -21 -16 -3 -37 -8 -49 -11 -20 -6 -60 38
-161 184 -36 50 -42 94 -18 125 13 17 15 18 15 3 0 -10 -5 -26 -12 -37 -14
-22 -6 -35 17 -26 21 8 116 208 105 220 -15 15 -41 -14 -71 -79 -19 -40 -29
-52 -29 -37 0 22 45 119 73 157 13 17 32 20 133 26 66 3 127 6 137 7 10 1 28
-14 43 -35z m5809 22 c105 -9 112 -12 124 -47 11 -30 10 -30 -7 -15 -27 25
-45 22 -37 -5 13 -43 93 -206 105 -213 7 -4 16 -3 22 3 7 7 -1 32 -26 78 -20
37 -35 74 -33 83 3 15 87 -139 87 -161 0 -15 -169 -245 -185 -251 -7 -3 -16 1
-19 9 -3 8 -1 14 4 14 6 0 10 9 10 19 0 16 -17 23 -108 45 -137 33 -154 33
-150 4 2 -19 10 -23 48 -26 25 -2 49 -7 55 -13 5 -5 18 -9 30 -10 12 0 15 -3
7 -6 -22 -9 -162 20 -162 33 0 6 -18 60 -40 119 -41 110 -43 137 -14 180 12
17 14 17 14 2 0 -9 -4 -17 -10 -17 -5 0 -10 -11 -10 -25 0 -14 6 -25 13 -25
14 0 137 170 137 189 0 26 -31 7 -70 -44 -24 -31 -45 -53 -48 -50 -3 2 16 37
42 76 l48 71 51 -6 c29 -3 84 -8 122 -11z m-5316 -545 c79 -62 64 -62 -36 1
-31 19 -54 -2 -27 -25 33 -27 158 -117 177 -128 23 -12 48 7 40 29 -4 11 -2
14 5 9 7 -4 10 -21 8 -39 -3 -18 -5 -78 -5 -135 l-1 -103 -35 -15 c-51 -21
-64 -16 -30 11 21 18 27 27 19 35 -8 8 -43 -4 -127 -44 -63 -30 -118 -60 -122
-66 -9 -15 13 -30 34 -23 11 4 9 0 -4 -10 -11 -9 -23 -17 -26 -17 -3 0 -48 31
-100 69 -157 116 -143 100 -131 157 6 27 16 83 23 124 6 41 17 84 24 95 7 12
52 36 106 58 52 20 101 42 109 47 26 17 47 11 99 -30z m4718 29 c15 -6 37 -15
48 -20 11 -4 55 -22 97 -39 43 -18 81 -37 85 -43 5 -7 16 -59 25 -117 9 -58
20 -115 23 -127 6 -18 -1 -28 -40 -55 -26 -18 -75 -54 -108 -80 -65 -52 -87
-59 -87 -28 0 16 -22 32 -102 70 -57 28 -113 50 -125 50 -41 0 -24 -28 32 -56
31 -14 54 -29 51 -31 -6 -6 -74 18 -113 40 l-31 18 -7 124 c-7 124 -4 155 14
155 6 0 8 -7 5 -15 -19 -48 69 -7 189 88 42 34 46 47 17 47 -22 0 -54 -16 -84
-42 -11 -10 -25 -18 -30 -18 -6 1 0 10 14 21 99 80 86 74 127 58z m-4151 -76
c34 -23 73 -49 88 -57 15 -8 23 -17 18 -20 -6 -3 -16 0 -24 7 -23 22 -169 97
-179 91 -28 -17 4 -42 150 -122 59 -32 65 -34 77 -18 10 14 13 -5 16 -106 4
-95 1 -126 -9 -138 -13 -13 -15 -13 -24 3 -15 26 -39 21 -128 -28 -112 -62
-121 -68 -121 -82 0 -16 57 -17 62 -1 2 6 10 9 17 7 8 -3 1 -11 -16 -19 -15
-8 -31 -18 -34 -23 -5 -7 -216 129 -246 159 -13 12 -14 33 -8 114 9 133 15
150 56 173 31 18 126 70 188 103 29 15 41 11 117 -43z m3722 -18 l119 -65 7
-53 c8 -71 7 -199 -2 -213 -8 -13 -158 -111 -209 -137 -17 -9 -39 -14 -47 -11
-23 9 -20 23 3 17 21 -5 33 7 23 23 -4 6 -43 30 -87 54 -44 24 -87 48 -96 53
-20 12 -52 2 -47 -15 2 -6 25 -23 51 -37 59 -31 63 -49 5 -20 -95 48 -95 47
-92 146 3 143 3 143 19 143 13 0 99 47 213 117 27 16 29 33 3 33 -25 0 -152
-68 -190 -103 -35 -30 -41 -33 -41 -14 0 7 26 28 58 47 31 19 59 37 62 41 16
19 88 59 107 59 12 0 76 -29 141 -65z m-624 6 c3 -5 -9 -15 -27 -22 -17 -7
-46 -23 -63 -36 -37 -27 -57 -30 -52 -5 2 9 27 29 57 45 58 29 76 33 85 18z
m-3524 -37 c0 -2 -7 -4 -15 -4 -8 0 -15 4 -15 10 0 5 7 7 15 4 8 -4 15 -8 15
-10z m948 -7 c8 -7 9 -14 3 -20 -11 -11 -61 16 -61 34 0 12 37 3 58 -14z
m-150 -9 c26 -12 60 -30 76 -41 l29 -20 -52 -13 c-55 -15 -126 -47 -153 -72
-24 -21 -33 -76 -18 -113 23 -55 94 -65 156 -23 21 15 42 32 46 38 25 39 84
116 89 116 4 0 24 -22 44 -49 21 -27 46 -52 56 -54 29 -8 23 -23 -27 -77 -81
-87 -183 -102 -304 -47 -107 50 -118 71 -119 248 -1 82 4 91 58 116 39 17 66
15 119 -9z m722 8 c85 -17 114 -33 174 -94 61 -63 57 -85 -5 -32 -81 69 -143
94 -229 94 -52 0 -91 -7 -129 -22 -30 -12 -56 -20 -58 -18 -2 2 5 13 14 25 16
19 44 30 163 60 3 0 34 -5 70 -13z m2165 -12 l36 -17 -3 -135 -3 -135 -79 -46
c-69 -39 -88 -46 -147 -49 -59 -4 -74 -1 -119 24 -29 16 -67 46 -86 67 l-33
39 32 32 c18 17 44 48 60 69 16 21 33 34 41 31 8 -3 25 -31 40 -63 28 -62 43
-80 93 -105 43 -21 81 -20 121 4 29 18 32 25 32 65 0 36 -5 51 -26 70 -29 27
-95 59 -142 70 -66 14 -51 51 34 85 54 22 94 20 149 -6z m-668 -13 c23 -11 43
-27 47 -36 4 -11 2 -15 -6 -11 -69 28 -156 48 -197 44 -69 -7 -176 -60 -229
-114 -24 -25 -46 -44 -48 -41 -9 8 74 109 107 131 68 45 115 56 215 51 47 -2
85 -10 111 -24z m-1767 8 c0 -7 -20 -34 -45 -60 -25 -26 -45 -55 -45 -63 0
-29 -19 -26 -36 5 -9 18 -29 43 -46 57 -37 31 -28 42 54 58 82 16 118 17 118
3z m1962 -3 c82 -20 86 -24 49 -56 -17 -15 -37 -42 -45 -60 l-13 -33 -33 49
c-18 27 -42 59 -53 71 -38 42 -5 52 95 29z m-1691 -57 c65 -22 239 -157 239
-185 0 -20 -42 -84 -78 -119 -35 -34 -89 -55 -143 -55 -44 0 -169 35 -223 62
-57 29 -166 101 -166 111 0 21 35 16 77 -11 108 -67 236 -133 249 -128 33 13
12 34 -96 96 -41 24 -87 49 -101 57 -40 20 -52 38 -41 60 20 36 70 75 128 98
66 27 105 31 155 14z m1427 -6 c38 -12 73 -34 109 -66 29 -27 53 -52 53 -57 0
-9 -65 -53 -139 -93 -63 -33 -111 -74 -111 -94 0 -23 28 -14 88 26 31 21 80
51 107 65 28 15 65 36 83 48 27 17 36 18 42 8 19 -31 -208 -170 -276 -170 -15
0 -42 -5 -60 -12 -55 -20 -132 5 -191 61 -26 26 -54 59 -62 74 -14 27 -14 29
47 90 66 66 184 137 230 137 14 0 50 -8 80 -17z m377 -33 c-33 -35 -45 -38
-38 -11 8 32 44 64 56 52 8 -8 3 -19 -18 -41z m-1090 19 c62 -32 176 -149 147
-149 -6 0 -23 13 -38 28 -16 16 -52 45 -80 65 -90 64 -137 50 -284 -86 -52
-49 -59 -59 -50 -76 15 -28 13 -33 -10 -21 -28 15 -26 24 24 88 82 106 167
171 226 172 14 0 43 -9 65 -21z m865 -4 c20 -24 6 -28 -15 -5 -10 11 -13 20
-8 20 6 0 16 -7 23 -15z m-1982 -75 c14 0 16 -26 3 -35 -6 -3 -15 5 -22 17 -7
13 -20 29 -31 36 -10 7 -18 18 -18 24 0 7 13 0 28 -15 15 -15 33 -27 40 -27z
m2372 25 c14 -8 37 -14 51 -15 32 0 79 -35 79 -59 0 -38 -44 -52 -94 -30 -13
6 -36 33 -50 59 -36 66 -34 72 14 45z m-2625 -32 c-23 -55 -53 -83 -90 -83
-53 0 -73 41 -36 74 10 9 41 23 67 30 76 21 76 21 59 -21z m1369 -2 c23 -16
59 -48 79 -70 49 -55 50 -89 1 -129 -52 -43 -153 -62 -216 -41 -41 13 -108 78
-108 105 0 19 94 120 135 145 41 26 59 24 109 -10z m1016 -11 c-12 -22 -30
-18 -30 6 0 8 9 14 20 14 18 0 19 -3 10 -20z m-841 -141 c-30 -26 -38 -15 -11
14 12 13 23 30 23 38 1 8 4 4 6 -9 3 -16 -3 -30 -18 -43z m-1879 6 c0 -7 -104
-54 -109 -49 -5 5 -8 3 44 31 38 22 65 29 65 18z m3423 -62 c-7 -2 -19 -2 -25
0 -7 3 -2 5 12 5 14 0 19 -2 13 -5z M1572 6683 c4 -25 214 -131 229 -116 14
14 -14 40 -78 72 -26 13 -65 32 -86 42 -49 24 -69 24 -65 2z M990 6656 c0 -11
37 -35 113 -71 106 -52 157 -67 157 -46 0 12 -29 41 -41 41 -5 0 -46 18 -91
39 -105 51 -138 59 -138 37z M792 6501 c-10 -6 -10 -21 -2 -67 6 -32 13 -75
16 -94 9 -65 14 -80 28 -80 26 0 26 16 -6 183 -12 62 -17 70 -36 58z M5820
6650 c-8 -5 -49 -25 -91 -44 -79 -35 -98 -51 -82 -67 6 -6 33 1 74 19 35 17
90 41 122 56 31 14 57 30 57 36 0 12 -60 12 -80 0z M5617 6314 c-8 -9 3 -34
16 -34 6 0 19 -7 29 -17 10 -9 27 -21 37 -27 10 -6 40 -26 65 -44 46 -33 81
-37 70 -8 -7 18 -177 136 -197 136 -7 0 -16 -3 -20 -6z M387 6123 c-11 -17 9
-30 73 -48 77 -21 180 -31 180 -17 0 18 -25 30 -70 35 -25 3 -63 10 -85 17
-64 19 -92 23 -98 13z M6150 5838 c0 -13 12 -36 26 -53 14 -16 40 -54 56 -82
28 -49 58 -68 72 -45 2 4 -20 43 -49 86 -82 120 -105 140 -105 94z M649 5272
c-69 -108 -88 -147 -80 -160 8 -13 41 -6 41 8 0 4 25 49 55 99 30 51 55 96 55
101 0 6 -8 10 -17 10 -11 0 -33 -24 -54 -58z M6165 5320 c-5 -8 27 -69 92
-175 20 -33 53 -46 53 -21 0 23 -111 206 -126 206 -7 0 -16 -4 -19 -10z M304
1778 c-11 -13 -26 -36 -34 -53 -8 -16 -28 -52 -44 -78 -29 -49 -26 -77 7 -64
16 6 107 179 107 203 0 20 -14 17 -36 -8z M565 1789 c-4 -5 16 -46 44 -90 28
-44 51 -84 51 -88 0 -12 35 -41 48 -41 20 0 14 34 -12 69 -13 18 -30 46 -36
62 -7 16 -16 29 -21 29 -5 0 -9 7 -9 15 0 8 -4 15 -10 15 -5 0 -10 6 -10 14 0
8 -7 17 -16 20 -21 8 -22 8 -29 -5z M6249 1748 c-51 -78 -95 -166 -86 -175 14
-13 41 13 76 73 18 32 42 74 52 92 44 76 8 85 -42 10z M815 603 c-3 -21 -10
-63 -16 -93 -6 -30 -13 -65 -15 -76 -2 -12 3 -27 11 -34 19 -16 31 14 50 125
19 106 19 115 -5 115 -14 0 -20 -9 -25 -37z M6025 649 c-4 -5 -4 -22 0 -37 4
-15 13 -65 20 -111 14 -86 38 -132 51 -98 3 10 4 30 1 45 -4 20 -34 190 -37
210 -1 7 -30 0 -35 -9z M213 6740 c-35 -21 -63 -66 -63 -102 0 -35 34 -83 70
-98 103 -43 194 86 118 167 -22 24 -69 53 -85 53 -4 0 -22 -9 -40 -20z m85
-56 c31 -22 26 -70 -9 -97 -23 -16 -30 -17 -50 -7 -31 17 -39 29 -39 62 0 52
52 75 98 42z M6588 6745 c-34 -19 -68 -74 -68 -113 0 -20 11 -41 31 -63 27
-29 39 -34 76 -34 39 0 49 5 74 35 47 56 35 123 -30 167 -39 27 -47 27 -83 8z
m76 -61 c25 -25 20 -81 -9 -100 -29 -19 -60 -11 -81 21 -38 58 42 127 90 79z
M209 357 c-19 -13 -40 -39 -48 -60 -13 -34 -12 -42 2 -73 20 -42 73 -70 113
-60 42 11 94 68 94 104 0 38 -32 78 -77 97 -45 19 -44 19 -84 -8z m89 -43 c26
-18 30 -75 6 -94 -23 -20 -75 -16 -90 5 -31 42 -3 105 46 105 9 0 26 -7 38
-16z M6580 357 c-19 -12 -43 -37 -53 -55 -17 -28 -17 -37 -7 -62 34 -82 114
-103 174 -46 57 54 45 131 -26 167 -47 24 -48 24 -88 -4z m78 -43 c32 -22 30
-78 -3 -100 -49 -32 -106 11 -91 69 5 22 35 45 61 46 6 1 21 -6 33 -15z"/>
</g>
</svg>
