<?xml version="1.0" standalone="no"?>
<!DOCTYPE svg PUBLIC "-//W3C//DTD SVG 20010904//EN"
 "http://www.w3.org/TR/2001/REC-SVG-20010904/DTD/svg10.dtd">
<svg version="1.0" xmlns="http://www.w3.org/2000/svg"
 width="900.000000pt" height="354.000000pt" viewBox="0 0 900.000000 354.000000"
 preserveAspectRatio="xMidYMid meet">
<metadata>
Created by potrace 1.16, written by Peter Selinger 2001-2019
</metadata>
<g transform="translate(0.000000,354.000000) scale(0.100000,-0.100000)"
fill="#7A5A32" stroke="none">
<path d="M4402 3378 c-5 -7 -33 -59 -61 -115 -28 -56 -55 -104 -61 -108 -18
-11 -11 -46 26 -127 20 -44 33 -82 30 -85 -3 -3 -36 23 -75 57 -85 76 -152
100 -274 100 -82 0 -175 -22 -367 -88 -86 -29 -394 -169 -490 -223 -36 -20
-76 -40 -90 -44 -14 -4 -69 -30 -123 -57 -118 -59 -311 -124 -396 -134 -136
-15 -234 73 -189 171 24 53 103 44 122 -15 12 -37 37 -50 61 -30 33 28 6 109
-45 135 -62 32 -163 3 -200 -57 -41 -68 -36 -126 18 -190 13 -16 21 -32 18
-36 -4 -3 -236 -6 -515 -5 -565 2 -572 3 -700 69 -77 41 -106 37 -116 -14 -36
-181 -48 -197 -175 -238 -89 -28 -122 -46 -188 -106 -60 -54 -91 -107 -112
-190 -15 -59 -25 -78 -51 -98 -100 -77 -151 -136 -191 -220 -64 -133 -89 -165
-162 -200 -35 -16 -71 -30 -80 -30 -11 0 -16 -9 -16 -28 0 -24 7 -30 62 -51
81 -31 134 -86 182 -186 55 -114 88 -157 166 -220 63 -51 71 -61 85 -113 24
-89 52 -136 121 -202 64 -62 123 -94 226 -124 72 -21 91 -45 113 -144 17 -77
39 -132 53 -132 4 0 39 16 77 35 128 65 125 65 703 65 287 0 522 -3 522 -6 0
-3 -16 -26 -35 -51 -57 -75 -43 -157 37 -216 41 -30 124 -34 166 -7 45 28 67
81 50 118 -18 37 -51 40 -66 7 -7 -14 -12 -32 -12 -40 0 -20 -38 -38 -66 -31
-88 22 -86 147 3 194 51 28 252 3 348 -43 28 -13 123 -55 211 -93 89 -39 188
-85 220 -104 33 -19 106 -55 163 -81 96 -43 111 -47 180 -46 l76 0 -60 27
c-33 14 -170 81 -304 149 -134 68 -261 131 -282 139 -38 14 -110 40 -138 49
-11 4 -11 8 -1 20 11 13 90 15 581 15 313 0 569 -3 569 -6 0 -3 -11 -20 -24
-37 -73 -96 -47 -225 55 -277 49 -25 82 -25 135 0 70 34 87 122 31 164 -41 30
-62 13 -62 -50 l0 -49 -47 -3 c-59 -4 -78 19 -78 96 0 96 41 142 125 142 104
0 192 -77 215 -186 14 -65 7 -117 -21 -155 -10 -15 -19 -30 -19 -33 0 -14 64
-5 76 12 13 16 13 16 14 0 0 -16 10 -18 73 -18 43 0 78 5 85 12 9 9 12 9 12 0
0 -8 17 -12 47 -12 l47 0 -26 27 c-39 42 -49 69 -49 129 0 131 94 224 228 224
78 0 131 -80 116 -175 -7 -41 -35 -65 -75 -65 -36 0 -60 25 -52 56 4 17 0 31
-11 44 -28 31 -54 25 -71 -16 -29 -68 21 -148 100 -159 134 -21 232 154 153
273 -15 23 -27 46 -27 52 0 7 190 10 574 10 315 0 588 3 606 7 25 5 32 3 28
-8 -2 -8 -45 -28 -95 -44 -49 -17 -118 -45 -153 -63 -35 -19 -86 -43 -114 -54
-28 -11 -87 -41 -131 -67 -80 -47 -132 -73 -170 -85 -11 -3 -54 -24 -95 -46
l-75 -39 77 -1 77 0 168 86 c252 129 248 128 388 183 255 102 284 111 369 111
64 0 136 -32 156 -70 16 -30 12 -86 -8 -111 -37 -45 -122 -16 -122 41 0 30
-23 42 -48 24 -46 -32 -22 -113 43 -144 76 -37 155 -18 201 49 37 55 34 117
-11 175 -19 26 -35 49 -35 51 0 3 244 4 543 3 534 -3 543 -3 601 -25 33 -13
77 -34 98 -48 72 -48 85 -37 114 98 21 99 46 130 122 152 88 26 161 65 220
119 57 53 89 106 118 200 15 49 28 67 73 105 90 75 110 101 164 211 66 133
110 180 200 209 113 38 112 60 -3 100 -84 30 -138 82 -187 180 -57 115 -80
146 -153 205 -65 53 -69 58 -94 137 -51 158 -154 258 -317 309 -108 33 -115
42 -161 214 -20 73 -35 78 -116 35 -128 -69 -128 -69 -553 -73 -408 -4 -669 2
-669 15 0 4 13 20 28 36 58 58 50 155 -18 217 -32 29 -48 36 -80 36 -74 0
-139 -46 -153 -110 -8 -35 5 -52 38 -48 22 2 31 11 39 36 21 60 70 69 118 22
25 -26 29 -36 24 -63 -7 -37 -56 -90 -98 -108 -46 -19 -184 2 -298 46 -143 56
-212 87 -480 217 -446 218 -602 271 -795 272 -103 1 -114 -1 -175 -30 -67 -33
-127 -87 -154 -139 l-16 -30 0 35 c0 20 13 67 30 105 35 82 36 98 12 133 -11
15 -42 71 -71 125 -29 53 -56 97 -60 97 -5 0 -13 -6 -19 -12z m66 -200 c17
-28 32 -58 32 -68 0 -10 -16 -44 -35 -75 -19 -32 -37 -67 -41 -77 -9 -31 -21
-20 -44 44 -37 100 -36 125 1 198 28 56 34 62 43 46 6 -11 26 -41 44 -68z
m-325 -178 c66 -31 131 -105 153 -174 17 -53 17 -59 1 -110 -13 -40 -30 -66
-70 -103 -91 -86 -171 -92 -236 -18 -27 31 -31 43 -31 95 0 69 21 100 68 100
43 0 66 -21 59 -55 -7 -39 1 -55 27 -55 41 0 66 27 66 73 0 101 -108 150 -205
92 -91 -53 -110 -179 -42 -278 10 -16 17 -30 15 -32 -6 -6 -1206 -11 -1212 -5
-12 12 14 27 94 54 86 29 152 59 525 241 189 93 349 155 399 155 16 0 18 -6
13 -44 -8 -53 9 -82 41 -72 14 5 22 16 22 30 0 37 41 89 90 114 38 20 55 23
111 18 37 -2 86 -14 112 -26z m798 6 c45 -19 55 -32 64 -79 14 -75 75 -68 75
8 0 32 4 45 14 45 45 0 231 -76 441 -179 304 -150 424 -205 500 -227 74 -22
95 -35 68 -45 -17 -6 -1204 0 -1212 7 -2 2 6 15 17 29 12 14 28 48 37 75 15
44 15 53 1 101 -21 70 -41 98 -81 115 -93 38 -178 0 -194 -87 -10 -57 1 -87
34 -95 42 -11 57 1 50 40 -6 27 -2 39 14 55 25 25 42 26 80 6 31 -15 41 -39
41 -98 0 -31 -8 -46 -44 -84 -39 -41 -48 -46 -87 -46 -74 0 -179 66 -205 130
-18 42 -18 135 0 178 27 65 133 149 211 169 34 8 138 -2 176 -18z m-496 -263
c30 -102 115 -207 204 -252 71 -37 271 -41 1646 -38 1380 4 1358 3 1450 53 18
9 39 15 46 12 8 -3 25 -38 37 -78 30 -97 53 -127 105 -140 143 -36 223 -82
278 -158 19 -26 48 -87 64 -137 29 -84 34 -92 79 -121 26 -18 58 -42 71 -54
26 -25 104 -153 134 -222 12 -25 45 -67 77 -96 l56 -52 -43 -33 c-34 -25 -58
-59 -104 -146 -66 -123 -90 -153 -181 -222 -58 -45 -63 -51 -83 -120 -30 -104
-45 -133 -93 -185 -54 -59 -119 -96 -182 -105 -87 -11 -122 -32 -149 -86 -14
-26 -30 -67 -37 -91 -19 -60 -27 -64 -85 -38 -98 45 -140 46 -1605 43 -1576
-3 -1435 5 -1554 -93 -66 -55 -111 -128 -136 -221 -14 -56 -27 -61 -39 -16
-43 158 -40 152 -102 214 -90 90 -119 100 -323 109 -94 5 -736 8 -1426 8
-1328 0 -1331 0 -1432 -46 -26 -12 -54 -22 -63 -22 -17 0 -35 38 -35 74 0 32
-41 107 -70 128 -14 9 -60 27 -103 38 -149 39 -257 149 -281 285 -12 67 -15
73 -64 103 -88 55 -138 114 -193 227 -35 70 -67 120 -96 148 -23 23 -43 45
-43 50 0 4 24 31 53 60 39 40 59 71 81 127 43 113 98 181 196 243 29 19 39 35
61 102 31 97 59 153 91 181 58 52 122 86 200 105 45 11 90 25 99 29 15 9 79
150 79 176 0 5 6 18 13 29 13 17 17 16 79 -14 59 -29 75 -33 209 -40 79 -5
731 -8 1449 -6 1209 2 1309 3 1365 19 55 16 92 38 154 91 27 24 84 133 100
193 7 23 16 42 21 42 5 0 16 -26 25 -57z M4410 3114 c0 -34 4 -53 10 -49 6 3
10 28 10 56 0 27 -4 49 -10 49 -5 0 -10 -25 -10 -56z M3540 2833 c-26 -5 -86
-46 -107 -72 -51 -68 12 -182 92 -167 39 8 53 22 61 64 6 27 3 33 -17 41 -17
6 -31 5 -46 -5 -31 -19 -43 -18 -43 6 0 36 44 70 89 70 33 0 44 -6 70 -37 16
-20 33 -53 36 -75 7 -36 8 -38 46 -38 31 0 39 4 39 18 0 28 -73 154 -100 173
-27 19 -81 29 -120 22z M5182 2800 c-23 -16 -51 -48 -62 -70 -16 -30 -26 -40
-45 -40 -35 0 -31 -23 10 -54 45 -35 70 -24 79 34 12 75 89 119 152 88 34 -16
54 -62 35 -81 -10 -10 -17 -6 -35 16 -26 32 -53 28 -62 -10 -12 -45 33 -93 86
-93 11 0 34 13 52 29 30 26 33 35 32 82 0 48 -4 55 -42 90 -38 36 -46 39 -100
39 -50 0 -66 -5 -100 -30z M4387 2520 c-30 -42 -144 -130 -170 -130 -8 0 -20
-7 -27 -15 -10 -13 -9 -15 8 -15 12 0 24 5 27 10 3 6 13 10 20 10 19 0 114 61
139 89 27 30 50 26 94 -16 62 -61 192 -119 180 -80 -3 6 -13 14 -24 16 -30 6
-104 60 -161 118 -29 29 -54 53 -55 53 -2 0 -16 -18 -31 -40z M1081 2381 c-6
-11 -11 -31 -11 -45 0 -14 -4 -28 -10 -31 -5 -3 -10 -14 -10 -25 0 -10 -13
-32 -29 -49 -25 -26 -36 -31 -78 -31 -26 0 -68 -7 -93 -16 -124 -43 -179 -112
-204 -258 -13 -78 -31 -106 -65 -106 -12 0 -21 -4 -21 -10 0 -5 -6 -10 -14
-10 -31 0 -106 -90 -151 -181 -25 -51 -57 -105 -70 -121 -30 -36 -30 -40 -5
-63 10 -9 39 -59 64 -110 49 -103 120 -183 195 -219 44 -21 44 -22 61 -101 25
-115 30 -125 105 -200 46 -46 117 -72 136 -49 8 10 4 15 -18 20 -58 15 -108
51 -139 102 -34 55 -44 97 -44 179 0 58 -2 61 -86 89 -71 23 -110 66 -166 182
-28 56 -54 105 -59 108 -17 10 -8 41 46 145 62 120 131 195 204 219 23 7 45
18 50 24 5 6 11 45 13 86 6 86 30 143 80 185 47 40 124 71 194 79 68 7 82 -1
103 -63 31 -94 -18 -203 -109 -241 -36 -15 -60 -1 -60 35 0 26 -22 39 -39 22
-13 -13 -15 -47 -2 -47 5 0 13 -10 16 -21 6 -17 0 -29 -23 -50 -59 -55 -54
-113 14 -190 25 -28 42 -55 37 -60 -4 -4 -30 -3 -58 2 -66 13 -124 5 -185 -26
-27 -14 -60 -25 -74 -25 -20 0 -25 -6 -29 -37 -5 -48 -2 -53 33 -53 15 0 51
-11 78 -25 42 -21 64 -25 141 -25 50 0 91 -3 91 -6 0 -4 -14 -22 -31 -42 -65
-74 -72 -128 -24 -198 15 -23 23 -44 19 -53 -4 -9 -7 -27 -8 -41 -1 -32 37
-36 42 -5 13 73 129 29 168 -64 19 -45 17 -129 -5 -166 -16 -27 -23 -30 -82
-35 -35 -3 -64 -9 -64 -15 0 -5 24 -14 52 -18 56 -9 78 -29 101 -94 33 -91 34
-93 58 -93 31 0 39 16 15 29 -11 6 -22 21 -26 33 -7 25 -14 43 -38 98 -9 19
-15 37 -13 40 10 23 30 68 37 82 12 25 11 92 -2 125 -23 56 -34 78 -49 94 -28
29 -78 59 -99 59 -11 0 -39 18 -62 40 -36 34 -40 43 -34 67 18 73 38 97 169
206 25 21 46 44 46 50 0 7 -39 45 -86 85 -99 85 -124 121 -124 177 0 56 19 78
89 104 44 16 71 34 100 68 23 25 41 54 41 64 0 10 5 21 10 24 22 13 4 155 -23
181 -12 12 -8 84 4 84 7 0 9 9 6 21 -3 12 0 22 9 26 8 3 14 13 14 23 0 34 27
45 78 32 54 -13 178 -27 237 -26 22 1 211 2 419 3 209 0 376 4 372 9 -4 4
-218 10 -474 13 -440 6 -533 11 -557 29 -5 4 -27 10 -47 14 -31 6 -39 3 -47
-13z m-158 -885 c49 -20 46 -44 -8 -64 -49 -18 -235 -22 -256 -6 -8 6 -27 14
-42 18 -20 5 -27 12 -25 24 2 9 8 17 13 17 6 1 33 8 60 17 28 10 64 18 80 20
48 5 137 -8 178 -26z M7685 2384 c-22 -8 -52 -14 -66 -14 -14 0 -34 -7 -45
-15 -18 -15 -15 -15 36 -10 124 12 109 20 147 -72 l34 -81 -22 -48 c-44 -98
-35 -172 31 -247 28 -32 55 -50 90 -62 76 -25 100 -49 100 -98 0 -49 -31 -113
-68 -142 -55 -42 -132 -118 -132 -130 0 -7 40 -50 90 -96 49 -45 94 -96 100
-112 13 -38 13 -83 0 -107 -10 -19 -63 -50 -87 -50 -36 0 -100 -58 -130 -119
-24 -48 -23 -144 1 -191 24 -44 23 -78 -3 -121 -12 -19 -21 -42 -21 -51 0 -23
-51 -62 -61 -47 -4 7 -23 13 -43 13 -19 1 -38 5 -42 9 -4 4 -641 7 -1416 7
-1073 0 -1415 -3 -1431 -12 -12 -7 -34 -11 -49 -9 -17 1 -28 -2 -28 -10 0 -9
17 -10 68 -5 37 4 686 7 1442 6 1234 0 1385 -2 1468 -17 102 -18 106 -17 118
37 9 40 36 99 51 112 8 6 35 17 61 23 66 17 66 35 -1 35 -60 0 -76 12 -96 69
-31 93 11 190 97 227 37 15 72 5 72 -20 0 -8 7 -19 16 -26 12 -11 18 -11 31 2
14 15 14 19 -2 46 -18 29 -17 30 9 64 44 59 34 127 -30 198 -20 22 -34 44 -30
47 4 4 44 6 89 4 72 -2 91 1 154 28 40 16 81 27 92 24 19 -5 21 -1 21 41 0 43
-2 46 -26 46 -14 0 -57 14 -96 31 -72 31 -90 33 -191 13 -52 -10 -13 -26 70
-28 117 -4 202 -54 144 -86 -49 -26 -135 -37 -201 -25 -111 19 -136 45 -80 86
23 18 28 28 23 47 -4 19 3 33 38 68 39 40 43 49 47 103 4 56 3 60 -27 87 -35
31 -38 46 -16 64 18 15 16 51 -3 58 -7 2 -17 -9 -23 -27 -14 -40 -39 -46 -86
-20 -56 31 -69 45 -88 95 -19 51 -17 112 6 160 13 27 19 29 76 32 89 4 179
-29 226 -82 47 -53 60 -89 65 -170 5 -89 10 -101 50 -111 100 -25 165 -89 212
-210 13 -33 32 -72 42 -87 23 -33 23 -55 0 -93 -10 -16 -24 -46 -32 -65 -8
-19 -32 -63 -54 -97 -40 -61 -82 -94 -155 -120 -18 -6 -38 -16 -43 -21 -5 -5
-13 -45 -17 -88 -4 -44 -16 -97 -26 -118 -20 -41 -87 -116 -104 -116 -6 0 -11
-4 -11 -10 0 -28 74 16 117 70 24 30 50 96 57 145 12 86 16 92 65 118 81 44
133 99 176 183 22 44 42 81 45 84 3 3 11 16 18 30 6 14 17 33 24 42 10 14 9
21 -8 40 -11 13 -31 46 -43 73 -13 28 -33 70 -45 95 -27 57 -115 147 -152 156
-62 15 -71 28 -78 114 -6 69 -12 87 -46 139 -54 84 -138 131 -234 131 -58 0
-101 23 -115 61 -54 143 -56 144 -116 123z M4110 2360 c-8 -5 -64 -10 -125
-10 -83 -1 -104 -4 -85 -11 37 -15 260 0 260 17 0 16 -28 18 -50 4z M4670
2356 c0 -11 10 -16 31 -16 38 0 35 24 -4 28 -19 2 -27 -1 -27 -12z M2225 2340
c-3 -6 5 -10 19 -10 14 0 28 5 31 10 3 6 -5 10 -19 10 -14 0 -28 -4 -31 -10z
M2400 2340 c-10 -6 93 -10 300 -10 186 0 321 4 330 10 10 6 -93 10 -300 10
-186 0 -321 -4 -330 -10z M3080 2340 c0 -12 98 -12 155 -1 32 7 21 9 -57 10
-60 1 -98 -3 -98 -9z M3320 2340 c20 -13 40 -13 40 0 0 6 -12 10 -27 10 -22 0
-25 -2 -13 -10z M4755 2340 c4 -6 55 -10 120 -10 65 0 116 4 120 10 4 6 -38
10 -120 10 -82 0 -124 -4 -120 -10z M5245 2341 c29 -12 682 -14 689 -2 4 5
-136 9 -352 9 -196 1 -348 -3 -337 -7z M6175 2341 c-32 -13 76 -23 185 -17 52
3 337 5 633 6 355 0 537 3 537 10 0 12 -1325 13 -1355 1z M7970 760 c0 -5 7
-10 15 -10 8 0 15 5 15 10 0 6 -7 10 -15 10 -8 0 -15 -4 -15 -10z M1235 595
c-5 -2 -22 -6 -37 -9 -16 -4 -28 -10 -28 -14 0 -4 316 -6 702 -5 2185 6 2189
6 2255 -8 26 -6 60 -13 76 -16 15 -3 27 -9 27 -14 0 -5 5 -9 11 -9 16 0 128
-88 145 -116 24 -36 55 -30 89 15 16 21 53 54 82 72 53 34 61 43 44 54 -9 5
-79 -29 -91 -44 -3 -3 -22 -19 -44 -35 -39 -29 -39 -29 -72 -11 -18 10 -42 26
-53 36 -29 27 -91 60 -101 54 -5 -3 -13 2 -18 12 -9 14 -13 15 -26 4 -14 -11
-16 -11 -16 4 0 15 -7 17 -38 13 -23 -4 -42 -1 -49 7 -10 11 -291 13 -1430 13
-780 1 -1422 -1 -1428 -3z M4615 560 c-9 -15 -1 -23 21 -18 15 3 16 4 1 16
-11 9 -17 10 -22 2z M3464 325 c-33 -23 -57 -81 -49 -122 9 -50 79 -93 153
-93 29 0 63 5 75 11 36 19 87 72 87 91 0 10 7 18 15 18 8 0 15 -9 15 -19 0
-20 25 -35 42 -25 5 3 2 14 -8 25 -9 10 -20 36 -23 57 -6 34 -9 37 -41 37 -33
0 -37 -4 -65 -60 -26 -53 -35 -62 -72 -73 -46 -15 -86 -4 -107 30 -16 26 10
50 28 26 18 -25 52 -22 70 4 21 30 21 32 -15 73 -34 38 -70 45 -105 20z M5272
315 c-28 -35 -28 -59 -1 -86 19 -19 22 -20 39 -4 21 19 50 14 50 -9 0 -30 -45
-49 -100 -41 -54 7 -68 21 -103 98 -15 34 -21 38 -50 35 -29 -3 -32 -6 -32
-34 0 -18 -8 -41 -17 -51 -21 -23 -24 -53 -5 -53 8 0 22 9 32 20 18 19 18 19
59 -24 61 -65 128 -80 202 -47 47 22 84 74 84 120 0 45 -44 91 -96 98 -36 5
-43 2 -62 -22z M3803 82 c-12 -7 -33 -54 -33 -73 0 -5 15 -9 33 -9 30 0 32 2
32 34 0 39 -14 59 -32 48z M5010 55 c-18 -47 -13 -55 29 -55 39 0 40 0 30 28
-5 15 -18 33 -29 40 -18 11 -21 9 -30 -13z"/>
</g>
</svg>
