<svg xmlns="http://www.w3.org/2000/svg" width="720pt" height="720pt" viewBox="0 0 720 720">
<rect x="40" y="40" width="640" height="640" rx="26" ry="26" fill="none" stroke="#C9A24B" stroke-width="2.6"/>
<rect x="190" y="190" width="340" height="340" rx="16" ry="16" fill="none" stroke="#C9A24B" stroke-width="1.8"/>
<path d="M120.00,125.00 L98.35,112.50 L98.35,87.50 L120.00,75.00 L141.65,87.50 L141.65,112.50 Z" fill="none" stroke="#C9A24B" stroke-width="2.0"/>
<path d="M163.30,125.00 L141.65,112.50 L141.65,87.50 L163.30,75.00 L184.95,87.50 L184.95,112.50 Z" fill="none" stroke="#C9A24B" stroke-width="2.0"/>
<path d="M206.60,125.00 L184.95,112.50 L184.95,87.50 L206.60,75.00 L228.25,87.50 L228.25,112.50 Z" fill="none" stroke="#C9A24B" stroke-width="2.0"/>
<path d="M249.90,125.00 L228.25,112.50 L228.25,87.50 L249.90,75.00 L271.55,87.50 L271.55,112.50 Z" fill="none" stroke="#C9A24B" stroke-width="2.0"/>
<path d="M293.21,125.00 L271.55,112.50 L271.55,87.50 L293.21,75.00 L314.86,87.50 L314.86,112.50 Z" fill="none" stroke="#C9A24B" stroke-width="2.0"/>
<path d="M336.51,125.00 L314.86,112.50 L314.86,87.50 L336.51,75.00 L358.16,87.50 L358.16,112.50 Z" fill="none" stroke="#C9A24B" stroke-width="2.0"/>
<path d="M379.81,125.00 L358.16,112.50 L358.16,87.50 L379.81,75.00 L401.46,87.50 L401.46,112.50 Z" fill="none" stroke="#C9A24B" stroke-width="2.0"/>
<path d="M423.11,125.00 L401.46,112.50 L401.46,87.50 L423.11,75.00 L444.76,87.50 L444.76,112.50 Z" fill="none" stroke="#C9A24B" stroke-width="2.0"/>
<path d="M466.41,125.00 L444.76,112.50 L444.76,87.50 L466.41,75.00 L488.06,87.50 L488.06,112.50 Z" fill="none" stroke="#C9A24B" stroke-width="2.0"/>
<path d="M509.71,125.00 L488.06,112.50 L488.06,87.50 L509.71,75.00 L531.36,87.50 L531.36,112.50 Z" fill="none" stroke="#C9A24B" stroke-width="2.0"/>
<path d="M553.01,125.00 L531.36,112.50 L531.36,87.50 L553.01,75.00 L574.66,87.50 L574.66,112.50 Z" fill="none" stroke="#C9A24B" stroke-width="2.0"/>
<path d="M596.31,125.00 L574.66,112.50 L574.66,87.50 L596.31,75.00 L617.96,87.50 L617.96,112.50 Z" fill="none" stroke="#C9A24B" stroke-width="2.0"/>
<path d="M120.00,645.00 L98.35,632.50 L98.35,607.50 L120.00,595.00 L141.65,607.50 L141.65,632.50 Z" fill="none" stroke="#C9A24B" stroke-width="2.0"/>
<path d="M163.30,645.00 L141.65,632.50 L141.65,607.50 L163.30,595.00 L184.95,607.50 L184.95,632.50 Z" fill="none" stroke="#C9A24B" stroke-width="2.0"/>
<path d="M206.60,645.00 L184.95,632.50 L184.95,607.50 L206.60,595.00 L228.25,607.50 L228.25,632.50 Z" fill="none" stroke="#C9A24B" stroke-width="2.0"/>
<path d="M249.90,645.00 L228.25,632.50 L228.25,607.50 L249.90,595.00 L271.55,607.50 L271.55,632.50 Z" fill="none" stroke="#C9A24B" stroke-width="2.0"/>
<path d="M293.21,645.00 L271.55,632.50 L271.55,607.50 L293.21,595.00 L314.86,607.50 L314.86,632.50 Z" fill="none" stroke="#C9A24B" stroke-width="2.0"/>
<path d="M336.51,645.00 L314.86,632.50 L314.86,607.50 L336.51,595.00 L358.16,607.50 L358.16,632.50 Z" fill="none" stroke="#C9A24B" stroke-width="2.0"/>
<path d="M379.81,645.00 L358.16,632.50 L358.16,607.50 L379.81,595.00 L401.46,607.50 L401.46,632.50 Z" fill="none" stroke="#C9A24B" stroke-width="2.0"/>
<path d="M423.11,645.00 L401.46,632.50 L401.46,607.50 L423.11,595.00 L444.76,607.50 L444.76,632.50 Z" fill="none" stroke="#C9A24B" stroke-width="2.0"/>
<path d="M466.41,645.00 L444.76,632.50 L444.76,607.50 L466.41,595.00 L488.06,607.50 L488.06,632.50 Z" fill="none" stroke="#C9A24B" stroke-width="2.0"/>
<path d="M509.71,645.00 L488.06,632.50 L488.06,607.50 L509.71,595.00 L531.36,607.50 L531.36,632.50 Z" fill="none" stroke="#C9A24B" stroke-width="2.0"/>
<path d="M553.01,645.00 L531.36,632.50 L531.36,607.50 L553.01,595.00 L574.66,607.50 L574.66,632.50 Z" fill="none" stroke="#C9A24B" stroke-width="2.0"/>
<path d="M596.31,645.00 L574.66,632.50 L574.66,607.50 L596.31,595.00 L617.96,607.50 L617.96,632.50 Z" fill="none" stroke="#C9A24B" stroke-width="2.0"/>
<path d="M125.00,120.00 L112.50,141.65 L87.50,141.65 L75.00,120.00 L87.50,98.35 L112.50,98.35 Z" fill="none" stroke="#C9A24B" stroke-width="2.0"/>
<path d="M125.00,163.30 L112.50,184.95 L87.50,184.95 L75.00,163.30 L87.50,141.65 L112.50,141.65 Z" fill="none" stroke="#C9A24B" stroke-width="2.0"/>
<path d="M125.00,206.60 L112.50,228.25 L87.50,228.25 L75.00,206.60 L87.50,184.95 L112.50,184.95 Z" fill="none" stroke="#C9A24B" stroke-width="2.0"/>
<path d="M125.00,249.90 L112.50,271.55 L87.50,271.55 L75.00,249.90 L87.50,228.25 L112.50,228.25 Z" fill="none" stroke="#C9A24B" stroke-width="2.0"/>
<path d="M125.00,293.21 L112.50,314.86 L87.50,314.86 L75.00,293.21 L87.50,271.55 L112.50,271.55 Z" fill="none" stroke="#C9A24B" stroke-width="2.0"/>
<path d="M125.00,336.51 L112.50,358.16 L87.50,358.16 L75.00,336.51 L87.50,314.86 L112.50,314.86 Z" fill="none" stroke="#C9A24B" stroke-width="2.0"/>
<path d="M125.00,379.81 L112.50,401.46 L87.50,401.46 L75.00,379.81 L87.50,358.16 L112.50,358.16 Z" fill="none" stroke="#C9A24B" stroke-width="2.0"/>
<path d="M125.00,423.11 L112.50,444.76 L87.50,444.76 L75.00,423.11 L87.50,401.46 L112.50,401.46 Z" fill="none" stroke="#C9A24B" stroke-width="2.0"/>
<path d="M125.00,466.41 L112.50,488.06 L87.50,488.06 L75.00,466.41 L87.50,444.76 L112.50,444.76 Z" fill="none" stroke="#C9A24B" stroke-width="2.0"/>
<path d="M125.00,509.71 L112.50,531.36 L87.50,531.36 L75.00,509.71 L87.50,488.06 L112.50,488.06 Z" fill="none" stroke="#C9A24B" stroke-width="2.0"/>
<path d="M125.00,553.01 L112.50,574.66 L87.50,574.66 L75.00,553.01 L87.50,531.36 L112.50,531.36 Z" fill="none" stroke="#C9A24B" stroke-width="2.0"/>
<path d="M125.00,596.31 L112.50,617.96 L87.50,617.96 L75.00,596.31 L87.50,574.66 L112.50,574.66 Z" fill="none" stroke="#C9A24B" stroke-width="2.0"/>
<path d="M645.00,120.00 L632.50,141.65 L607.50,141.65 L595.00,120.00 L607.50,98.35 L632.50,98.35 Z" fill="none" stroke="#C9A24B" stroke-width="2.0"/>
<path d="M645.00,163.30 L632.50,184.95 L607.50,184.95 L595.00,163.30 L607.50,141.65 L632.50,141.65 Z" fill="none" stroke="#C9A24B" stroke-width="2.0"/>
<path d="M645.00,206.60 L632.50,228.25 L607.50,228.25 L595.00,206.60 L607.50,184.95 L632.50,184.95 Z" fill="none" stroke="#C9A24B" stroke-width="2.0"/>
<path d="M645.00,249.90 L632.50,271.55 L607.50,271.55 L595.00,249.90 L607.50,228.25 L632.50,228.25 Z" fill="none" stroke="#C9A24B" stroke-width="2.0"/>
<path d="M645.00,293.21 L632.50,314.86 L607.50,314.86 L595.00,293.21 L607.50,271.55 L632.50,271.55 Z" fill="none" stroke="#C9A24B" stroke-width="2.0"/>
<path d="M645.00,336.51 L632.50,358.16 L607.50,358.16 L595.00,336.51 L607.50,314.86 L632.50,314.86 Z" fill="none" stroke="#C9A24B" stroke-width="2.0"/>
<path d="M645.00,379.81 L632.50,401.46 L607.50,401.46 L595.00,379.81 L607.50,358.16 L632.50,358.16 Z" fill="none" stroke="#C9A24B" stroke-width="2.0"/>
<path d="M645.00,423.11 L632.50,444.76 L607.50,444.76 L595.00,423.11 L607.50,401.46 L632.50,401.46 Z" fill="none" stroke="#C9A24B" stroke-width="2.0"/>
<path d="M645.00,466.41 L632.50,488.06 L607.50,488.06 L595.00,466.41 L607.50,444.76 L632.50,444.76 Z" fill="none" stroke="#C9A24B" stroke-width="2.0"/>
<path d="M645.00,509.71 L632.50,531.36 L607.50,531.36 L595.00,509.71 L607.50,488.06 L632.50,488.06 Z" fill="none" stroke="#C9A24B" stroke-width="2.0"/>
<path d="M645.00,553.01 L632.50,574.66 L607.50,574.66 L595.00,553.01 L607.50,531.36 L632.50,531.36 Z" fill="none" stroke="#C9A24B" stroke-width="2.0"/>
<path d="M645.00,596.31 L632.50,617.96 L607.50,617.96 L595.00,596.31 L607.50,574.66 L632.50,574.66 Z" fill="none" stroke="#C9A24B" stroke-width="2.0"/>
<path d="M150.00,150.00 L154.00,154.04 L158.00,157.22 L162.00,158.86 L166.00,158.62 L170.00,156.55 L174.00,153.08 L178.00,148.96 L182.00,145.05 L186.00,142.21 L190.00,141.02 L194.00,141.74 L198.00,144.21 L202.00,147.92 L206.00,152.08 L210.00,155.79 L214.00,158.26 L218.00,158.98 L222.00,157.79 L226.00,154.95 L230.00,151.04 L234.00,146.92 L238.00,143.45 L242.00,141.38 L246.00,141.14 L250.00,142.78 L254.00,145.96 L258.00,150.00 L262.00,154.04 L266.00,157.22 L270.00,158.86 L274.00,158.62 L278.00,156.55 L282.00,153.08 L286.00,148.96 L290.00,145.05 L294.00,142.21 L298.00,141.02 L302.00,141.74 L306.00,144.21 L310.00,147.92 L314.00,152.08 L318.00,155.79 L322.00,158.26 L326.00,158.98 L330.00,157.79 L334.00,154.95 L338.00,151.04 L342.00,146.92 L346.00,143.45 L350.00,141.38 L354.00,141.14 L358.00,142.78 L362.00,145.96 L366.00,150.00 L370.00,154.04 L374.00,157.22 L378.00,158.86 L382.00,158.62 L386.00,156.55 L390.00,153.08 L394.00,148.96 L398.00,145.05 L402.00,142.21 L406.00,141.02 L410.00,141.74 L414.00,144.21 L418.00,147.92 L422.00,152.08 L426.00,155.79 L430.00,158.26 L434.00,158.98 L438.00,157.79 L442.00,154.95 L446.00,151.04 L450.00,146.92 L454.00,143.45 L458.00,141.38 L462.00,141.14 L466.00,142.78 L470.00,145.96 L474.00,150.00 L478.00,154.04 L482.00,157.22 L486.00,158.86 L490.00,158.62 L494.00,156.55 L498.00,153.08 L502.00,148.96 L506.00,145.05 L510.00,142.21 L514.00,141.02 L518.00,141.74 L522.00,144.21 L526.00,147.92 L530.00,152.08 L534.00,155.79 L538.00,158.26 L542.00,158.98 L546.00,157.79 L550.00,154.95 L554.00,151.04 L558.00,146.92 L562.00,143.45 L566.00,141.38 L570.00,141.14" fill="none" stroke="#C9A24B" stroke-width="1.3"/>
<path d="M150.00,150.00 L154.00,145.96 L158.00,142.78 L162.00,141.14 L166.00,141.38 L170.00,143.45 L174.00,146.92 L178.00,151.04 L182.00,154.95 L186.00,157.79 L190.00,158.98 L194.00,158.26 L198.00,155.79 L202.00,152.08 L206.00,147.92 L210.00,144.21 L214.00,141.74 L218.00,141.02 L222.00,142.21 L226.00,145.05 L230.00,148.96 L234.00,153.08 L238.00,156.55 L242.00,158.62 L246.00,158.86 L250.00,157.22 L254.00,154.04 L258.00,150.00 L262.00,145.96 L266.00,142.78 L270.00,141.14 L274.00,141.38 L278.00,143.45 L282.00,146.92 L286.00,151.04 L290.00,154.95 L294.00,157.79 L298.00,158.98 L302.00,158.26 L306.00,155.79 L310.00,152.08 L314.00,147.92 L318.00,144.21 L322.00,141.74 L326.00,141.02 L330.00,142.21 L334.00,145.05 L338.00,148.96 L342.00,153.08 L346.00,156.55 L350.00,158.62 L354.00,158.86 L358.00,157.22 L362.00,154.04 L366.00,150.00 L370.00,145.96 L374.00,142.78 L378.00,141.14 L382.00,141.38 L386.00,143.45 L390.00,146.92 L394.00,151.04 L398.00,154.95 L402.00,157.79 L406.00,158.98 L410.00,158.26 L414.00,155.79 L418.00,152.08 L422.00,147.92 L426.00,144.21 L430.00,141.74 L434.00,141.02 L438.00,142.21 L442.00,145.05 L446.00,148.96 L450.00,153.08 L454.00,156.55 L458.00,158.62 L462.00,158.86 L466.00,157.22 L470.00,154.04 L474.00,150.00 L478.00,145.96 L482.00,142.78 L486.00,141.14 L490.00,141.38 L494.00,143.45 L498.00,146.92 L502.00,151.04 L506.00,154.95 L510.00,157.79 L514.00,158.98 L518.00,158.26 L522.00,155.79 L526.00,152.08 L530.00,147.92 L534.00,144.21 L538.00,141.74 L542.00,141.02 L546.00,142.21 L550.00,145.05 L554.00,148.96 L558.00,153.08 L562.00,156.55 L566.00,158.62 L570.00,158.86" fill="none" stroke="#C9A24B" stroke-width="1.3"/>
<path d="M150.00,570.00 L154.00,574.04 L158.00,577.22 L162.00,578.86 L166.00,578.62 L170.00,576.55 L174.00,573.08 L178.00,568.96 L182.00,565.05 L186.00,562.21 L190.00,561.02 L194.00,561.74 L198.00,564.21 L202.00,567.92 L206.00,572.08 L210.00,575.79 L214.00,578.26 L218.00,578.98 L222.00,577.79 L226.00,574.95 L230.00,571.04 L234.00,566.92 L238.00,563.45 L242.00,561.38 L246.00,561.14 L250.00,562.78 L254.00,565.96 L258.00,570.00 L262.00,574.04 L266.00,577.22 L270.00,578.86 L274.00,578.62 L278.00,576.55 L282.00,573.08 L286.00,568.96 L290.00,565.05 L294.00,562.21 L298.00,561.02 L302.00,561.74 L306.00,564.21 L310.00,567.92 L314.00,572.08 L318.00,575.79 L322.00,578.26 L326.00,578.98 L330.00,577.79 L334.00,574.95 L338.00,571.04 L342.00,566.92 L346.00,563.45 L350.00,561.38 L354.00,561.14 L358.00,562.78 L362.00,565.96 L366.00,570.00 L370.00,574.04 L374.00,577.22 L378.00,578.86 L382.00,578.62 L386.00,576.55 L390.00,573.08 L394.00,568.96 L398.00,565.05 L402.00,562.21 L406.00,561.02 L410.00,561.74 L414.00,564.21 L418.00,567.92 L422.00,572.08 L426.00,575.79 L430.00,578.26 L434.00,578.98 L438.00,577.79 L442.00,574.95 L446.00,571.04 L450.00,566.92 L454.00,563.45 L458.00,561.38 L462.00,561.14 L466.00,562.78 L470.00,565.96 L474.00,570.00 L478.00,574.04 L482.00,577.22 L486.00,578.86 L490.00,578.62 L494.00,576.55 L498.00,573.08 L502.00,568.96 L506.00,565.05 L510.00,562.21 L514.00,561.02 L518.00,561.74 L522.00,564.21 L526.00,567.92 L530.00,572.08 L534.00,575.79 L538.00,578.26 L542.00,578.98 L546.00,577.79 L550.00,574.95 L554.00,571.04 L558.00,566.92 L562.00,563.45 L566.00,561.38 L570.00,561.14" fill="none" stroke="#C9A24B" stroke-width="1.3"/>
<path d="M150.00,570.00 L154.00,565.96 L158.00,562.78 L162.00,561.14 L166.00,561.38 L170.00,563.45 L174.00,566.92 L178.00,571.04 L182.00,574.95 L186.00,577.79 L190.00,578.98 L194.00,578.26 L198.00,575.79 L202.00,572.08 L206.00,567.92 L210.00,564.21 L214.00,561.74 L218.00,561.02 L222.00,562.21 L226.00,565.05 L230.00,568.96 L234.00,573.08 L238.00,576.55 L242.00,578.62 L246.00,578.86 L250.00,577.22 L254.00,574.04 L258.00,570.00 L262.00,565.96 L266.00,562.78 L270.00,561.14 L274.00,561.38 L278.00,563.45 L282.00,566.92 L286.00,571.04 L290.00,574.95 L294.00,577.79 L298.00,578.98 L302.00,578.26 L306.00,575.79 L310.00,572.08 L314.00,567.92 L318.00,564.21 L322.00,561.74 L326.00,561.02 L330.00,562.21 L334.00,565.05 L338.00,568.96 L342.00,573.08 L346.00,576.55 L350.00,578.62 L354.00,578.86 L358.00,577.22 L362.00,574.04 L366.00,570.00 L370.00,565.96 L374.00,562.78 L378.00,561.14 L382.00,561.38 L386.00,563.45 L390.00,566.92 L394.00,571.04 L398.00,574.95 L402.00,577.79 L406.00,578.98 L410.00,578.26 L414.00,575.79 L418.00,572.08 L422.00,567.92 L426.00,564.21 L430.00,561.74 L434.00,561.02 L438.00,562.21 L442.00,565.05 L446.00,568.96 L450.00,573.08 L454.00,576.55 L458.00,578.62 L462.00,578.86 L466.00,577.22 L470.00,574.04 L474.00,570.00 L478.00,565.96 L482.00,562.78 L486.00,561.14 L490.00,561.38 L494.00,563.45 L498.00,566.92 L502.00,571.04 L506.00,574.95 L510.00,577.79 L514.00,578.98 L518.00,578.26 L522.00,575.79 L526.00,572.08 L530.00,567.92 L534.00,564.21 L538.00,561.74 L542.00,561.02 L546.00,562.21 L550.00,565.05 L554.00,568.96 L558.00,573.08 L562.00,576.55 L566.00,578.62 L570.00,578.86" fill="none" stroke="#C9A24B" stroke-width="1.3"/>
<path d="M150.00,150.00 L154.04,154.00 L157.22,158.00 L158.86,162.00 L158.62,166.00 L156.55,170.00 L153.08,174.00 L148.96,178.00 L145.05,182.00 L142.21,186.00 L141.02,190.00 L141.74,194.00 L144.21,198.00 L147.92,202.00 L152.08,206.00 L155.79,210.00 L158.26,214.00 L158.98,218.00 L157.79,222.00 L154.95,226.00 L151.04,230.00 L146.92,234.00 L143.45,238.00 L141.38,242.00 L141.14,246.00 L142.78,250.00 L145.96,254.00 L150.00,258.00 L154.04,262.00 L157.22,266.00 L158.86,270.00 L158.62,274.00 L156.55,278.00 L153.08,282.00 L148.96,286.00 L145.05,290.00 L142.21,294.00 L141.02,298.00 L141.74,302.00 L144.21,306.00 L147.92,310.00 L152.08,314.00 L155.79,318.00 L158.26,322.00 L158.98,326.00 L157.79,330.00 L154.95,334.00 L151.04,338.00 L146.92,342.00 L143.45,346.00 L141.38,350.00 L141.14,354.00 L142.78,358.00 L145.96,362.00 L150.00,366.00 L154.04,370.00 L157.22,374.00 L158.86,378.00 L158.62,382.00 L156.55,386.00 L153.08,390.00 L148.96,394.00 L145.05,398.00 L142.21,402.00 L141.02,406.00 L141.74,410.00 L144.21,414.00 L147.92,418.00 L152.08,422.00 L155.79,426.00 L158.26,430.00 L158.98,434.00 L157.79,438.00 L154.95,442.00 L151.04,446.00 L146.92,450.00 L143.45,454.00 L141.38,458.00 L141.14,462.00 L142.78,466.00 L145.96,470.00 L150.00,474.00 L154.04,478.00 L157.22,482.00 L158.86,486.00 L158.62,490.00 L156.55,494.00 L153.08,498.00 L148.96,502.00 L145.05,506.00 L142.21,510.00 L141.02,514.00 L141.74,518.00 L144.21,522.00 L147.92,526.00 L152.08,530.00 L155.79,534.00 L158.26,538.00 L158.98,542.00 L157.79,546.00 L154.95,550.00 L151.04,554.00 L146.92,558.00 L143.45,562.00 L141.38,566.00 L141.14,570.00" fill="none" stroke="#C9A24B" stroke-width="1.3"/>
<path d="M150.00,150.00 L145.96,154.00 L142.78,158.00 L141.14,162.00 L141.38,166.00 L143.45,170.00 L146.92,174.00 L151.04,178.00 L154.95,182.00 L157.79,186.00 L158.98,190.00 L158.26,194.00 L155.79,198.00 L152.08,202.00 L147.92,206.00 L144.21,210.00 L141.74,214.00 L141.02,218.00 L142.21,222.00 L145.05,226.00 L148.96,230.00 L153.08,234.00 L156.55,238.00 L158.62,242.00 L158.86,246.00 L157.22,250.00 L154.04,254.00 L150.00,258.00 L145.96,262.00 L142.78,266.00 L141.14,270.00 L141.38,274.00 L143.45,278.00 L146.92,282.00 L151.04,286.00 L154.95,290.00 L157.79,294.00 L158.98,298.00 L158.26,302.00 L155.79,306.00 L152.08,310.00 L147.92,314.00 L144.21,318.00 L141.74,322.00 L141.02,326.00 L142.21,330.00 L145.05,334.00 L148.96,338.00 L153.08,342.00 L156.55,346.00 L158.62,350.00 L158.86,354.00 L157.22,358.00 L154.04,362.00 L150.00,366.00 L145.96,370.00 L142.78,374.00 L141.14,378.00 L141.38,382.00 L143.45,386.00 L146.92,390.00 L151.04,394.00 L154.95,398.00 L157.79,402.00 L158.98,406.00 L158.26,410.00 L155.79,414.00 L152.08,418.00 L147.92,422.00 L144.21,426.00 L141.74,430.00 L141.02,434.00 L142.21,438.00 L145.05,442.00 L148.96,446.00 L153.08,450.00 L156.55,454.00 L158.62,458.00 L158.86,462.00 L157.22,466.00 L154.04,470.00 L150.00,474.00 L145.96,478.00 L142.78,482.00 L141.14,486.00 L141.38,490.00 L143.45,494.00 L146.92,498.00 L151.04,502.00 L154.95,506.00 L157.79,510.00 L158.98,514.00 L158.26,518.00 L155.79,522.00 L152.08,526.00 L147.92,530.00 L144.21,534.00 L141.74,538.00 L141.02,542.00 L142.21,546.00 L145.05,550.00 L148.96,554.00 L153.08,558.00 L156.55,562.00 L158.62,566.00 L158.86,570.00" fill="none" stroke="#C9A24B" stroke-width="1.3"/>
<path d="M570.00,150.00 L574.04,154.00 L577.22,158.00 L578.86,162.00 L578.62,166.00 L576.55,170.00 L573.08,174.00 L568.96,178.00 L565.05,182.00 L562.21,186.00 L561.02,190.00 L561.74,194.00 L564.21,198.00 L567.92,202.00 L572.08,206.00 L575.79,210.00 L578.26,214.00 L578.98,218.00 L577.79,222.00 L574.95,226.00 L571.04,230.00 L566.92,234.00 L563.45,238.00 L561.38,242.00 L561.14,246.00 L562.78,250.00 L565.96,254.00 L570.00,258.00 L574.04,262.00 L577.22,266.00 L578.86,270.00 L578.62,274.00 L576.55,278.00 L573.08,282.00 L568.96,286.00 L565.05,290.00 L562.21,294.00 L561.02,298.00 L561.74,302.00 L564.21,306.00 L567.92,310.00 L572.08,314.00 L575.79,318.00 L578.26,322.00 L578.98,326.00 L577.79,330.00 L574.95,334.00 L571.04,338.00 L566.92,342.00 L563.45,346.00 L561.38,350.00 L561.14,354.00 L562.78,358.00 L565.96,362.00 L570.00,366.00 L574.04,370.00 L577.22,374.00 L578.86,378.00 L578.62,382.00 L576.55,386.00 L573.08,390.00 L568.96,394.00 L565.05,398.00 L562.21,402.00 L561.02,406.00 L561.74,410.00 L564.21,414.00 L567.92,418.00 L572.08,422.00 L575.79,426.00 L578.26,430.00 L578.98,434.00 L577.79,438.00 L574.95,442.00 L571.04,446.00 L566.92,450.00 L563.45,454.00 L561.38,458.00 L561.14,462.00 L562.78,466.00 L565.96,470.00 L570.00,474.00 L574.04,478.00 L577.22,482.00 L578.86,486.00 L578.62,490.00 L576.55,494.00 L573.08,498.00 L568.96,502.00 L565.05,506.00 L562.21,510.00 L561.02,514.00 L561.74,518.00 L564.21,522.00 L567.92,526.00 L572.08,530.00 L575.79,534.00 L578.26,538.00 L578.98,542.00 L577.79,546.00 L574.95,550.00 L571.04,554.00 L566.92,558.00 L563.45,562.00 L561.38,566.00 L561.14,570.00" fill="none" stroke="#C9A24B" stroke-width="1.3"/>
<path d="M570.00,150.00 L565.96,154.00 L562.78,158.00 L561.14,162.00 L561.38,166.00 L563.45,170.00 L566.92,174.00 L571.04,178.00 L574.95,182.00 L577.79,186.00 L578.98,190.00 L578.26,194.00 L575.79,198.00 L572.08,202.00 L567.92,206.00 L564.21,210.00 L561.74,214.00 L561.02,218.00 L562.21,222.00 L565.05,226.00 L568.96,230.00 L573.08,234.00 L576.55,238.00 L578.62,242.00 L578.86,246.00 L577.22,250.00 L574.04,254.00 L570.00,258.00 L565.96,262.00 L562.78,266.00 L561.14,270.00 L561.38,274.00 L563.45,278.00 L566.92,282.00 L571.04,286.00 L574.95,290.00 L577.79,294.00 L578.98,298.00 L578.26,302.00 L575.79,306.00 L572.08,310.00 L567.92,314.00 L564.21,318.00 L561.74,322.00 L561.02,326.00 L562.21,330.00 L565.05,334.00 L568.96,338.00 L573.08,342.00 L576.55,346.00 L578.62,350.00 L578.86,354.00 L577.22,358.00 L574.04,362.00 L570.00,366.00 L565.96,370.00 L562.78,374.00 L561.14,378.00 L561.38,382.00 L563.45,386.00 L566.92,390.00 L571.04,394.00 L574.95,398.00 L577.79,402.00 L578.98,406.00 L578.26,410.00 L575.79,414.00 L572.08,418.00 L567.92,422.00 L564.21,426.00 L561.74,430.00 L561.02,434.00 L562.21,438.00 L565.05,442.00 L568.96,446.00 L573.08,450.00 L576.55,454.00 L578.62,458.00 L578.86,462.00 L577.22,466.00 L574.04,470.00 L570.00,474.00 L565.96,478.00 L562.78,482.00 L561.14,486.00 L561.38,490.00 L563.45,494.00 L566.92,498.00 L571.04,502.00 L574.95,506.00 L577.79,510.00 L578.98,514.00 L578.26,518.00 L575.79,522.00 L572.08,526.00 L567.92,530.00 L564.21,534.00 L561.74,538.00 L561.02,542.00 L562.21,546.00 L565.05,550.00 L568.96,554.00 L573.08,558.00 L576.55,562.00 L578.62,566.00 L578.86,570.00" fill="none" stroke="#C9A24B" stroke-width="1.3"/>
<circle cx="70" cy="70" r="7" fill="none" stroke="#C9A24B" stroke-width="2.0"/>
<path d="M88.00,104.00 L74.14,96.00 L74.14,80.00 L88.00,72.00 L101.86,80.00 L101.86,96.00 Z" fill="none" stroke="#C9A24B" stroke-width="1.8"/>
<circle cx="650" cy="70" r="7" fill="none" stroke="#C9A24B" stroke-width="2.0"/>
<path d="M632.00,104.00 L618.14,96.00 L618.14,80.00 L632.00,72.00 L645.86,80.00 L645.86,96.00 Z" fill="none" stroke="#C9A24B" stroke-width="1.8"/>
<circle cx="70" cy="650" r="7" fill="none" stroke="#C9A24B" stroke-width="2.0"/>
<path d="M88.00,648.00 L74.14,640.00 L74.14,624.00 L88.00,616.00 L101.86,624.00 L101.86,640.00 Z" fill="none" stroke="#C9A24B" stroke-width="1.8"/>
<circle cx="650" cy="650" r="7" fill="none" stroke="#C9A24B" stroke-width="2.0"/>
<path d="M632.00,648.00 L618.14,640.00 L618.14,624.00 L632.00,616.00 L645.86,624.00 L645.86,640.00 Z" fill="none" stroke="#C9A24B" stroke-width="1.8"/>
</svg>
