<?xml version="1.0" encoding="UTF-8"?>
<svg xmlns="http://www.w3.org/2000/svg" width="1080" height="220" viewBox="0 0 1080 220">
  <title>Alkane / Zopf / methan</title>
  <g fill="none" stroke="#1A1A1A" stroke-width="5.0" stroke-linecap="round" stroke-linejoin="round">
    <polyline points="30,102.5 36,92.9 42,84.1 48,76.3 54,70.1 60,65.6 66,63.0 72,62.5 78,64.1 84,67.7 90,73.1 96,80.1 102,88.5 108,97.8 114,107.6 120,117.5 126,127.1 132,135.9 138,143.7 144,149.9 150,154.4 156,157.0 162,157.5 168,155.9 174,152.3 180,146.9 186,139.9 192,131.5 198,122.2 204,112.4 210,102.5 216,92.9 222,84.1 228,76.3 234,70.1 240,65.6 246,63.0 252,62.5 258,64.1 264,67.7 270,73.1 276,80.1 282,88.5 288,97.8 294,107.6 300,117.5 306,127.1 312,135.9 318,143.7 324,149.9 330,154.4 336,157.0 342,157.5 348,155.9 354,152.3 360,146.9 366,139.9 372,131.5 378,122.2 384,112.4 390,102.5 396,92.9 402,84.1 408,76.3 414,70.1 420,65.6 426,63.0 432,62.5 438,64.1 444,67.7 450,73.1 456,80.1 462,88.5 468,97.8 474,107.6 480,117.5 486,127.1 492,135.9 498,143.7 504,149.9 510,154.4 516,157.0 522,157.5 528,155.9 534,152.3 540,146.9 546,139.9 552,131.5 558,122.2 564,112.4 570,102.5 576,92.9 582,84.1 588,76.3 594,70.1 600,65.6 606,63.0 612,62.5 618,64.1 624,67.7 630,73.1 636,80.1 642,88.5 648,97.8 654,107.6 660,117.5 666,127.1 672,135.9 678,143.7 684,149.9 690,154.4 696,157.0 702,157.5 708,155.9 714,152.3 720,146.9 726,139.9 732,131.5 738,122.2 744,112.4 750,102.5 756,92.9 762,84.1 768,76.3 774,70.1 780,65.6 786,63.0 792,62.5 798,64.1 804,67.7 810,73.1 816,80.1 822,88.5 828,97.8 834,107.6 840,117.5 846,127.1 852,135.9 858,143.7 864,149.9 870,154.4 876,157.0 882,157.5 888,155.9 894,152.3 900,146.9 906,139.9 912,131.5 918,122.2 924,112.4 930,102.5 936,92.9 942,84.1 948,76.3 954,70.1 960,65.6 966,63.0 972,62.5 978,64.1 984,67.7 990,73.1 996,80.1 1002,88.5 1008,97.8 1014,107.6 1020,117.5 1026,127.1 1032,135.9 1038,143.7 1044,149.9 1050,154.4 1056,157.0"/>
    <polyline points="30,117.5 36,127.1 42,135.9 48,143.7 54,149.9 60,154.4 66,157.0 72,157.5 78,155.9 84,152.3 90,146.9 96,139.9 102,131.5 108,122.2 114,112.4 120,102.5 126,92.9 132,84.1 138,76.3 144,70.1 150,65.6 156,63.0 162,62.5 168,64.1 174,67.7 180,73.1 186,80.1 192,88.5 198,97.8 204,107.6 210,117.5 216,127.1 222,135.9 228,143.7 234,149.9 240,154.4 246,157.0 252,157.5 258,155.9 264,152.3 270,146.9 276,139.9 282,131.5 288,122.2 294,112.4 300,102.5 306,92.9 312,84.1 318,76.3 324,70.1 330,65.6 336,63.0 342,62.5 348,64.1 354,67.7 360,73.1 366,80.1 372,88.5 378,97.8 384,107.6 390,117.5 396,127.1 402,135.9 408,143.7 414,149.9 420,154.4 426,157.0 432,157.5 438,155.9 444,152.3 450,146.9 456,139.9 462,131.5 468,122.2 474,112.4 480,102.5 486,92.9 492,84.1 498,76.3 504,70.1 510,65.6 516,63.0 522,62.5 528,64.1 534,67.7 540,73.1 546,80.1 552,88.5 558,97.8 564,107.6 570,117.5 576,127.1 582,135.9 588,143.7 594,149.9 600,154.4 606,157.0 612,157.5 618,155.9 624,152.3 630,146.9 636,139.9 642,131.5 648,122.2 654,112.4 660,102.5 666,92.9 672,84.1 678,76.3 684,70.1 690,65.6 696,63.0 702,62.5 708,64.1 714,67.7 720,73.1 726,80.1 732,88.5 738,97.8 744,107.6 750,117.5 756,127.1 762,135.9 768,143.7 774,149.9 780,154.4 786,157.0 792,157.5 798,155.9 804,152.3 810,146.9 816,139.9 822,131.5 828,122.2 834,112.4 840,102.5 846,92.9 852,84.1 858,76.3 864,70.1 870,65.6 876,63.0 882,62.5 888,64.1 894,67.7 900,73.1 906,80.1 912,88.5 918,97.8 924,107.6 930,117.5 936,127.1 942,135.9 948,143.7 954,149.9 960,154.4 966,157.0 972,157.5 978,155.9 984,152.3 990,146.9 996,139.9 1002,131.5 1008,122.2 1014,112.4 1020,102.5 1026,92.9 1032,84.1 1038,76.3 1044,70.1 1050,65.6 1056,63.0"/>
  </g>
</svg>
