<?xml version="1.0" encoding="UTF-8"?>
<svg xmlns="http://www.w3.org/2000/svg" width="1080" height="220" viewBox="0 0 1080 220">
  <title>Ketone / Spirale / propanon</title>
  <g fill="none" stroke="#1A1A1A" stroke-width="5.0" stroke-linecap="round" stroke-linejoin="round">
    <polyline points="116.0,110.0 116.6,110.6 117.1,111.2 117.6,111.9 117.9,112.8 118.2,113.7 118.4,114.6 118.5,115.7 118.5,116.7 118.3,117.8 118.1,118.9 117.6,120.1 117.1,121.2 116.4,122.3 115.6,123.3 114.7,124.3 113.6,125.2 112.4,126.1 111.1,126.8 109.6,127.5 108.1,128.0 106.5,128.3 104.8,128.6 103.1,128.6 101.3,128.5 99.5,128.3 97.6,127.8 95.8,127.2 94.0,126.4 92.2,125.4 90.5,124.2 88.9,122.8 87.3,121.3 85.9,119.5 84.6,117.7 83.5,115.6 82.5,113.5 81.7,111.2 81.1,108.8 80.7,106.3 80.5,103.7 80.6,101.1 80.9,98.5 81.4,95.8 82.2,93.1 83.2,90.5 84.5,87.9 86.0,85.5 87.7,83.1 89.7,80.8 91.9,78.7 94.3,76.7 97.0,75.0 99.8,73.4 102.8,72.1 105.9,71.0 109.2,70.2 112.5,69.7 116.0,69.5 119.5,69.5 123.0,69.9 126.6,70.5 130.1,71.5 133.6,72.8 137.0,74.5 140.2,76.4 143.4,78.6 146.4,81.2 149.2,84.0 151.7,87.1 154.1,90.4 156.1,93.9 157.9,97.7 159.3,101.7 160.5,105.8 161.2,110.0 161.7,114.3 161.7,118.7 161.4,123.2 160.7,127.6 159.6,132.1 158.1,136.4 156.2,140.7 153.9,144.8 151.3,148.8 148.3,152.6 145.0,156.1 141.3,159.4 137.4,162.4 133.1,165.0 128.6,167.3 123.9,169.3 119.0,170.8 113.9,172.0 108.7,172.7 103.4,173.0 98.0,172.8 92.7,172.1 87.3,171.0 82.0,169.5 76.8,167.4 71.8,165.0 67.0,162.0 62.3,158.7 58.0,154.9 53.9,150.8 50.2,146.2 46.8,141.4 43.9,136.2 41.3,130.7 39.2,125.0 37.6,119.1 36.5,113.1 35.9,106.9 35.8,100.6 36.3,94.3 37.3,88.0 38.8,81.8 40.9,75.7 43.5,69.7 46.6,63.9"/>
    <circle cx="110.0" cy="110.0" r="10"/>
    <circle cx="110.0" cy="110.0" r="5"/>
    <polyline points="281.0,110.0 281.6,110.6 282.1,111.2 282.6,111.9 282.9,112.8 283.2,113.7 283.4,114.6 283.5,115.7 283.5,116.7 283.3,117.8 283.1,118.9 282.6,120.1 282.1,121.2 281.4,122.3 280.6,123.3 279.7,124.3 278.6,125.2 277.4,126.1 276.1,126.8 274.6,127.5 273.1,128.0 271.5,128.3 269.8,128.6 268.1,128.6 266.3,128.5 264.5,128.3 262.6,127.8 260.8,127.2 259.0,126.4 257.2,125.4 255.5,124.2 253.9,122.8 252.3,121.3 250.9,119.5 249.6,117.7 248.5,115.6 247.5,113.5 246.7,111.2 246.1,108.8 245.7,106.3 245.5,103.7 245.6,101.1 245.9,98.5 246.4,95.8 247.2,93.1 248.2,90.5 249.5,87.9 251.0,85.5 252.7,83.1 254.7,80.8 256.9,78.7 259.3,76.7 262.0,75.0 264.8,73.4 267.8,72.1 270.9,71.0 274.2,70.2 277.5,69.7 281.0,69.5 284.5,69.5 288.0,69.9 291.6,70.5 295.1,71.5 298.6,72.8 302.0,74.5 305.2,76.4 308.4,78.6 311.4,81.2 314.2,84.0 316.7,87.1 319.1,90.4 321.1,93.9 322.9,97.7 324.3,101.7 325.5,105.8 326.2,110.0 326.7,114.3 326.7,118.7 326.4,123.2 325.7,127.6 324.6,132.1 323.1,136.4 321.2,140.7 318.9,144.8 316.3,148.8 313.3,152.6 310.0,156.1 306.3,159.4 302.4,162.4 298.1,165.0 293.6,167.3 288.9,169.3 284.0,170.8 278.9,172.0 273.7,172.7 268.4,173.0 263.0,172.8 257.7,172.1 252.3,171.0 247.0,169.5 241.8,167.4 236.8,165.0 232.0,162.0 227.3,158.7 223.0,154.9 218.9,150.8 215.2,146.2 211.8,141.4 208.9,136.2 206.3,130.7 204.2,125.0 202.6,119.1 201.5,113.1 200.9,106.9 200.8,100.6 201.3,94.3 202.3,88.0 203.8,81.8 205.9,75.7 208.5,69.7 211.6,63.9"/>
    <circle cx="275.0" cy="110.0" r="10"/>
    <circle cx="275.0" cy="110.0" r="5"/>
    <polyline points="446.0,110.0 446.6,110.6 447.1,111.2 447.6,111.9 447.9,112.8 448.2,113.7 448.4,114.6 448.5,115.7 448.5,116.7 448.3,117.8 448.1,118.9 447.6,120.1 447.1,121.2 446.4,122.3 445.6,123.3 444.7,124.3 443.6,125.2 442.4,126.1 441.1,126.8 439.6,127.5 438.1,128.0 436.5,128.3 434.8,128.6 433.1,128.6 431.3,128.5 429.5,128.3 427.6,127.8 425.8,127.2 424.0,126.4 422.2,125.4 420.5,124.2 418.9,122.8 417.3,121.3 415.9,119.5 414.6,117.7 413.5,115.6 412.5,113.5 411.7,111.2 411.1,108.8 410.7,106.3 410.5,103.7 410.6,101.1 410.9,98.5 411.4,95.8 412.2,93.1 413.2,90.5 414.5,87.9 416.0,85.5 417.7,83.1 419.7,80.8 421.9,78.7 424.3,76.7 427.0,75.0 429.8,73.4 432.8,72.1 435.9,71.0 439.2,70.2 442.5,69.7 446.0,69.5 449.5,69.5 453.0,69.9 456.6,70.5 460.1,71.5 463.6,72.8 467.0,74.5 470.2,76.4 473.4,78.6 476.4,81.2 479.2,84.0 481.7,87.1 484.1,90.4 486.1,93.9 487.9,97.7 489.3,101.7 490.5,105.8 491.2,110.0 491.7,114.3 491.7,118.7 491.4,123.2 490.7,127.6 489.6,132.1 488.1,136.4 486.2,140.7 483.9,144.8 481.3,148.8 478.3,152.6 475.0,156.1 471.3,159.4 467.4,162.4 463.1,165.0 458.6,167.3 453.9,169.3 449.0,170.8 443.9,172.0 438.7,172.7 433.4,173.0 428.0,172.8 422.7,172.1 417.3,171.0 412.0,169.5 406.8,167.4 401.8,165.0 397.0,162.0 392.3,158.7 388.0,154.9 383.9,150.8 380.2,146.2 376.8,141.4 373.9,136.2 371.3,130.7 369.2,125.0 367.6,119.1 366.5,113.1 365.9,106.9 365.8,100.6 366.3,94.3 367.3,88.0 368.8,81.8 370.9,75.7 373.5,69.7 376.6,63.9"/>
    <circle cx="440.0" cy="110.0" r="10"/>
    <circle cx="440.0" cy="110.0" r="5"/>
    <polyline points="599.0,110.0 598.4,110.6 597.9,111.2 597.4,111.9 597.1,112.8 596.8,113.7 596.6,114.6 596.5,115.7 596.5,116.7 596.7,117.8 596.9,118.9 597.4,120.1 597.9,121.2 598.6,122.3 599.4,123.3 600.3,124.3 601.4,125.2 602.6,126.1 603.9,126.8 605.4,127.5 606.9,128.0 608.5,128.3 610.2,128.6 611.9,128.6 613.7,128.5 615.5,128.3 617.4,127.8 619.2,127.2 621.0,126.4 622.8,125.4 624.5,124.2 626.1,122.8 627.7,121.3 629.1,119.5 630.4,117.7 631.5,115.6 632.5,113.5 633.3,111.2 633.9,108.8 634.3,106.3 634.5,103.7 634.4,101.1 634.1,98.5 633.6,95.8 632.8,93.1 631.8,90.5 630.5,87.9 629.0,85.5 627.3,83.1 625.3,80.8 623.1,78.7 620.7,76.7 618.0,75.0 615.2,73.4 612.2,72.1 609.1,71.0 605.8,70.2 602.5,69.7 599.0,69.5 595.5,69.5 592.0,69.9 588.4,70.5 584.9,71.5 581.4,72.8 578.0,74.5 574.8,76.4 571.6,78.6 568.6,81.2 565.8,84.0 563.3,87.1 560.9,90.4 558.9,93.9 557.1,97.7 555.7,101.7 554.5,105.8 553.8,110.0 553.3,114.3 553.3,118.7 553.6,123.2 554.3,127.6 555.4,132.1 556.9,136.4 558.8,140.7 561.1,144.8 563.7,148.8 566.7,152.6 570.0,156.1 573.7,159.4 577.6,162.4 581.9,165.0 586.4,167.3 591.1,169.3 596.0,170.8 601.1,172.0 606.3,172.7 611.6,173.0 617.0,172.8 622.3,172.1 627.7,171.0 633.0,169.5 638.2,167.4 643.2,165.0 648.0,162.0 652.7,158.7 657.0,154.9 661.1,150.8 664.8,146.2 668.2,141.4 671.1,136.2 673.7,130.7 675.8,125.0 677.4,119.1 678.5,113.1 679.1,106.9 679.2,100.6 678.7,94.3 677.7,88.0 676.2,81.8 674.1,75.7 671.5,69.7 668.4,63.9"/>
    <circle cx="605.0" cy="110.0" r="10"/>
    <circle cx="605.0" cy="110.0" r="5"/>
    <polyline points="764.0,110.0 763.4,110.6 762.9,111.2 762.4,111.9 762.1,112.8 761.8,113.7 761.6,114.6 761.5,115.7 761.5,116.7 761.7,117.8 761.9,118.9 762.4,120.1 762.9,121.2 763.6,122.3 764.4,123.3 765.3,124.3 766.4,125.2 767.6,126.1 768.9,126.8 770.4,127.5 771.9,128.0 773.5,128.3 775.2,128.6 776.9,128.6 778.7,128.5 780.5,128.3 782.4,127.8 784.2,127.2 786.0,126.4 787.8,125.4 789.5,124.2 791.1,122.8 792.7,121.3 794.1,119.5 795.4,117.7 796.5,115.6 797.5,113.5 798.3,111.2 798.9,108.8 799.3,106.3 799.5,103.7 799.4,101.1 799.1,98.5 798.6,95.8 797.8,93.1 796.8,90.5 795.5,87.9 794.0,85.5 792.3,83.1 790.3,80.8 788.1,78.7 785.7,76.7 783.0,75.0 780.2,73.4 777.2,72.1 774.1,71.0 770.8,70.2 767.5,69.7 764.0,69.5 760.5,69.5 757.0,69.9 753.4,70.5 749.9,71.5 746.4,72.8 743.0,74.5 739.8,76.4 736.6,78.6 733.6,81.2 730.8,84.0 728.3,87.1 725.9,90.4 723.9,93.9 722.1,97.7 720.7,101.7 719.5,105.8 718.8,110.0 718.3,114.3 718.3,118.7 718.6,123.2 719.3,127.6 720.4,132.1 721.9,136.4 723.8,140.7 726.1,144.8 728.7,148.8 731.7,152.6 735.0,156.1 738.7,159.4 742.6,162.4 746.9,165.0 751.4,167.3 756.1,169.3 761.0,170.8 766.1,172.0 771.3,172.7 776.6,173.0 782.0,172.8 787.3,172.1 792.7,171.0 798.0,169.5 803.2,167.4 808.2,165.0 813.0,162.0 817.7,158.7 822.0,154.9 826.1,150.8 829.8,146.2 833.2,141.4 836.1,136.2 838.7,130.7 840.8,125.0 842.4,119.1 843.5,113.1 844.1,106.9 844.2,100.6 843.7,94.3 842.7,88.0 841.2,81.8 839.1,75.7 836.5,69.7 833.4,63.9"/>
    <circle cx="770.0" cy="110.0" r="10"/>
    <circle cx="770.0" cy="110.0" r="5"/>
    <polyline points="929.0,110.0 928.4,110.6 927.9,111.2 927.4,111.9 927.1,112.8 926.8,113.7 926.6,114.6 926.5,115.7 926.5,116.7 926.7,117.8 926.9,118.9 927.4,120.1 927.9,121.2 928.6,122.3 929.4,123.3 930.3,124.3 931.4,125.2 932.6,126.1 933.9,126.8 935.4,127.5 936.9,128.0 938.5,128.3 940.2,128.6 941.9,128.6 943.7,128.5 945.5,128.3 947.4,127.8 949.2,127.2 951.0,126.4 952.8,125.4 954.5,124.2 956.1,122.8 957.7,121.3 959.1,119.5 960.4,117.7 961.5,115.6 962.5,113.5 963.3,111.2 963.9,108.8 964.3,106.3 964.5,103.7 964.4,101.1 964.1,98.5 963.6,95.8 962.8,93.1 961.8,90.5 960.5,87.9 959.0,85.5 957.3,83.1 955.3,80.8 953.1,78.7 950.7,76.7 948.0,75.0 945.2,73.4 942.2,72.1 939.1,71.0 935.8,70.2 932.5,69.7 929.0,69.5 925.5,69.5 922.0,69.9 918.4,70.5 914.9,71.5 911.4,72.8 908.0,74.5 904.8,76.4 901.6,78.6 898.6,81.2 895.8,84.0 893.3,87.1 890.9,90.4 888.9,93.9 887.1,97.7 885.7,101.7 884.5,105.8 883.8,110.0 883.3,114.3 883.3,118.7 883.6,123.2 884.3,127.6 885.4,132.1 886.9,136.4 888.8,140.7 891.1,144.8 893.7,148.8 896.7,152.6 900.0,156.1 903.7,159.4 907.6,162.4 911.9,165.0 916.4,167.3 921.1,169.3 926.0,170.8 931.1,172.0 936.3,172.7 941.6,173.0 947.0,172.8 952.3,172.1 957.7,171.0 963.0,169.5 968.2,167.4 973.2,165.0 978.0,162.0 982.7,158.7 987.0,154.9 991.1,150.8 994.8,146.2 998.2,141.4 1001.1,136.2 1003.7,130.7 1005.8,125.0 1007.4,119.1 1008.5,113.1 1009.1,106.9 1009.2,100.6 1008.7,94.3 1007.7,88.0 1006.2,81.8 1004.1,75.7 1001.5,69.7 998.4,63.9"/>
    <circle cx="935.0" cy="110.0" r="10"/>
    <circle cx="935.0" cy="110.0" r="5"/>
  </g>
</svg>
