<?xml version="1.0" encoding="UTF-8"?>
<svg xmlns="http://www.w3.org/2000/svg" width="1080" height="220" viewBox="0 0 1080 220">
  <title>Ketone / Tropfen / propanon</title>
  <g fill="none" stroke="#1A1A1A" stroke-width="5.0" stroke-linecap="round" stroke-linejoin="round">
    <path d="M 121.6 94.4 A 40 40 0 1 1 66.4 106.4 L 83.0 49.8 Z"/>
    <path d="M 112.6 108.5 A 23.2 23.2 0 1 1 80.5 115.4 L 90.2 82.7 Z"/>
    <path d="M 277.8 99.2 A 40 40 0 1 1 221.2 100.2 L 248.5 48.0 Z"/>
    <path d="M 266.1 111.3 A 23.2 23.2 0 1 1 233.3 111.9 L 249.1 81.6 Z"/>
    <path d="M 426.6 98.1 A 40 40 0 1 1 370.1 101.4 L 395.4 48.1 Z"/>
    <path d="M 415.4 110.7 A 23.2 23.2 0 1 1 382.7 112.6 L 397.3 81.7 Z"/>
    <circle cx="400.0" cy="118.0" r="7" fill="#1A1A1A" stroke="none"/>
    <path d="M 571.6 94.3 A 40 40 0 1 1 516.3 106.4 L 532.9 49.8 Z"/>
    <path d="M 562.5 108.5 A 23.2 23.2 0 1 1 530.5 115.5 L 540.1 82.7 Z"/>
    <path d="M 726.7 98.2 A 40 40 0 1 1 670.2 101.3 L 695.6 48.1 Z"/>
    <path d="M 715.5 110.7 A 23.2 23.2 0 1 1 682.7 112.5 L 697.5 81.7 Z"/>
    <path d="M 880.9 102.6 A 40 40 0 1 1 824.6 97.1 L 857.9 48.4 Z"/>
    <path d="M 867.9 113.3 A 23.2 23.2 0 1 1 835.3 110.1 L 854.6 81.8 Z"/>
  </g>
</svg>
