<?xml version="1.0" encoding="UTF-8"?>
<svg xmlns="http://www.w3.org/2000/svg" xmlns:xlink="http://www.w3.org/1999/xlink" width="591" height="591" viewBox="0 0 591 591">
<defs>
    <clipPath id="rund"><circle cx="295.5" cy="295.5" r="293.5"/></clipPath>
    <linearGradient id="ring-grad" x1="0" y1="0" x2="1" y2="1">
      <stop offset="0%" stop-color="#FF8FB1"/>
      <stop offset="33%" stop-color="#FFC93C"/>
      <stop offset="66%" stop-color="#39C5BB"/>
      <stop offset="100%" stop-color="#FF3D78"/>
    </linearGradient>
  </defs>
<g clip-path="url(#rund)">
<circle cx="295.5" cy="295.5" r="295.5" fill="#FFF7EA"/>
<circle cx="295.5" cy="295.5" r="289.5" fill="none" stroke="url(#ring-grad)" stroke-width="18.0"/>
<circle cx="295.5" cy="295.5" r="269.5" fill="#FFF7EA"/>
<image href="elemente/cutout/konfetti-teile/teil-15.png" x="54.0" y="50.0" width="34.0" height="34.0" preserveAspectRatio="xMidYMid meet"/>
<image href="elemente/cutout/konfetti-teile/teil-17.png" x="505.0" y="46.0" width="34.0" height="36.0" preserveAspectRatio="xMidYMid meet"/>
<image href="elemente/cutout/konfetti-teile/teil-11.png" x="50.0" y="505.0" width="40.0" height="41.0" preserveAspectRatio="xMidYMid meet"/>
<image href="elemente/cutout/konfetti-teile/teil-08.png" x="503.0" y="505.0" width="38.0" height="42.0" preserveAspectRatio="xMidYMid meet"/>
<rect x="65.2" y="65.2" width="460.6" height="460.6" rx="14" ry="14" fill="#FFFDF8"/>
<g transform="translate(118.33,118.33) scale(29.52756)" shape-rendering="crispEdges">
<rect x="0" y="0" width="12" height="12" fill="#F7F1E1"/>
<rect x="2" y="2" width="8" height="8" fill="#241A12"/>
<rect x="5" y="4" width="1" height="1" fill="#F7F1E1"/>
<rect x="6" y="4" width="1" height="1" fill="#F7F1E1"/>
<rect x="7" y="4" width="1" height="1" fill="#F7F1E1"/>
<rect x="5" y="5" width="1" height="1" fill="#F7F1E1"/>
<rect x="7" y="5" width="1" height="1" fill="#F7F1E1"/>
<rect x="4" y="6" width="1" height="1" fill="#F7F1E1"/>
<rect x="6" y="6" width="1" height="1" fill="#F7F1E1"/>
<rect x="7" y="6" width="1" height="1" fill="#F7F1E1"/>
<rect x="6" y="7" width="1" height="1" fill="#F7F1E1"/>
<rect x="7" y="7" width="1" height="1" fill="#F7F1E1"/>
</g>
</g>
<circle cx="295.5" cy="295.5" r="293.5" fill="none" stroke="#FFFFFF" stroke-width="4"/>
<g id="schnittkontur" data-role="cut-line">
<circle cx="295.5" cy="295.5" r="295.0" fill="none" stroke="#FF00FF" stroke-width="0.75"/>
</g>
</svg>